  0
SECTION
  2
HEADER
  9
$ACADVER
  1
AC1014
  9
$HANDSEED
  5
FFFF
  9
$MEASUREMENT
 70
     1
  0
ENDSEC
  0
SECTION
  2
TABLES
  0
TABLE
  2
VPORT
  5
8
330
0
100
AcDbSymbolTable
 70
     4
  0
VPORT
  5
2E
330
8
100
AcDbSymbolTableRecord
100
AcDbViewportTableRecord
  2
*ACTIVE
 70
     0
 10
0.0
 20
0.0
 11
1.0
 21
1.0
 12
210.0
 22
148.5
 13
0.0
 23
0.0
 14
10.0
 24
10.0
 15
10.0
 25
10.0
 16
0.0
 26
0.0
 36
1.0
 17
0.0
 27
0.0
 37
0.0
 40
341.0
 41
1.24
 42
50.0
 43
0.0
 44
0.0
 50
0.0
 51
0.0
 71
     0
 72
   100
 73
     1
 74
     3
 75
     0
 76
     0
 77
     0
 78
     0
  0
ENDTAB
  0
TABLE
  2
LTYPE
  5
5
330
0
100
AcDbSymbolTable
 70
     1
  0
LTYPE
  5
14
330
5
100
AcDbSymbolTableRecord
100
AcDbLinetypeTableRecord
  2
BYBLOCK
 70
     0
  3

 72
    65
 73
     0
 40
0.0
  0
LTYPE
  5
15
330
5
100
AcDbSymbolTableRecord
100
AcDbLinetypeTableRecord
  2
BYLAYER
 70
     0
  3

 72
    65
 73
     0
 40
0.0
  0
LTYPE
  5
16
330
5
100
AcDbSymbolTableRecord
100
AcDbLinetypeTableRecord
  2
CONTINUOUS
 70
     0
  3
Solid line
 72
    65
 73
     0
 40
0.0
  0
ENDTAB
  0
TABLE
  2
LAYER
  5
2
100
AcDbSymbolTable
 70
2
  0
LAYER
  5
50
100
AcDbSymbolTableRecord
100
AcDbLayerTableRecord
  2
0
 70
0
  6
CONTINUOUS
  0
LAYER
  5
51
100
AcDbSymbolTableRecord
100
AcDbLayerTableRecord
  2
Layer_1
 70
0
  6
CONTINUOUS
  0
ENDTAB
  0
TABLE
  2
STYLE
  5
3
330
0
100
AcDbSymbolTable
 70
     1
  0
STYLE
  5
11
330
3
100
AcDbSymbolTableRecord
100
AcDbTextStyleTableRecord
  2
STANDARD
 70
     0
 40
0.0
 41
1.0
 50
0.0
 71
     0
 42
2.5
  3
txt
  4

  0
ENDTAB
  0
TABLE
  2
VIEW
  5
6
330
0
100
AcDbSymbolTable
 70
     0
  0
ENDTAB
  0
TABLE
  2
UCS
  5
7
330
0
100
AcDbSymbolTable
 70
     0
  0
ENDTAB
  0
TABLE
  2
APPID
  5
9
330
0
100
AcDbSymbolTable
 70
     2
  0
APPID
  5
12
330
9
100
AcDbSymbolTableRecord
100
AcDbRegAppTableRecord
  2
ACAD
 70
     0
  0
ENDTAB
  0
TABLE
  2
DIMSTYLE
  5
A
330
0
100
AcDbSymbolTable
 70
     1
  0
DIMSTYLE
105
27
330
A
100
AcDbSymbolTableRecord
100
AcDbDimStyleTableRecord
  2
ISO-25
 70
     0
  3

  4

  5

  6

  7

 40
1.0
 41
2.5
 42
0.625
 43
3.75
 44
1.25
 45
0.0
 46
0.0
 47
0.0
 48
0.0
140
2.5
141
2.5
142
0.0
143
0.03937007874016
144
1.0
145
0.0
146
1.0
147
0.625
 71
     0
 72
     0
 73
     0
 74
     0
 75
     0
 76
     0
 77
     1
 78
     8
170
     0
171
     3
172
     1
173
     0
174
     0
175
     0
176
     0
177
     0
178
     0
270
     2
271
     2
272
     2
273
     2
274
     3
340
11
275
     0
280
     0
281
     0
282
     0
283
     0
284
     8
285
     0
286
     0
287
     3
288
     0
  0
ENDTAB
  0
TABLE
  2
BLOCK_RECORD
  5
1
330
0
100
AcDbSymbolTable
 70
     1
  0
BLOCK_RECORD
  5
1F
330
1
100
AcDbSymbolTableRecord
100
AcDbBlockTableRecord
  2
*MODEL_SPACE
  0
BLOCK_RECORD
  5
1B
330
1
100
AcDbSymbolTableRecord
100
AcDbBlockTableRecord
  2
*PAPER_SPACE
  0
ENDTAB
  0
ENDSEC
  0
SECTION
  2
BLOCKS
  0
BLOCK
  5
20
330
1F
100
AcDbEntity
  8
0
100
AcDbBlockBegin
  2
*MODEL_SPACE
 70
     0
 10
0.0
 20
0.0
 30
0.0
  3
*MODEL_SPACE
  1

  0
ENDBLK
  5
21
330
1F
100
AcDbEntity
  8
0
100
AcDbBlockEnd
  0
BLOCK
  5
1C
330
1B
100
AcDbEntity
 67
     1
  8
0
100
AcDbBlockBegin
  2
*PAPER_SPACE
  1

  0
ENDBLK
  5
1D
330
1B
100
AcDbEntity
 67
     1
  8
0
100
AcDbBlockEnd
  0
ENDSEC
  0
SECTION
  2
ENTITIES
  0
LWPOLYLINE
  5
100
100
AcDbEntity
  8
Layer_1
 62
7
100
AcDbPolyline
 90
113
 70
0
 10
44.000000
 20
82.264368
 30
0.0
 10
41.692926
 20
82.205366
 30
0.0
 10
39.391302
 20
82.020163
 30
0.0
 10
37.106526
 20
81.713312
 30
0.0
 10
34.850000
 20
81.289368
 30
0.0
 10
31.379402
 20
80.464027
 30
0.0
 10
27.951762
 20
79.387239
 30
0.0
 10
24.704491
 20
77.936515
 30
0.0
 10
21.775000
 20
75.989368
 30
0.0
 10
19.355338
 20
73.643164
 30
0.0
 10
17.302013
 20
70.926650
 30
0.0
 10
15.647682
 20
67.941494
 30
0.0
 10
14.425000
 20
64.789368
 30
0.0
 10
13.893278
 20
62.462248
 30
0.0
 10
13.696041
 20
60.060433
 30
0.0
 10
13.813284
 20
57.648086
 30
0.0
 10
14.225000
 20
55.289368
 30
0.0
 10
14.865250
 20
53.729171
 30
0.0
 10
15.803391
 20
52.283903
 30
0.0
 10
16.752337
 20
50.841366
 30
0.0
 10
17.425000
 20
49.289368
 30
0.0
 10
17.650874
 20
48.111423
 30
0.0
 10
17.731159
 20
46.904659
 30
0.0
 10
17.695863
 20
45.690249
 30
0.0
 10
17.574998
 20
44.489368
 30
0.0
 10
17.197597
 20
42.900590
 30
0.0
 10
16.624762
 20
41.354738
 30
0.0
 10
16.064546
 20
39.807450
 30
0.0
 10
15.724998
 20
38.214368
 30
0.0
 10
15.625006
 20
36.837466
 30
0.0
 10
15.633006
 20
35.446932
 30
0.0
 10
15.811992
 20
34.083866
 30
0.0
 10
16.225019
 20
32.789368
 30
0.0
 10
16.649240
 20
32.062427
 30
0.0
 10
17.203449
 20
31.417065
 30
0.0
 10
17.837193
 20
30.832854
 30
0.0
 10
18.500019
 20
30.289368
 30
0.0
 10
19.855076
 20
29.545851
 30
0.0
 10
21.375845
 20
28.997770
 30
0.0
 10
22.764951
 20
28.345487
 30
0.0
 10
23.725019
 20
27.289368
 30
0.0
 10
24.041230
 20
24.551127
 30
0.0
 10
23.160243
 20
21.658565
 30
0.0
 10
22.092894
 20
18.706403
 30
0.0
 10
21.850019
 20
15.789368
 30
0.0
 10
22.230362
 20
14.448354
 30
0.0
 10
22.849514
 20
13.179003
 30
0.0
 10
23.650169
 20
12.002335
 30
0.0
 10
24.575019
 20
10.939368
 30
0.0
 10
26.954567
 20
8.786642
 30
0.0
 10
29.612726
 20
6.940677
 30
0.0
 10
32.483282
 20
5.450306
 30
0.0
 10
35.500019
 20
4.364368
 30
0.0
 10
39.091212
 20
3.682904
 30
0.0
 10
42.774600
 20
3.530736
 30
0.0
 10
46.483198
 20
3.757888
 30
0.0
 10
50.150019
 20
4.214368
 30
0.0
 10
51.859291
 20
4.495576
 30
0.0
 10
53.556225
 20
4.886464
 30
0.0
 10
55.193806
 20
5.441302
 30
0.0
 10
56.725019
 20
6.214368
 30
0.0
 10
59.031728
 20
7.805666
 30
0.0
 10
61.156218
 20
9.674417
 30
0.0
 10
62.971358
 20
11.813143
 30
0.0
 10
64.350019
 20
14.214368
 30
0.0
 10
64.558810
 20
14.946542
 30
0.0
 10
64.614418
 20
15.719044
 30
0.0
 10
64.594074
 20
16.507958
 30
0.0
 10
64.575026
 20
17.289368
 30
0.0
 10
64.245151
 20
20.175927
 30
0.0
 10
63.620497
 20
23.101527
 30
0.0
 10
63.329361
 20
25.939798
 30
0.0
 10
64.000000
 20
28.564368
 30
0.0
 10
65.230034
 20
29.783318
 30
0.0
 10
66.980962
 20
30.704725
 30
0.0
 10
68.597660
 20
31.324703
 30
0.0
 10
69.425000
 20
31.639368
 30
0.0
 10
69.709450
 20
32.160406
 30
0.0
 10
70.065082
 20
33.201421
 30
0.0
 10
70.388174
 20
34.461410
 30
0.0
 10
70.575000
 20
35.639368
 30
0.0
 10
70.572607
 20
37.017862
 30
0.0
 10
70.402480
 20
38.393859
 30
0.0
 10
70.156113
 20
39.767611
 30
0.0
 10
69.925000
 20
41.139368
 30
0.0
 10
69.549788
 20
42.773585
 30
0.0
 10
69.064442
 20
44.408098
 30
0.0
 10
68.740626
 20
46.033247
 30
0.0
 10
68.850000
 20
47.639368
 30
0.0
 10
69.202010
 20
48.219661
 30
0.0
 10
69.913459
 20
49.228015
 30
0.0
 10
70.640990
 20
50.229388
 30
0.0
 10
71.041244
 20
50.788734
 30
0.0
 10
71.949616
 20
52.217659
 30
0.0
 10
72.504457
 20
53.236700
 30
0.0
 10
72.854880
 20
54.331916
 30
0.0
 10
73.150000
 20
55.989368
 30
0.0
 10
73.194008
 20
59.799298
 30
0.0
 10
72.609752
 20
63.981130
 30
0.0
 10
71.795622
 20
67.417082
 30
0.0
 10
71.150000
 20
68.989368
 30
0.0
 10
69.897770
 20
70.191022
 30
0.0
 10
67.416374
 20
72.653004
 30
0.0
 10
64.333041
 20
75.464418
 30
0.0
 10
61.275000
 20
77.714368
 30
0.0
 10
58.499326
 20
79.165176
 30
0.0
 10
55.585092
 20
80.347517
 30
0.0
 10
52.572061
 20
81.250784
 30
0.0
 10
49.500000
 20
81.864368
 30
0.0
 10
48.135901
 20
82.041343
 30
0.0
 10
46.762556
 20
82.165000
 30
0.0
 10
45.382933
 20
82.238342
 30
0.0
 10
44.000000
 20
82.264368
 30
0.0
  0
LWPOLYLINE
  5
101
100
AcDbEntity
  8
Layer_1
 62
7
100
AcDbPolyline
 90
33
 70
0
 10
53.750000
 20
57.039368
 30
0.0
 10
54.018913
 20
57.046808
 30
0.0
 10
54.286564
 20
57.048568
 30
0.0
 10
54.554682
 20
57.045688
 30
0.0
 10
54.825000
 20
57.039368
 30
0.0
 10
56.994402
 20
56.835783
 30
0.0
 10
59.104948
 20
56.357612
 30
0.0
 10
61.088022
 20
55.620378
 30
0.0
 10
62.875000
 20
54.639368
 30
0.0
 10
63.593531
 20
53.947668
 30
0.0
 10
64.095746
 20
53.038062
 30
0.0
 10
64.393838
 20
52.016609
 30
0.0
 10
64.500000
 20
50.989368
 30
0.0
 10
64.290285
 20
48.329625
 30
0.0
 10
63.574416
 20
45.691949
 30
0.0
 10
62.333839
 20
43.309233
 30
0.0
 10
60.550000
 20
41.414368
 30
0.0
 10
59.075187
 20
40.606551
 30
0.0
 10
57.386094
 20
40.194772
 30
0.0
 10
55.641453
 20
40.186540
 30
0.0
 10
54.000000
 20
40.589368
 30
0.0
 10
51.131091
 20
42.230554
 30
0.0
 10
48.674749
 20
44.600229
 30
0.0
 10
46.806032
 20
47.464474
 30
0.0
 10
45.700000
 20
50.589368
 30
0.0
 10
45.598136
 20
51.737209
 30
0.0
 10
45.756866
 20
52.924827
 30
0.0
 10
46.193412
 20
54.007216
 30
0.0
 10
46.925000
 20
54.839368
 30
0.0
 10
48.424591
 20
55.755494
 30
0.0
 10
50.092269
 20
56.423226
 30
0.0
 10
51.882562
 20
56.849030
 30
0.0
 10
53.750000
 20
57.039368
 30
0.0
  0
LWPOLYLINE
  5
102
100
AcDbEntity
  8
Layer_1
 62
7
100
AcDbPolyline
 90
29
 70
0
 10
31.675000
 20
56.739368
 30
0.0
 10
33.837170
 20
56.653478
 30
0.0
 10
35.925253
 20
56.265711
 30
0.0
 10
37.869458
 20
55.564772
 30
0.0
 10
39.600000
 20
54.539368
 30
0.0
 10
40.327681
 20
53.711122
 30
0.0
 10
40.755634
 20
52.637327
 30
0.0
 10
40.905770
 20
51.458302
 30
0.0
 10
40.800002
 20
50.314368
 30
0.0
 10
39.697877
 20
47.189470
 30
0.0
 10
37.837752
 20
44.325226
 30
0.0
 10
35.390003
 20
41.955553
 30
0.0
 10
32.525002
 20
40.314368
 30
0.0
 10
30.879644
 20
39.907637
 30
0.0
 10
29.126413
 20
39.907278
 30
0.0
 10
27.428725
 20
40.310465
 30
0.0
 10
25.950000
 20
41.114368
 30
0.0
 10
24.170058
 20
43.013130
 30
0.0
 10
22.938073
 20
45.404442
 30
0.0
 10
22.230802
 20
48.050718
 30
0.0
 10
22.025000
 20
50.714368
 30
0.0
 10
22.131163
 20
51.737702
 30
0.0
 10
22.429254
 20
52.750560
 30
0.0
 10
22.931469
 20
53.651572
 30
0.0
 10
23.650000
 20
54.339368
 30
0.0
 10
25.433070
 20
55.320383
 30
0.0
 10
27.407550
 20
56.057619
 30
0.0
 10
29.509506
 20
56.535730
 30
0.0
 10
31.675000
 20
56.739368
 30
0.0
  0
LWPOLYLINE
  5
103
100
AcDbEntity
  8
Layer_1
 62
7
100
AcDbPolyline
 90
21
 70
0
 10
45.200000
 20
40.939368
 30
0.0
 10
45.397042
 20
40.827542
 30
0.0
 10
45.844194
 20
40.574498
 30
0.0
 10
46.325499
 20
40.303889
 30
0.0
 10
46.625000
 20
40.139368
 30
0.0
 10
48.942193
 20
38.317984
 30
0.0
 10
50.673794
 20
35.733708
 30
0.0
 10
51.643498
 20
32.771012
 30
0.0
 10
51.675002
 20
29.814368
 30
0.0
 10
51.321935
 20
28.853706
 30
0.0
 10
50.668042
 20
27.993018
 30
0.0
 10
49.811378
 20
27.361756
 30
0.0
 10
48.850000
 20
27.089368
 30
0.0
 10
47.817903
 20
27.227641
 30
0.0
 10
46.708352
 20
27.680658
 30
0.0
 10
45.807125
 20
28.369281
 30
0.0
 10
45.400000
 20
29.214368
 30
0.0
 10
45.208161
 20
32.092481
 30
0.0
 10
45.130801
 20
34.595038
 30
0.0
 10
45.138081
 20
37.338510
 30
0.0
 10
45.200000
 20
40.939368
 30
0.0
  0
LWPOLYLINE
  5
104
100
AcDbEntity
  8
Layer_1
 62
7
100
AcDbPolyline
 90
21
 70
0
 10
42.225000
 20
40.914368
 30
0.0
 10
42.286960
 20
37.313544
 30
0.0
 10
42.294240
 20
34.570068
 30
0.0
 10
42.216880
 20
32.067491
 30
0.0
 10
42.025040
 20
29.189368
 30
0.0
 10
41.621822
 20
28.344281
 30
0.0
 10
40.729188
 20
27.655658
 30
0.0
 10
39.628229
 20
27.202641
 30
0.0
 10
38.600000
 20
27.064368
 30
0.0
 10
37.634717
 20
27.336755
 30
0.0
 10
36.769459
 20
27.968018
 30
0.0
 10
36.106971
 20
28.828706
 30
0.0
 10
35.750000
 20
29.789368
 30
0.0
 10
35.781505
 20
32.746012
 30
0.0
 10
36.751209
 20
35.708709
 30
0.0
 10
38.482808
 20
38.292985
 30
0.0
 10
40.800000
 20
40.114368
 30
0.0
 10
41.099500
 20
40.278890
 30
0.0
 10
41.580806
 20
40.549498
 30
0.0
 10
42.027958
 20
40.802542
 30
0.0
 10
42.225000
 20
40.914368
 30
0.0
  0
LWPOLYLINE
  5
105
100
AcDbEntity
  8
Layer_1
 62
7
100
AcDbPolyline
 90
29
 70
0
 10
28.550000
 20
24.164368
 30
0.0
 10
29.794766
 20
23.757090
 30
0.0
 10
32.823542
 20
22.830378
 30
0.0
 10
36.578048
 20
21.826910
 30
0.0
 10
40.000000
 20
21.189368
 30
0.0
 10
41.821774
 20
21.079034
 30
0.0
 10
43.699037
 20
21.097530
 30
0.0
 10
45.576782
 20
21.205694
 30
0.0
 10
47.400000
 20
21.364368
 30
0.0
 10
50.644214
 20
21.905957
 30
0.0
 10
54.147634
 20
22.748558
 30
0.0
 10
56.952238
 20
23.524065
 30
0.0
 10
58.100000
 20
23.864368
 30
0.0
 10
57.952796
 20
22.511932
 30
0.0
 10
57.428289
 20
19.343288
 30
0.0
 10
56.402138
 20
15.691434
 30
0.0
 10
54.750000
 20
12.889368
 30
0.0
 10
52.611323
 20
11.452830
 30
0.0
 10
50.012525
 20
10.579767
 30
0.0
 10
47.176214
 20
10.124005
 30
0.0
 10
44.325000
 20
9.939368
 30
0.0
 10
40.979555
 20
10.146809
 30
0.0
 10
37.503787
 20
10.944335
 30
0.0
 10
34.332376
 20
12.264378
 30
0.0
 10
31.900000
 20
14.039368
 30
0.0
 10
30.481746
 20
16.545103
 30
0.0
 10
29.429607
 20
19.922938
 30
0.0
 10
28.775166
 20
22.890238
 30
0.0
 10
28.550000
 20
24.164368
 30
0.0
  0
LWPOLYLINE
  5
106
100
AcDbEntity
  8
Layer_1
 62
7
100
AcDbPolyline
 90
29
 70
0
 10
67.251650
 20
24.325272
 30
0.0
 10
69.145666
 20
25.070952
 30
0.0
 10
71.146222
 20
25.994152
 30
0.0
 10
73.118781
 20
27.194152
 30
0.0
 10
74.928809
 20
28.769912
 30
0.0
 10
75.821354
 20
30.394792
 30
0.0
 10
76.495986
 20
32.400472
 30
0.0
 10
77.296163
 20
34.055592
 30
0.0
 10
78.565358
 20
34.628792
 30
0.0
 10
79.695248
 20
33.892392
 30
0.0
 10
80.065128
 20
32.394472
 30
0.0
 10
80.139608
 20
30.548952
 30
0.0
 10
80.383616
 20
28.769912
 30
0.0
 10
80.929296
 20
27.453832
 30
0.0
 10
81.581888
 20
26.012392
 30
0.0
 10
81.938432
 20
24.636472
 30
0.0
 10
81.595808
 20
23.517112
 30
0.0
 10
80.616856
 20
23.004392
 30
0.0
 10
79.367859
 20
23.015592
 30
0.0
 10
78.020652
 20
23.227112
 30
0.0
 10
76.747067
 20
23.314872
 30
0.0
 10
74.249947
 20
22.558232
 30
0.0
 10
72.097677
 20
21.151832
 30
0.0
 10
69.914098
 20
19.807672
 30
0.0
 10
67.323062
 20
19.237512
 30
0.0
 10
67.178267
 20
20.206712
 30
0.0
 10
67.174267
 20
21.445352
 30
0.0
 10
67.226795
 20
22.851912
 30
0.0
 10
67.251650
 20
24.325272
 30
0.0
  0
LWPOLYLINE
  5
107
100
AcDbEntity
  8
Layer_1
 62
7
100
AcDbPolyline
 90
29
 70
0
 10
65.521008
 20
11.634072
 30
0.0
 10
67.593596
 20
10.944232
 30
0.0
 10
69.987009
 20
10.143752
 30
0.0
 10
72.352434
 20
9.066552
 30
0.0
 10
74.341024
 20
7.546552
 30
0.0
 10
75.233579
 20
5.921672
 30
0.0
 10
75.908201
 20
3.915992
 30
0.0
 10
76.708378
 20
2.260872
 30
0.0
 10
77.977574
 20
1.687672
 30
0.0
 10
79.107464
 20
2.424072
 30
0.0
 10
79.477346
 20
3.921992
 30
0.0
 10
79.551914
 20
5.767512
 30
0.0
 10
79.795854
 20
7.546552
 30
0.0
 10
80.341490
 20
8.862632
 30
0.0
 10
80.994130
 20
10.304072
 30
0.0
 10
81.350674
 20
11.679992
 30
0.0
 10
81.008050
 20
12.799352
 30
0.0
 10
80.029090
 20
13.312072
 30
0.0
 10
78.780100
 20
13.300872
 30
0.0
 10
77.432893
 20
13.089272
 30
0.0
 10
76.159308
 20
13.001592
 30
0.0
 10
73.662193
 20
13.758312
 30
0.0
 10
71.509918
 20
15.164632
 30
0.0
 10
69.326338
 20
16.508792
 30
0.0
 10
66.735303
 20
17.078952
 30
0.0
 10
66.833810
 20
15.652152
 30
0.0
 10
66.604346
 20
14.317512
 30
0.0
 10
66.136796
 20
13.002472
 30
0.0
 10
65.521008
 20
11.634072
 30
0.0
  0
LWPOLYLINE
  5
108
100
AcDbEntity
  8
Layer_1
 62
7
100
AcDbPolyline
 90
29
 70
0
 10
18.659634
 20
23.830232
 30
0.0
 10
16.765618
 20
24.575912
 30
0.0
 10
14.765062
 20
25.499112
 30
0.0
 10
12.792490
 20
26.699112
 30
0.0
 10
10.982475
 20
28.274872
 30
0.0
 10
10.089920
 20
29.899752
 30
0.0
 10
9.415298
 20
31.905432
 30
0.0
 10
8.615121
 20
33.560552
 30
0.0
 10
7.345925
 20
34.133752
 30
0.0
 10
6.216035
 20
33.397352
 30
0.0
 10
5.846152
 20
31.899432
 30
0.0
 10
5.771588
 20
30.053912
 30
0.0
 10
5.527642
 20
28.274872
 30
0.0
 10
4.981998
 20
26.958792
 30
0.0
 10
4.329368
 20
25.517352
 30
0.0
 10
3.972827
 20
24.141432
 30
0.0
 10
4.315458
 20
23.022072
 30
0.0
 10
5.294416
 20
22.509352
 30
0.0
 10
6.543408
 20
22.520552
 30
0.0
 10
7.890615
 20
22.732072
 30
0.0
 10
9.164200
 20
22.819832
 30
0.0
 10
11.661316
 20
22.063112
 30
0.0
 10
13.813591
 20
20.656792
 30
0.0
 10
15.997170
 20
19.312632
 30
0.0
 10
18.588205
 20
18.742472
 30
0.0
 10
18.733000
 20
19.711672
 30
0.0
 10
18.737000
 20
20.950312
 30
0.0
 10
18.684472
 20
22.356872
 30
0.0
 10
18.659634
 20
23.830232
 30
0.0
  0
LWPOLYLINE
  5
109
100
AcDbEntity
  8
Layer_1
 62
7
100
AcDbPolyline
 90
29
 70
0
 10
20.390279
 20
11.139032
 30
0.0
 10
18.317690
 20
10.449192
 30
0.0
 10
15.924276
 20
9.648712
 30
0.0
 10
13.558859
 20
8.571512
 30
0.0
 10
11.570260
 20
7.051512
 30
0.0
 10
10.677705
 20
5.426632
 30
0.0
 10
10.003083
 20
3.420952
 30
0.0
 10
9.202906
 20
1.765832
 30
0.0
 10
7.933710
 20
1.192632
 30
0.0
 10
6.803821
 20
1.929032
 30
0.0
 10
6.433939
 20
3.426952
 30
0.0
 10
6.359376
 20
5.272472
 30
0.0
 10
6.115431
 20
7.051512
 30
0.0
 10
5.569793
 20
8.367592
 30
0.0
 10
4.917156
 20
9.809032
 30
0.0
 10
4.560612
 20
11.184952
 30
0.0
 10
4.903243
 20
12.304312
 30
0.0
 10
5.882202
 20
12.817032
 30
0.0
 10
7.131194
 20
12.805832
 30
0.0
 10
8.478401
 20
12.594312
 30
0.0
 10
9.751986
 20
12.506552
 30
0.0
 10
12.249102
 20
13.263272
 30
0.0
 10
14.401376
 20
14.669592
 30
0.0
 10
16.584955
 20
16.013752
 30
0.0
 10
19.175991
 20
16.583912
 30
0.0
 10
19.077484
 20
15.157112
 30
0.0
 10
19.306948
 20
13.822472
 30
0.0
 10
19.774499
 20
12.507432
 30
0.0
 10
20.390279
 20
11.139032
 30
0.0
  0
ENDSEC
  0
SECTION
  2
OBJECTS
  0
DICTIONARY
  5
C
330
0
100
AcDbDictionary
  3
ACAD_GROUP
350
D
  3
ACAD_MLINESTYLE
350
17
  0
DICTIONARY
  5
D
330
C
100
AcDbDictionary
  0
DICTIONARY
  5
1A
330
C
100
AcDbDictionary
  0
DICTIONARY
  5
17
330
C
100
AcDbDictionary
  3
STANDARD
350
18
  0
DICTIONARY
  5
19
330
C
100
AcDbDictionary
  0
ENDSEC
  0
EOF
