solid OpenSCAD_Model
  facet normal -0.994522 -0.104528 0
    outer loop
      vertex 0 6 -1.25
      vertex 0.131114 4.75253 -1.25
      vertex 0 6 1.25
    endloop
  endfacet
  facet normal -0.994522 -0.104528 0
    outer loop
      vertex 0 6 1.25
      vertex 0.131114 4.75253 -1.25
      vertex 0.131114 4.75253 1.25
    endloop
  endfacet
  facet normal 0 0 -1
    outer loop
      vertex 0 6 -1.25
      vertex 0 24 -1.25
      vertex 0.131114 4.75253 -1.25
    endloop
  endfacet
  facet normal 0 0 -1
    outer loop
      vertex 0.131114 4.75253 -1.25
      vertex 0 24 -1.25
      vertex 0.131114 25.2475 -1.25
    endloop
  endfacet
  facet normal 0 0 -1
    outer loop
      vertex 0.131114 4.75253 -1.25
      vertex 0.131114 25.2475 -1.25
      vertex 0.518727 26.4404 -1.25
    endloop
  endfacet
  facet normal 0 0 -1
    outer loop
      vertex 0.131114 4.75253 -1.25
      vertex 0.518727 26.4404 -1.25
      vertex 1.1459 27.5267 -1.25
    endloop
  endfacet
  facet normal 0 0 -1
    outer loop
      vertex 0.131114 4.75253 -1.25
      vertex 1.1459 27.5267 -1.25
      vertex 1.98522 28.4589 -1.25
    endloop
  endfacet
  facet normal 0 0 -1
    outer loop
      vertex 0.131114 4.75253 -1.25
      vertex 1.98522 28.4589 -1.25
      vertex 3 29.1962 -1.25
    endloop
  endfacet
  facet normal 0 0 -1
    outer loop
      vertex 0.131114 4.75253 -1.25
      vertex 3 29.1962 -1.25
      vertex 4.1459 29.7063 -1.25
    endloop
  endfacet
  facet normal 0 0 -1
    outer loop
      vertex 0.131114 4.75253 -1.25
      vertex 4.1459 29.7063 -1.25
      vertex 5.37283 29.9671 -1.25
    endloop
  endfacet
  facet normal 0 0 -1
    outer loop
      vertex 18.75 26.7935 -1.25
      vertex 5.37283 29.9671 -1.25
      vertex 24.6272 29.9671 -1.25
    endloop
  endfacet
  facet normal 0 0 -1
    outer loop
      vertex 18.8268 22.2823 -1.25
      vertex 25.8541 29.7063 -1.25
      vertex 27 29.1962 -1.25
    endloop
  endfacet
  facet normal 0 0 -1
    outer loop
      vertex 26.4635 27.4266 -1.25
      vertex 27 29.1962 -1.25
      vertex 28.0148 28.4589 -1.25
    endloop
  endfacet
  facet normal 0 0 -1
    outer loop
      vertex 27.2135 26.8817 -1.25
      vertex 28.0148 28.4589 -1.25
      vertex 28.8541 27.5267 -1.25
    endloop
  endfacet
  facet normal 0 0 -1
    outer loop
      vertex 27.4672 25.6881 -1.25
      vertex 28.8541 27.5267 -1.25
      vertex 29.4813 26.4404 -1.25
    endloop
  endfacet
  facet normal 0 0 -1
    outer loop
      vertex 24.2388 16.8703 -1.25
      vertex 30 24 -1.25
      vertex 30 6 -1.25
    endloop
  endfacet
  facet normal 0 0 -1
    outer loop
      vertex 24.2388 9.21664 -1.25
      vertex 29.4813 3.55958 -1.25
      vertex 18.8268 3.80468 -1.25
    endloop
  endfacet
  facet normal 0 0 -1
    outer loop
      vertex 18.75 3.80468 -1.25
      vertex 29.4813 3.55958 -1.25
      vertex 28.8541 2.47329 -1.25
    endloop
  endfacet
  facet normal 0 0 -1
    outer loop
      vertex 11.1732 3.80468 -1.25
      vertex 28.8541 2.47329 -1.25
      vertex 28.0148 1.54113 -1.25
    endloop
  endfacet
  facet normal 0 0 -1
    outer loop
      vertex 0.131114 4.75253 -1.25
      vertex 28.0148 1.54113 -1.25
      vertex 27 0.803848 -1.25
    endloop
  endfacet
  facet normal 0 0 -1
    outer loop
      vertex 0.131114 4.75253 -1.25
      vertex 27 0.803848 -1.25
      vertex 25.8541 0.293661 -1.25
    endloop
  endfacet
  facet normal 0 0 -1
    outer loop
      vertex 0.131114 4.75253 -1.25
      vertex 25.8541 0.293661 -1.25
      vertex 24.6272 0.032869 -1.25
    endloop
  endfacet
  facet normal 0 0 -1
    outer loop
      vertex 0.131114 4.75253 -1.25
      vertex 24.6272 0.032869 -1.25
      vertex 5.37283 0.032869 -1.25
    endloop
  endfacet
  facet normal 0 0 -1
    outer loop
      vertex 0.131114 4.75253 -1.25
      vertex 5.37283 0.032869 -1.25
      vertex 4.1459 0.293661 -1.25
    endloop
  endfacet
  facet normal 0 0 -1
    outer loop
      vertex 0.131114 4.75253 -1.25
      vertex 4.1459 0.293661 -1.25
      vertex 3 0.803848 -1.25
    endloop
  endfacet
  facet normal 0 0 -1
    outer loop
      vertex 0.131114 4.75253 -1.25
      vertex 3 0.803848 -1.25
      vertex 1.98522 1.54113 -1.25
    endloop
  endfacet
  facet normal 0 0 -1
    outer loop
      vertex 0.131114 4.75253 -1.25
      vertex 1.98522 1.54113 -1.25
      vertex 1.1459 2.47329 -1.25
    endloop
  endfacet
  facet normal 0 0 -1
    outer loop
      vertex 0.131114 4.75253 -1.25
      vertex 1.1459 2.47329 -1.25
      vertex 0.518727 3.55958 -1.25
    endloop
  endfacet
  facet normal 0 0 -1
    outer loop
      vertex 0.131114 4.75253 -1.25
      vertex 5.37283 29.9671 -1.25
      vertex 5.7612 16.8703 -1.25
    endloop
  endfacet
  facet normal 0 0 -1
    outer loop
      vertex 11.1732 3.80468 -1.25
      vertex 0.131114 4.75253 -1.25
      vertex 5.7612 9.21664 -1.25
    endloop
  endfacet
  facet normal 0 0 -1
    outer loop
      vertex 11.25 3.80468 -1.25
      vertex 28.8541 2.47329 -1.25
      vertex 11.1732 3.80468 -1.25
    endloop
  endfacet
  facet normal 0 0 -1
    outer loop
      vertex 0.131114 4.75253 -1.25
      vertex 11.1732 3.80468 -1.25
      vertex 28.0148 1.54113 -1.25
    endloop
  endfacet
  facet normal 0 0 -1
    outer loop
      vertex 18.8268 22.2823 -1.25
      vertex 24.5 26 -1.25
      vertex 24.5328 25.6881 -1.25
    endloop
  endfacet
  facet normal 0 0 -1
    outer loop
      vertex 11.2583 12.5435 -1.25
      vertex 18.7417 14.5933 -1.25
      vertex 18.7417 12.5435 -1.25
    endloop
  endfacet
  facet normal 0 0 -1
    outer loop
      vertex 18.7417 14.5933 -1.25
      vertex 11.2583 12.5435 -1.25
      vertex 16.5499 16.7852 -1.25
    endloop
  endfacet
  facet normal 0 0 -1
    outer loop
      vertex 18.8268 22.2823 -1.25
      vertex 30 24 -1.25
      vertex 24.2388 16.8703 -1.25
    endloop
  endfacet
  facet normal 0 0 -1
    outer loop
      vertex 11.2583 14.5933 -1.25
      vertex 16.5499 16.7852 -1.25
      vertex 11.2583 12.5435 -1.25
    endloop
  endfacet
  facet normal 0 0 -1
    outer loop
      vertex 18.75 3.80468 -1.25
      vertex 18.7417 12.5435 -1.25
      vertex 18.75 12.5435 -1.25
    endloop
  endfacet
  facet normal 0 0 -1
    outer loop
      vertex 18.8268 22.2823 -1.25
      vertex 24.9963 27.1147 -1.25
      vertex 24.7865 26.8817 -1.25
    endloop
  endfacet
  facet normal 0 0 -1
    outer loop
      vertex 18.8268 22.2823 -1.25
      vertex 24.5328 25.6881 -1.25
      vertex 24.6297 25.3899 -1.25
    endloop
  endfacet
  facet normal 0 0 -1
    outer loop
      vertex 18.8268 3.80468 -1.25
      vertex 29.4813 3.55958 -1.25
      vertex 18.75 3.80468 -1.25
    endloop
  endfacet
  facet normal 0 0 -1
    outer loop
      vertex 18.8268 22.2823 -1.25
      vertex 24.5328 26.3119 -1.25
      vertex 24.5 26 -1.25
    endloop
  endfacet
  facet normal 0 0 -1
    outer loop
      vertex 18.8268 22.2823 -1.25
      vertex 24.6297 26.6101 -1.25
      vertex 24.5328 26.3119 -1.25
    endloop
  endfacet
  facet normal 0 0 -1
    outer loop
      vertex 11.25 12.5435 -1.25
      vertex 18.75 3.80468 -1.25
      vertex 11.25 3.80468 -1.25
    endloop
  endfacet
  facet normal 0 0 -1
    outer loop
      vertex 24.2388 9.21664 -1.25
      vertex 29.8689 4.75253 -1.25
      vertex 29.4813 3.55958 -1.25
    endloop
  endfacet
  facet normal 0 0 -1
    outer loop
      vertex 18.8268 22.2823 -1.25
      vertex 27 29.1962 -1.25
      vertex 24.9963 27.1147 -1.25
    endloop
  endfacet
  facet normal 0 0 -1
    outer loop
      vertex 18.75 22.2823 -1.25
      vertex 25.8541 29.7063 -1.25
      vertex 18.8268 22.2823 -1.25
    endloop
  endfacet
  facet normal 0 0 -1
    outer loop
      vertex 11.25 26.7935 -1.25
      vertex 5.37283 29.9671 -1.25
      vertex 18.75 26.7935 -1.25
    endloop
  endfacet
  facet normal 0 0 -1
    outer loop
      vertex 27.2135 25.1183 -1.25
      vertex 29.4813 26.4404 -1.25
      vertex 27.0037 24.8853 -1.25
    endloop
  endfacet
  facet normal 0 0 -1
    outer loop
      vertex 5.7612 16.8703 -1.25
      vertex 5.37283 29.9671 -1.25
      vertex 11.25 26.7935 -1.25
    endloop
  endfacet
  facet normal 0 0 -1
    outer loop
      vertex 11.1732 22.2823 -1.25
      vertex 11.25 26.7935 -1.25
      vertex 11.25 22.2823 -1.25
    endloop
  endfacet
  facet normal 0 0 -1
    outer loop
      vertex 5.7612 16.8703 -1.25
      vertex 11.25 26.7935 -1.25
      vertex 11.1732 22.2823 -1.25
    endloop
  endfacet
  facet normal 0 0 -1
    outer loop
      vertex 24.6297 26.6101 -1.25
      vertex 18.8268 22.2823 -1.25
      vertex 24.7865 26.8817 -1.25
    endloop
  endfacet
  facet normal 0 0 -1
    outer loop
      vertex 18.8268 22.2823 -1.25
      vertex 25.25 24.701 -1.25
      vertex 25.5365 24.5734 -1.25
    endloop
  endfacet
  facet normal 0 0 -1
    outer loop
      vertex 18.8268 22.2823 -1.25
      vertex 24.9963 24.8853 -1.25
      vertex 25.25 24.701 -1.25
    endloop
  endfacet
  facet normal 0 0 -1
    outer loop
      vertex 18.75 26.7935 -1.25
      vertex 25.8541 29.7063 -1.25
      vertex 18.75 22.2823 -1.25
    endloop
  endfacet
  facet normal 0 0 -1
    outer loop
      vertex 27.3703 26.6101 -1.25
      vertex 28.8541 27.5267 -1.25
      vertex 27.4672 26.3119 -1.25
    endloop
  endfacet
  facet normal 0 0 -1
    outer loop
      vertex 26.75 24.701 -1.25
      vertex 27.0037 24.8853 -1.25
      vertex 29.4813 26.4404 -1.25
    endloop
  endfacet
  facet normal 0 0 -1
    outer loop
      vertex 27.3703 25.3899 -1.25
      vertex 29.4813 26.4404 -1.25
      vertex 27.2135 25.1183 -1.25
    endloop
  endfacet
  facet normal 0 0 -1
    outer loop
      vertex 27.4672 25.6881 -1.25
      vertex 29.4813 26.4404 -1.25
      vertex 27.3703 25.3899 -1.25
    endloop
  endfacet
  facet normal 0 0 -1
    outer loop
      vertex 27.5 26 -1.25
      vertex 28.8541 27.5267 -1.25
      vertex 27.4672 25.6881 -1.25
    endloop
  endfacet
  facet normal 0 0 -1
    outer loop
      vertex 27.4672 26.3119 -1.25
      vertex 28.8541 27.5267 -1.25
      vertex 27.5 26 -1.25
    endloop
  endfacet
  facet normal 0 0 -1
    outer loop
      vertex 27.2135 26.8817 -1.25
      vertex 28.8541 27.5267 -1.25
      vertex 27.3703 26.6101 -1.25
    endloop
  endfacet
  facet normal 0 0 -1
    outer loop
      vertex 27.0037 27.1147 -1.25
      vertex 28.0148 28.4589 -1.25
      vertex 27.2135 26.8817 -1.25
    endloop
  endfacet
  facet normal 0 0 -1
    outer loop
      vertex 26.4635 27.4266 -1.25
      vertex 28.0148 28.4589 -1.25
      vertex 26.75 27.299 -1.25
    endloop
  endfacet
  facet normal 0 0 -1
    outer loop
      vertex 26.75 27.299 -1.25
      vertex 28.0148 28.4589 -1.25
      vertex 27.0037 27.1147 -1.25
    endloop
  endfacet
  facet normal 0 0 -1
    outer loop
      vertex 26.1568 27.4918 -1.25
      vertex 27 29.1962 -1.25
      vertex 26.4635 27.4266 -1.25
    endloop
  endfacet
  facet normal 0 0 -1
    outer loop
      vertex 25.5365 27.4266 -1.25
      vertex 27 29.1962 -1.25
      vertex 25.8432 27.4918 -1.25
    endloop
  endfacet
  facet normal 0 0 -1
    outer loop
      vertex 25.8432 27.4918 -1.25
      vertex 27 29.1962 -1.25
      vertex 26.1568 27.4918 -1.25
    endloop
  endfacet
  facet normal 0 0 -1
    outer loop
      vertex 25.25 27.299 -1.25
      vertex 27 29.1962 -1.25
      vertex 25.5365 27.4266 -1.25
    endloop
  endfacet
  facet normal 0 0 -1
    outer loop
      vertex 24.9963 27.1147 -1.25
      vertex 27 29.1962 -1.25
      vertex 25.25 27.299 -1.25
    endloop
  endfacet
  facet normal 0 0 -1
    outer loop
      vertex 26.75 24.701 -1.25
      vertex 29.4813 26.4404 -1.25
      vertex 29.8689 25.2475 -1.25
    endloop
  endfacet
  facet normal 0 0 -1
    outer loop
      vertex 18.8268 22.2823 -1.25
      vertex 29.8689 25.2475 -1.25
      vertex 30 24 -1.25
    endloop
  endfacet
  facet normal 0 0 -1
    outer loop
      vertex 18.8268 22.2823 -1.25
      vertex 26.4635 24.5734 -1.25
      vertex 29.8689 25.2475 -1.25
    endloop
  endfacet
  facet normal 0 0 -1
    outer loop
      vertex 26.4635 24.5734 -1.25
      vertex 26.75 24.701 -1.25
      vertex 29.8689 25.2475 -1.25
    endloop
  endfacet
  facet normal 0 0 -1
    outer loop
      vertex 18.8268 22.2823 -1.25
      vertex 26.1568 24.5082 -1.25
      vertex 26.4635 24.5734 -1.25
    endloop
  endfacet
  facet normal 0 0 -1
    outer loop
      vertex 18.8268 22.2823 -1.25
      vertex 25.8432 24.5082 -1.25
      vertex 26.1568 24.5082 -1.25
    endloop
  endfacet
  facet normal 0 0 -1
    outer loop
      vertex 18.8268 22.2823 -1.25
      vertex 25.5365 24.5734 -1.25
      vertex 25.8432 24.5082 -1.25
    endloop
  endfacet
  facet normal 0 0 -1
    outer loop
      vertex 5.7612 9.21664 -1.25
      vertex 0.131114 4.75253 -1.25
      vertex 5.7612 16.8703 -1.25
    endloop
  endfacet
  facet normal 0 0 -1
    outer loop
      vertex 18.75 26.7935 -1.25
      vertex 24.6272 29.9671 -1.25
      vertex 25.8541 29.7063 -1.25
    endloop
  endfacet
  facet normal 0 0 -1
    outer loop
      vertex 16.5499 16.7852 -1.25
      vertex 11.2583 14.5933 -1.25
      vertex 13.4501 16.7852 -1.25
    endloop
  endfacet
  facet normal 0 0 -1
    outer loop
      vertex 18.8268 22.2823 -1.25
      vertex 24.7865 25.1183 -1.25
      vertex 24.9963 24.8853 -1.25
    endloop
  endfacet
  facet normal 0 0 -1
    outer loop
      vertex 18.75 3.80468 -1.25
      vertex 11.2583 12.5435 -1.25
      vertex 18.7417 12.5435 -1.25
    endloop
  endfacet
  facet normal 0 0 -1
    outer loop
      vertex 18.75 3.80468 -1.25
      vertex 11.25 12.5435 -1.25
      vertex 11.2583 12.5435 -1.25
    endloop
  endfacet
  facet normal 0 0 -1
    outer loop
      vertex 18.8268 22.2823 -1.25
      vertex 24.6297 25.3899 -1.25
      vertex 24.7865 25.1183 -1.25
    endloop
  endfacet
  facet normal 0 0 -1
    outer loop
      vertex 24.2388 16.8703 -1.25
      vertex 30 6 -1.25
      vertex 24.2388 9.21664 -1.25
    endloop
  endfacet
  facet normal 0 0 -1
    outer loop
      vertex 24.2388 9.21664 -1.25
      vertex 30 6 -1.25
      vertex 29.8689 4.75253 -1.25
    endloop
  endfacet
  facet normal 0 0 -1
    outer loop
      vertex 18.75 3.80468 -1.25
      vertex 28.8541 2.47329 -1.25
      vertex 11.25 3.80468 -1.25
    endloop
  endfacet
  facet normal -1 0 0
    outer loop
      vertex 0 6 -1.25
      vertex 0 6 1.25
      vertex 0 24 -1.25
    endloop
  endfacet
  facet normal -1 0 0
    outer loop
      vertex 0 24 -1.25
      vertex 0 6 1.25
      vertex 0 24 1.25
    endloop
  endfacet
  facet normal 0 0 1
    outer loop
      vertex 0 24 1.25
      vertex 0 6 1.25
      vertex 0.131114 4.75253 1.25
    endloop
  endfacet
  facet normal 0 0 1
    outer loop
      vertex 1.1459 2.47329 1.25
      vertex 0 24 1.25
      vertex 0.518727 3.55958 1.25
    endloop
  endfacet
  facet normal 0 0 1
    outer loop
      vertex 0.518727 3.55958 1.25
      vertex 0 24 1.25
      vertex 0.131114 4.75253 1.25
    endloop
  endfacet
  facet normal 0 0 1
    outer loop
      vertex 1.98522 1.54113 1.25
      vertex 0 24 1.25
      vertex 1.1459 2.47329 1.25
    endloop
  endfacet
  facet normal 0 0 1
    outer loop
      vertex 3 0.803848 1.25
      vertex 0 24 1.25
      vertex 1.98522 1.54113 1.25
    endloop
  endfacet
  facet normal 0 0 1
    outer loop
      vertex 4.1459 0.293661 1.25
      vertex 0 24 1.25
      vertex 3 0.803848 1.25
    endloop
  endfacet
  facet normal 0 0 1
    outer loop
      vertex 5.37283 0.032869 1.25
      vertex 0 24 1.25
      vertex 4.1459 0.293661 1.25
    endloop
  endfacet
  facet normal 0 0 1
    outer loop
      vertex 5.7612 9.21664 1.25
      vertex 0 24 1.25
      vertex 5.37283 0.032869 1.25
    endloop
  endfacet
  facet normal 0 0 1
    outer loop
      vertex 24.2388 9.21664 1.25
      vertex 28.8541 2.47329 1.25
      vertex 29.4813 3.55958 1.25
    endloop
  endfacet
  facet normal 0 0 1
    outer loop
      vertex 24.2388 9.21664 1.25
      vertex 28.0148 1.54113 1.25
      vertex 28.8541 2.47329 1.25
    endloop
  endfacet
  facet normal 0 0 1
    outer loop
      vertex 24.2388 9.21664 1.25
      vertex 27 0.803848 1.25
      vertex 28.0148 1.54113 1.25
    endloop
  endfacet
  facet normal 0 0 1
    outer loop
      vertex 24.2388 9.21664 1.25
      vertex 25.8541 0.293661 1.25
      vertex 27 0.803848 1.25
    endloop
  endfacet
  facet normal 0 0 1
    outer loop
      vertex 24.2388 9.21664 1.25
      vertex 24.6272 0.032869 1.25
      vertex 25.8541 0.293661 1.25
    endloop
  endfacet
  facet normal 0 0 1
    outer loop
      vertex 18.75 26.7935 1.25
      vertex 24.6297 26.6101 1.25
      vertex 24.7865 26.8817 1.25
    endloop
  endfacet
  facet normal 0 0 1
    outer loop
      vertex 11.25 26.7935 1.25
      vertex 18.75 26.7935 1.25
      vertex 28.0148 28.4589 1.25
    endloop
  endfacet
  facet normal 0 0 1
    outer loop
      vertex 18.75 26.7935 1.25
      vertex 18.75 22.2823 1.25
      vertex 25.5365 24.5734 1.25
    endloop
  endfacet
  facet normal 0 0 1
    outer loop
      vertex 18.75 26.7935 1.25
      vertex 24.9963 24.8853 1.25
      vertex 24.7865 25.1183 1.25
    endloop
  endfacet
  facet normal 0 0 1
    outer loop
      vertex 18.75 26.7935 1.25
      vertex 24.5 26 1.25
      vertex 24.5328 26.3119 1.25
    endloop
  endfacet
  facet normal 0 0 1
    outer loop
      vertex 18.75 26.7935 1.25
      vertex 24.5328 26.3119 1.25
      vertex 24.6297 26.6101 1.25
    endloop
  endfacet
  facet normal 0 0 1
    outer loop
      vertex 4.1459 29.7063 1.25
      vertex 0 24 1.25
      vertex 5.37283 29.9671 1.25
    endloop
  endfacet
  facet normal 0 0 1
    outer loop
      vertex 3 29.1962 1.25
      vertex 0 24 1.25
      vertex 4.1459 29.7063 1.25
    endloop
  endfacet
  facet normal 0 0 1
    outer loop
      vertex 1.98522 28.4589 1.25
      vertex 0 24 1.25
      vertex 3 29.1962 1.25
    endloop
  endfacet
  facet normal 0 0 1
    outer loop
      vertex 1.1459 27.5267 1.25
      vertex 0 24 1.25
      vertex 1.98522 28.4589 1.25
    endloop
  endfacet
  facet normal 0 0 1
    outer loop
      vertex 0.518727 26.4404 1.25
      vertex 0 24 1.25
      vertex 1.1459 27.5267 1.25
    endloop
  endfacet
  facet normal 0 0 1
    outer loop
      vertex 0.131114 25.2475 1.25
      vertex 0 24 1.25
      vertex 0.518727 26.4404 1.25
    endloop
  endfacet
  facet normal 0 0 1
    outer loop
      vertex 11.1732 3.80468 1.25
      vertex 5.7612 9.21664 1.25
      vertex 5.37283 0.032869 1.25
    endloop
  endfacet
  facet normal 0 0 1
    outer loop
      vertex 5.7612 16.8703 1.25
      vertex 0 24 1.25
      vertex 5.7612 9.21664 1.25
    endloop
  endfacet
  facet normal 0 0 1
    outer loop
      vertex 24.2388 9.21664 1.25
      vertex 29.4813 3.55958 1.25
      vertex 29.8689 4.75253 1.25
    endloop
  endfacet
  facet normal 0 0 1
    outer loop
      vertex 18.7417 12.5435 1.25
      vertex 18.7417 14.5933 1.25
      vertex 13.4501 16.7852 1.25
    endloop
  endfacet
  facet normal 0 0 1
    outer loop
      vertex 5.37283 29.9671 1.25
      vertex 11.25 26.7935 1.25
      vertex 24.6272 29.9671 1.25
    endloop
  endfacet
  facet normal 0 0 1
    outer loop
      vertex 5.37283 29.9671 1.25
      vertex 0 24 1.25
      vertex 11.25 26.7935 1.25
    endloop
  endfacet
  facet normal 0 0 1
    outer loop
      vertex 18.75 26.7935 1.25
      vertex 24.5328 25.6881 1.25
      vertex 24.5 26 1.25
    endloop
  endfacet
  facet normal 0 0 1
    outer loop
      vertex 30 24 1.25
      vertex 18.75 22.2823 1.25
      vertex 18.8268 22.2823 1.25
    endloop
  endfacet
  facet normal 0 0 1
    outer loop
      vertex 30 24 1.25
      vertex 24.2388 16.8703 1.25
      vertex 30 6 1.25
    endloop
  endfacet
  facet normal 0 0 1
    outer loop
      vertex 30 24 1.25
      vertex 18.8268 22.2823 1.25
      vertex 24.2388 16.8703 1.25
    endloop
  endfacet
  facet normal 0 0 1
    outer loop
      vertex 30 6 1.25
      vertex 24.2388 9.21664 1.25
      vertex 29.8689 4.75253 1.25
    endloop
  endfacet
  facet normal 0 0 1
    outer loop
      vertex 27.4672 26.3119 1.25
      vertex 27.5 26 1.25
      vertex 29.4813 26.4404 1.25
    endloop
  endfacet
  facet normal 0 0 1
    outer loop
      vertex 24.9963 27.1147 1.25
      vertex 25.25 27.299 1.25
      vertex 18.75 26.7935 1.25
    endloop
  endfacet
  facet normal 0 0 1
    outer loop
      vertex 24.6272 0.032869 1.25
      vertex 18.8268 3.80468 1.25
      vertex 18.75 3.80468 1.25
    endloop
  endfacet
  facet normal 0 0 1
    outer loop
      vertex 18.75 26.7935 1.25
      vertex 24.7865 26.8817 1.25
      vertex 24.9963 27.1147 1.25
    endloop
  endfacet
  facet normal 0 0 1
    outer loop
      vertex 11.25 12.5435 1.25
      vertex 11.25 3.80468 1.25
      vertex 18.75 3.80468 1.25
    endloop
  endfacet
  facet normal 0 0 1
    outer loop
      vertex 11.25 26.7935 1.25
      vertex 27 29.1962 1.25
      vertex 25.8541 29.7063 1.25
    endloop
  endfacet
  facet normal 0 0 1
    outer loop
      vertex 11.25 26.7935 1.25
      vertex 25.8541 29.7063 1.25
      vertex 24.6272 29.9671 1.25
    endloop
  endfacet
  facet normal 0 0 1
    outer loop
      vertex 11.25 26.7935 1.25
      vertex 28.0148 28.4589 1.25
      vertex 27 29.1962 1.25
    endloop
  endfacet
  facet normal 0 0 1
    outer loop
      vertex 18.75 3.80468 1.25
      vertex 18.7417 12.5435 1.25
      vertex 13.4501 16.7852 1.25
    endloop
  endfacet
  facet normal 0 0 1
    outer loop
      vertex 26.4635 27.4266 1.25
      vertex 26.75 27.299 1.25
      vertex 28.8541 27.5267 1.25
    endloop
  endfacet
  facet normal 0 0 1
    outer loop
      vertex 24.6272 0.032869 1.25
      vertex 11.25 3.80468 1.25
      vertex 5.37283 0.032869 1.25
    endloop
  endfacet
  facet normal 0 0 1
    outer loop
      vertex 11.25 3.80468 1.25
      vertex 11.1732 3.80468 1.25
      vertex 5.37283 0.032869 1.25
    endloop
  endfacet
  facet normal 0 0 1
    outer loop
      vertex 27.3703 25.3899 1.25
      vertex 27.2135 25.1183 1.25
      vertex 29.8689 25.2475 1.25
    endloop
  endfacet
  facet normal 0 0 1
    outer loop
      vertex 27.4672 25.6881 1.25
      vertex 27.3703 25.3899 1.25
      vertex 29.8689 25.2475 1.25
    endloop
  endfacet
  facet normal 0 0 1
    outer loop
      vertex 24.2388 9.21664 1.25
      vertex 18.8268 3.80468 1.25
      vertex 24.6272 0.032869 1.25
    endloop
  endfacet
  facet normal 0 0 1
    outer loop
      vertex 25.8432 24.5082 1.25
      vertex 18.75 22.2823 1.25
      vertex 30 24 1.25
    endloop
  endfacet
  facet normal 0 0 1
    outer loop
      vertex 18.75 26.7935 1.25
      vertex 25.5365 24.5734 1.25
      vertex 25.25 24.701 1.25
    endloop
  endfacet
  facet normal 0 0 1
    outer loop
      vertex 27.0037 27.1147 1.25
      vertex 27.2135 26.8817 1.25
      vertex 28.8541 27.5267 1.25
    endloop
  endfacet
  facet normal 0 0 1
    outer loop
      vertex 18.75 26.7935 1.25
      vertex 25.25 24.701 1.25
      vertex 24.9963 24.8853 1.25
    endloop
  endfacet
  facet normal 0 0 1
    outer loop
      vertex 25.5365 27.4266 1.25
      vertex 25.8432 27.4918 1.25
      vertex 28.0148 28.4589 1.25
    endloop
  endfacet
  facet normal 0 0 1
    outer loop
      vertex 18.75 26.7935 1.25
      vertex 24.6297 25.3899 1.25
      vertex 24.5328 25.6881 1.25
    endloop
  endfacet
  facet normal 0 0 1
    outer loop
      vertex 26.75 27.299 1.25
      vertex 27.0037 27.1147 1.25
      vertex 28.8541 27.5267 1.25
    endloop
  endfacet
  facet normal 0 0 1
    outer loop
      vertex 25.5365 27.4266 1.25
      vertex 18.75 26.7935 1.25
      vertex 25.25 27.299 1.25
    endloop
  endfacet
  facet normal 0 0 1
    outer loop
      vertex 28.0148 28.4589 1.25
      vertex 18.75 26.7935 1.25
      vertex 25.5365 27.4266 1.25
    endloop
  endfacet
  facet normal 0 0 1
    outer loop
      vertex 28.0148 28.4589 1.25
      vertex 25.8432 27.4918 1.25
      vertex 28.8541 27.5267 1.25
    endloop
  endfacet
  facet normal 0 0 1
    outer loop
      vertex 25.8432 27.4918 1.25
      vertex 26.1568 27.4918 1.25
      vertex 28.8541 27.5267 1.25
    endloop
  endfacet
  facet normal 0 0 1
    outer loop
      vertex 26.1568 27.4918 1.25
      vertex 26.4635 27.4266 1.25
      vertex 28.8541 27.5267 1.25
    endloop
  endfacet
  facet normal 0 0 1
    outer loop
      vertex 18.75 26.7935 1.25
      vertex 24.7865 25.1183 1.25
      vertex 24.6297 25.3899 1.25
    endloop
  endfacet
  facet normal 0 0 1
    outer loop
      vertex 27.3703 26.6101 1.25
      vertex 27.4672 26.3119 1.25
      vertex 29.4813 26.4404 1.25
    endloop
  endfacet
  facet normal 0 0 1
    outer loop
      vertex 28.8541 27.5267 1.25
      vertex 27.2135 26.8817 1.25
      vertex 29.4813 26.4404 1.25
    endloop
  endfacet
  facet normal 0 0 1
    outer loop
      vertex 27.2135 26.8817 1.25
      vertex 27.3703 26.6101 1.25
      vertex 29.4813 26.4404 1.25
    endloop
  endfacet
  facet normal 0 0 1
    outer loop
      vertex 25.5365 24.5734 1.25
      vertex 18.75 22.2823 1.25
      vertex 25.8432 24.5082 1.25
    endloop
  endfacet
  facet normal 0 0 1
    outer loop
      vertex 29.4813 26.4404 1.25
      vertex 27.5 26 1.25
      vertex 29.8689 25.2475 1.25
    endloop
  endfacet
  facet normal 0 0 1
    outer loop
      vertex 27.5 26 1.25
      vertex 27.4672 25.6881 1.25
      vertex 29.8689 25.2475 1.25
    endloop
  endfacet
  facet normal 0 0 1
    outer loop
      vertex 29.8689 25.2475 1.25
      vertex 27.2135 25.1183 1.25
      vertex 30 24 1.25
    endloop
  endfacet
  facet normal 0 0 1
    outer loop
      vertex 27.2135 25.1183 1.25
      vertex 27.0037 24.8853 1.25
      vertex 30 24 1.25
    endloop
  endfacet
  facet normal 0 0 1
    outer loop
      vertex 27.0037 24.8853 1.25
      vertex 26.75 24.701 1.25
      vertex 30 24 1.25
    endloop
  endfacet
  facet normal 0 0 1
    outer loop
      vertex 26.75 24.701 1.25
      vertex 26.4635 24.5734 1.25
      vertex 30 24 1.25
    endloop
  endfacet
  facet normal 0 0 1
    outer loop
      vertex 26.4635 24.5734 1.25
      vertex 26.1568 24.5082 1.25
      vertex 30 24 1.25
    endloop
  endfacet
  facet normal 0 0 1
    outer loop
      vertex 16.5499 16.7852 1.25
      vertex 13.4501 16.7852 1.25
      vertex 18.7417 14.5933 1.25
    endloop
  endfacet
  facet normal 0 0 1
    outer loop
      vertex 18.75 3.80468 1.25
      vertex 11.25 3.80468 1.25
      vertex 24.6272 0.032869 1.25
    endloop
  endfacet
  facet normal 0 0 1
    outer loop
      vertex 18.75 3.80468 1.25
      vertex 18.75 12.5435 1.25
      vertex 18.7417 12.5435 1.25
    endloop
  endfacet
  facet normal 0 0 1
    outer loop
      vertex 18.75 3.80468 1.25
      vertex 13.4501 16.7852 1.25
      vertex 11.2583 14.5933 1.25
    endloop
  endfacet
  facet normal 0 0 1
    outer loop
      vertex 18.75 3.80468 1.25
      vertex 11.2583 14.5933 1.25
      vertex 11.2583 12.5435 1.25
    endloop
  endfacet
  facet normal 0 0 1
    outer loop
      vertex 18.75 3.80468 1.25
      vertex 11.2583 12.5435 1.25
      vertex 11.25 12.5435 1.25
    endloop
  endfacet
  facet normal 0 0 1
    outer loop
      vertex 5.7612 16.8703 1.25
      vertex 11.1732 22.2823 1.25
      vertex 0 24 1.25
    endloop
  endfacet
  facet normal 0 0 1
    outer loop
      vertex 24.2388 16.8703 1.25
      vertex 24.2388 9.21664 1.25
      vertex 30 6 1.25
    endloop
  endfacet
  facet normal 0 0 1
    outer loop
      vertex 25.8432 24.5082 1.25
      vertex 30 24 1.25
      vertex 26.1568 24.5082 1.25
    endloop
  endfacet
  facet normal 0 0 1
    outer loop
      vertex 11.25 22.2823 1.25
      vertex 0 24 1.25
      vertex 11.1732 22.2823 1.25
    endloop
  endfacet
  facet normal 0 0 1
    outer loop
      vertex 11.25 22.2823 1.25
      vertex 11.25 26.7935 1.25
      vertex 0 24 1.25
    endloop
  endfacet
  facet normal -0.951057 -0.309017 0
    outer loop
      vertex 0.131114 4.75253 -1.25
      vertex 0.518727 3.55958 -1.25
      vertex 0.131114 4.75253 1.25
    endloop
  endfacet
  facet normal -0.951057 -0.309017 0
    outer loop
      vertex 0.131114 4.75253 1.25
      vertex 0.518727 3.55958 -1.25
      vertex 0.518727 3.55958 1.25
    endloop
  endfacet
  facet normal -0.866025 -0.5 0
    outer loop
      vertex 0.518727 3.55958 -1.25
      vertex 1.1459 2.47329 -1.25
      vertex 0.518727 3.55958 1.25
    endloop
  endfacet
  facet normal -0.866025 -0.5 0
    outer loop
      vertex 0.518727 3.55958 1.25
      vertex 1.1459 2.47329 -1.25
      vertex 1.1459 2.47329 1.25
    endloop
  endfacet
  facet normal -0.743145 -0.669131 0
    outer loop
      vertex 1.1459 2.47329 -1.25
      vertex 1.98522 1.54113 -1.25
      vertex 1.1459 2.47329 1.25
    endloop
  endfacet
  facet normal -0.743145 -0.669131 0
    outer loop
      vertex 1.1459 2.47329 1.25
      vertex 1.98522 1.54113 -1.25
      vertex 1.98522 1.54113 1.25
    endloop
  endfacet
  facet normal -0.587785 -0.809017 0
    outer loop
      vertex 1.98522 1.54113 1.25
      vertex 1.98522 1.54113 -1.25
      vertex 3 0.803848 -1.25
    endloop
  endfacet
  facet normal -0.587785 -0.809017 0
    outer loop
      vertex 3 0.803848 1.25
      vertex 1.98522 1.54113 1.25
      vertex 3 0.803848 -1.25
    endloop
  endfacet
  facet normal -0.406737 -0.913545 0
    outer loop
      vertex 3 0.803848 1.25
      vertex 3 0.803848 -1.25
      vertex 4.1459 0.293661 -1.25
    endloop
  endfacet
  facet normal -0.406737 -0.913545 0
    outer loop
      vertex 4.1459 0.293661 1.25
      vertex 3 0.803848 1.25
      vertex 4.1459 0.293661 -1.25
    endloop
  endfacet
  facet normal -0.207912 -0.978148 0
    outer loop
      vertex 4.1459 0.293661 1.25
      vertex 4.1459 0.293661 -1.25
      vertex 5.37283 0.032869 -1.25
    endloop
  endfacet
  facet normal -0.207912 -0.978148 0
    outer loop
      vertex 5.37283 0.032869 1.25
      vertex 4.1459 0.293661 1.25
      vertex 5.37283 0.032869 -1.25
    endloop
  endfacet
  facet normal 0 -1 0
    outer loop
      vertex 5.37283 0.032869 1.25
      vertex 5.37283 0.032869 -1.25
      vertex 24.6272 0.032869 -1.25
    endloop
  endfacet
  facet normal 0 -1 0
    outer loop
      vertex 24.6272 0.032869 1.25
      vertex 5.37283 0.032869 1.25
      vertex 24.6272 0.032869 -1.25
    endloop
  endfacet
  facet normal 0.207912 -0.978148 0
    outer loop
      vertex 24.6272 0.032869 1.25
      vertex 24.6272 0.032869 -1.25
      vertex 25.8541 0.293661 -1.25
    endloop
  endfacet
  facet normal 0.207912 -0.978148 0
    outer loop
      vertex 25.8541 0.293661 1.25
      vertex 24.6272 0.032869 1.25
      vertex 25.8541 0.293661 -1.25
    endloop
  endfacet
  facet normal 0.406737 -0.913545 0
    outer loop
      vertex 25.8541 0.293661 1.25
      vertex 25.8541 0.293661 -1.25
      vertex 27 0.803848 -1.25
    endloop
  endfacet
  facet normal 0.406737 -0.913545 0
    outer loop
      vertex 27 0.803848 1.25
      vertex 25.8541 0.293661 1.25
      vertex 27 0.803848 -1.25
    endloop
  endfacet
  facet normal 0.587785 -0.809017 0
    outer loop
      vertex 27 0.803848 1.25
      vertex 27 0.803848 -1.25
      vertex 28.0148 1.54113 -1.25
    endloop
  endfacet
  facet normal 0.587785 -0.809017 0
    outer loop
      vertex 28.0148 1.54113 1.25
      vertex 27 0.803848 1.25
      vertex 28.0148 1.54113 -1.25
    endloop
  endfacet
  facet normal 0.743145 -0.669131 0
    outer loop
      vertex 28.0148 1.54113 1.25
      vertex 28.0148 1.54113 -1.25
      vertex 28.8541 2.47329 -1.25
    endloop
  endfacet
  facet normal 0.743145 -0.669131 0
    outer loop
      vertex 28.8541 2.47329 1.25
      vertex 28.0148 1.54113 1.25
      vertex 28.8541 2.47329 -1.25
    endloop
  endfacet
  facet normal 0.866025 -0.5 0
    outer loop
      vertex 28.8541 2.47329 1.25
      vertex 28.8541 2.47329 -1.25
      vertex 29.4813 3.55958 -1.25
    endloop
  endfacet
  facet normal 0.866025 -0.5 0
    outer loop
      vertex 29.4813 3.55958 1.25
      vertex 28.8541 2.47329 1.25
      vertex 29.4813 3.55958 -1.25
    endloop
  endfacet
  facet normal 0.951057 -0.309017 0
    outer loop
      vertex 29.4813 3.55958 1.25
      vertex 29.4813 3.55958 -1.25
      vertex 29.8689 4.75253 -1.25
    endloop
  endfacet
  facet normal 0.951057 -0.309017 0
    outer loop
      vertex 29.8689 4.75253 1.25
      vertex 29.4813 3.55958 1.25
      vertex 29.8689 4.75253 -1.25
    endloop
  endfacet
  facet normal 0.994522 -0.104528 0
    outer loop
      vertex 29.8689 4.75253 1.25
      vertex 29.8689 4.75253 -1.25
      vertex 30 6 -1.25
    endloop
  endfacet
  facet normal 0.994522 -0.104528 0
    outer loop
      vertex 30 6 1.25
      vertex 29.8689 4.75253 1.25
      vertex 30 6 -1.25
    endloop
  endfacet
  facet normal 1 0 0
    outer loop
      vertex 30 6 1.25
      vertex 30 6 -1.25
      vertex 30 24 -1.25
    endloop
  endfacet
  facet normal 1 0 0
    outer loop
      vertex 30 24 1.25
      vertex 30 6 1.25
      vertex 30 24 -1.25
    endloop
  endfacet
  facet normal 0.994522 0.104528 0
    outer loop
      vertex 30 24 -1.25
      vertex 29.8689 25.2475 -1.25
      vertex 29.8689 25.2475 1.25
    endloop
  endfacet
  facet normal 0.994522 0.104528 0
    outer loop
      vertex 30 24 1.25
      vertex 30 24 -1.25
      vertex 29.8689 25.2475 1.25
    endloop
  endfacet
  facet normal 0.951057 0.309017 0
    outer loop
      vertex 29.8689 25.2475 -1.25
      vertex 29.4813 26.4404 -1.25
      vertex 29.4813 26.4404 1.25
    endloop
  endfacet
  facet normal 0.951057 0.309017 0
    outer loop
      vertex 29.8689 25.2475 1.25
      vertex 29.8689 25.2475 -1.25
      vertex 29.4813 26.4404 1.25
    endloop
  endfacet
  facet normal 0.866025 0.5 0
    outer loop
      vertex 29.4813 26.4404 -1.25
      vertex 28.8541 27.5267 -1.25
      vertex 28.8541 27.5267 1.25
    endloop
  endfacet
  facet normal 0.866025 0.5 0
    outer loop
      vertex 29.4813 26.4404 1.25
      vertex 29.4813 26.4404 -1.25
      vertex 28.8541 27.5267 1.25
    endloop
  endfacet
  facet normal 0.743145 0.669131 0
    outer loop
      vertex 28.8541 27.5267 -1.25
      vertex 28.0148 28.4589 -1.25
      vertex 28.0148 28.4589 1.25
    endloop
  endfacet
  facet normal 0.743145 0.669131 0
    outer loop
      vertex 28.8541 27.5267 1.25
      vertex 28.8541 27.5267 -1.25
      vertex 28.0148 28.4589 1.25
    endloop
  endfacet
  facet normal 0.587785 0.809017 0
    outer loop
      vertex 27 29.1962 -1.25
      vertex 27 29.1962 1.25
      vertex 28.0148 28.4589 -1.25
    endloop
  endfacet
  facet normal 0.587785 0.809017 0
    outer loop
      vertex 28.0148 28.4589 -1.25
      vertex 27 29.1962 1.25
      vertex 28.0148 28.4589 1.25
    endloop
  endfacet
  facet normal 0.406737 0.913545 0
    outer loop
      vertex 25.8541 29.7063 -1.25
      vertex 25.8541 29.7063 1.25
      vertex 27 29.1962 -1.25
    endloop
  endfacet
  facet normal 0.406737 0.913545 0
    outer loop
      vertex 27 29.1962 -1.25
      vertex 25.8541 29.7063 1.25
      vertex 27 29.1962 1.25
    endloop
  endfacet
  facet normal 0.207912 0.978148 0
    outer loop
      vertex 24.6272 29.9671 -1.25
      vertex 24.6272 29.9671 1.25
      vertex 25.8541 29.7063 -1.25
    endloop
  endfacet
  facet normal 0.207912 0.978148 0
    outer loop
      vertex 25.8541 29.7063 -1.25
      vertex 24.6272 29.9671 1.25
      vertex 25.8541 29.7063 1.25
    endloop
  endfacet
  facet normal 0 1 0
    outer loop
      vertex 5.37283 29.9671 -1.25
      vertex 5.37283 29.9671 1.25
      vertex 24.6272 29.9671 -1.25
    endloop
  endfacet
  facet normal 0 1 0
    outer loop
      vertex 24.6272 29.9671 -1.25
      vertex 5.37283 29.9671 1.25
      vertex 24.6272 29.9671 1.25
    endloop
  endfacet
  facet normal -0.207912 0.978148 0
    outer loop
      vertex 4.1459 29.7063 -1.25
      vertex 4.1459 29.7063 1.25
      vertex 5.37283 29.9671 -1.25
    endloop
  endfacet
  facet normal -0.207912 0.978148 0
    outer loop
      vertex 5.37283 29.9671 -1.25
      vertex 4.1459 29.7063 1.25
      vertex 5.37283 29.9671 1.25
    endloop
  endfacet
  facet normal -0.406737 0.913545 0
    outer loop
      vertex 3 29.1962 -1.25
      vertex 3 29.1962 1.25
      vertex 4.1459 29.7063 -1.25
    endloop
  endfacet
  facet normal -0.406737 0.913545 0
    outer loop
      vertex 4.1459 29.7063 -1.25
      vertex 3 29.1962 1.25
      vertex 4.1459 29.7063 1.25
    endloop
  endfacet
  facet normal -0.587785 0.809017 0
    outer loop
      vertex 1.98522 28.4589 -1.25
      vertex 1.98522 28.4589 1.25
      vertex 3 29.1962 -1.25
    endloop
  endfacet
  facet normal -0.587785 0.809017 0
    outer loop
      vertex 3 29.1962 -1.25
      vertex 1.98522 28.4589 1.25
      vertex 3 29.1962 1.25
    endloop
  endfacet
  facet normal -0.743145 0.669131 0
    outer loop
      vertex 1.1459 27.5267 -1.25
      vertex 1.1459 27.5267 1.25
      vertex 1.98522 28.4589 -1.25
    endloop
  endfacet
  facet normal -0.743145 0.669131 0
    outer loop
      vertex 1.98522 28.4589 -1.25
      vertex 1.1459 27.5267 1.25
      vertex 1.98522 28.4589 1.25
    endloop
  endfacet
  facet normal -0.866025 0.5 0
    outer loop
      vertex 0.518727 26.4404 -1.25
      vertex 0.518727 26.4404 1.25
      vertex 1.1459 27.5267 -1.25
    endloop
  endfacet
  facet normal -0.866025 0.5 0
    outer loop
      vertex 1.1459 27.5267 -1.25
      vertex 0.518727 26.4404 1.25
      vertex 1.1459 27.5267 1.25
    endloop
  endfacet
  facet normal -0.951057 0.309017 0
    outer loop
      vertex 0.131114 25.2475 -1.25
      vertex 0.131114 25.2475 1.25
      vertex 0.518727 26.4404 -1.25
    endloop
  endfacet
  facet normal -0.951057 0.309017 0
    outer loop
      vertex 0.518727 26.4404 -1.25
      vertex 0.131114 25.2475 1.25
      vertex 0.518727 26.4404 1.25
    endloop
  endfacet
  facet normal -0.994522 0.104528 0
    outer loop
      vertex 0 24 -1.25
      vertex 0 24 1.25
      vertex 0.131114 25.2475 -1.25
    endloop
  endfacet
  facet normal -0.994522 0.104528 0
    outer loop
      vertex 0.131114 25.2475 -1.25
      vertex 0 24 1.25
      vertex 0.131114 25.2475 1.25
    endloop
  endfacet
  facet normal 0.707107 -0.707107 0
    outer loop
      vertex 11.1732 22.2823 -1.25
      vertex 11.1732 22.2823 1.25
      vertex 5.7612 16.8703 1.25
    endloop
  endfacet
  facet normal 0.707107 -0.707107 0
    outer loop
      vertex 5.7612 16.8703 -1.25
      vertex 11.1732 22.2823 -1.25
      vertex 5.7612 16.8703 1.25
    endloop
  endfacet
  facet normal 1 3.21166e-08 0
    outer loop
      vertex 5.7612 16.8703 1.25
      vertex 5.7612 9.21664 1.25
      vertex 5.7612 9.21664 -1.25
    endloop
  endfacet
  facet normal 1 3.21166e-08 0
    outer loop
      vertex 5.7612 16.8703 -1.25
      vertex 5.7612 16.8703 1.25
      vertex 5.7612 9.21664 -1.25
    endloop
  endfacet
  facet normal 3.21166e-08 -1 0
    outer loop
      vertex 11.25 22.2823 -1.25
      vertex 11.25 22.2823 1.25
      vertex 11.1732 22.2823 1.25
    endloop
  endfacet
  facet normal 3.21166e-08 -1 0
    outer loop
      vertex 11.1732 22.2823 -1.25
      vertex 11.25 22.2823 -1.25
      vertex 11.1732 22.2823 1.25
    endloop
  endfacet
  facet normal 1 0 0
    outer loop
      vertex 11.25 26.7935 -1.25
      vertex 11.25 26.7935 1.25
      vertex 11.25 22.2823 1.25
    endloop
  endfacet
  facet normal 1 0 0
    outer loop
      vertex 11.25 22.2823 -1.25
      vertex 11.25 26.7935 -1.25
      vertex 11.25 22.2823 1.25
    endloop
  endfacet
  facet normal 0 -1 0
    outer loop
      vertex 18.75 26.7935 -1.25
      vertex 18.75 26.7935 1.25
      vertex 11.25 26.7935 1.25
    endloop
  endfacet
  facet normal 0 -1 0
    outer loop
      vertex 11.25 26.7935 -1.25
      vertex 18.75 26.7935 -1.25
      vertex 11.25 26.7935 1.25
    endloop
  endfacet
  facet normal -1 0 0
    outer loop
      vertex 18.75 26.7935 1.25
      vertex 18.75 26.7935 -1.25
      vertex 18.75 22.2823 1.25
    endloop
  endfacet
  facet normal -1 0 0
    outer loop
      vertex 18.75 22.2823 1.25
      vertex 18.75 26.7935 -1.25
      vertex 18.75 22.2823 -1.25
    endloop
  endfacet
  facet normal 3.21166e-08 -1 0
    outer loop
      vertex 18.8268 22.2823 -1.25
      vertex 18.8268 22.2823 1.25
      vertex 18.75 22.2823 1.25
    endloop
  endfacet
  facet normal 3.21166e-08 -1 0
    outer loop
      vertex 18.75 22.2823 -1.25
      vertex 18.8268 22.2823 -1.25
      vertex 18.75 22.2823 1.25
    endloop
  endfacet
  facet normal -0.707107 -0.707107 0
    outer loop
      vertex 24.2388 16.8703 1.25
      vertex 18.8268 22.2823 1.25
      vertex 24.2388 16.8703 -1.25
    endloop
  endfacet
  facet normal -0.707107 -0.707107 0
    outer loop
      vertex 24.2388 16.8703 -1.25
      vertex 18.8268 22.2823 1.25
      vertex 18.8268 22.2823 -1.25
    endloop
  endfacet
  facet normal -1 -3.21166e-08 0
    outer loop
      vertex 24.2388 9.21664 1.25
      vertex 24.2388 16.8703 1.25
      vertex 24.2388 9.21664 -1.25
    endloop
  endfacet
  facet normal -1 -3.21166e-08 0
    outer loop
      vertex 24.2388 9.21664 -1.25
      vertex 24.2388 16.8703 1.25
      vertex 24.2388 16.8703 -1.25
    endloop
  endfacet
  facet normal -0.707107 0.707107 0
    outer loop
      vertex 24.2388 9.21664 1.25
      vertex 24.2388 9.21664 -1.25
      vertex 18.8268 3.80468 1.25
    endloop
  endfacet
  facet normal -0.707107 0.707107 0
    outer loop
      vertex 18.8268 3.80468 1.25
      vertex 24.2388 9.21664 -1.25
      vertex 18.8268 3.80468 -1.25
    endloop
  endfacet
  facet normal -3.21166e-08 1 0
    outer loop
      vertex 18.8268 3.80468 1.25
      vertex 18.8268 3.80468 -1.25
      vertex 18.75 3.80468 1.25
    endloop
  endfacet
  facet normal -3.21166e-08 1 0
    outer loop
      vertex 18.75 3.80468 1.25
      vertex 18.8268 3.80468 -1.25
      vertex 18.75 3.80468 -1.25
    endloop
  endfacet
  facet normal 1 0 0
    outer loop
      vertex 18.75 3.80468 1.25
      vertex 18.75 3.80468 -1.25
      vertex 18.75 12.5435 -1.25
    endloop
  endfacet
  facet normal 1 0 0
    outer loop
      vertex 18.75 12.5435 1.25
      vertex 18.75 3.80468 1.25
      vertex 18.75 12.5435 -1.25
    endloop
  endfacet
  facet normal 0 1 0
    outer loop
      vertex 18.7417 12.5435 -1.25
      vertex 18.7417 12.5435 1.25
      vertex 18.75 12.5435 -1.25
    endloop
  endfacet
  facet normal 0 1 0
    outer loop
      vertex 18.75 12.5435 -1.25
      vertex 18.7417 12.5435 1.25
      vertex 18.75 12.5435 1.25
    endloop
  endfacet
  facet normal 1 -1.95498e-07 0
    outer loop
      vertex 18.7417 12.5435 1.25
      vertex 18.7417 12.5435 -1.25
      vertex 18.7417 14.5933 -1.25
    endloop
  endfacet
  facet normal 1 -1.95498e-07 0
    outer loop
      vertex 18.7417 14.5933 1.25
      vertex 18.7417 12.5435 1.25
      vertex 18.7417 14.5933 -1.25
    endloop
  endfacet
  facet normal 0.707107 0.707107 0
    outer loop
      vertex 16.5499 16.7852 -1.25
      vertex 16.5499 16.7852 1.25
      vertex 18.7417 14.5933 -1.25
    endloop
  endfacet
  facet normal 0.707107 0.707107 0
    outer loop
      vertex 18.7417 14.5933 -1.25
      vertex 16.5499 16.7852 1.25
      vertex 18.7417 14.5933 1.25
    endloop
  endfacet
  facet normal 1.95498e-07 1 0
    outer loop
      vertex 13.4501 16.7852 -1.25
      vertex 13.4501 16.7852 1.25
      vertex 16.5499 16.7852 -1.25
    endloop
  endfacet
  facet normal 1.95498e-07 1 0
    outer loop
      vertex 16.5499 16.7852 -1.25
      vertex 13.4501 16.7852 1.25
      vertex 16.5499 16.7852 1.25
    endloop
  endfacet
  facet normal -0.707107 0.707107 0
    outer loop
      vertex 11.2583 14.5933 -1.25
      vertex 11.2583 14.5933 1.25
      vertex 13.4501 16.7852 -1.25
    endloop
  endfacet
  facet normal -0.707107 0.707107 0
    outer loop
      vertex 13.4501 16.7852 -1.25
      vertex 11.2583 14.5933 1.25
      vertex 13.4501 16.7852 1.25
    endloop
  endfacet
  facet normal -1 1.95498e-07 0
    outer loop
      vertex 11.2583 12.5435 -1.25
      vertex 11.2583 12.5435 1.25
      vertex 11.2583 14.5933 -1.25
    endloop
  endfacet
  facet normal -1 1.95498e-07 0
    outer loop
      vertex 11.2583 14.5933 -1.25
      vertex 11.2583 12.5435 1.25
      vertex 11.2583 14.5933 1.25
    endloop
  endfacet
  facet normal 0 1 0
    outer loop
      vertex 11.25 12.5435 -1.25
      vertex 11.25 12.5435 1.25
      vertex 11.2583 12.5435 -1.25
    endloop
  endfacet
  facet normal 0 1 0
    outer loop
      vertex 11.2583 12.5435 -1.25
      vertex 11.25 12.5435 1.25
      vertex 11.2583 12.5435 1.25
    endloop
  endfacet
  facet normal -1 0 0
    outer loop
      vertex 11.25 3.80468 -1.25
      vertex 11.25 3.80468 1.25
      vertex 11.25 12.5435 -1.25
    endloop
  endfacet
  facet normal -1 0 0
    outer loop
      vertex 11.25 12.5435 -1.25
      vertex 11.25 3.80468 1.25
      vertex 11.25 12.5435 1.25
    endloop
  endfacet
  facet normal -3.21166e-08 1 0
    outer loop
      vertex 11.25 3.80468 1.25
      vertex 11.25 3.80468 -1.25
      vertex 11.1732 3.80468 1.25
    endloop
  endfacet
  facet normal -3.21166e-08 1 0
    outer loop
      vertex 11.1732 3.80468 1.25
      vertex 11.25 3.80468 -1.25
      vertex 11.1732 3.80468 -1.25
    endloop
  endfacet
  facet normal 0.707107 0.707107 0
    outer loop
      vertex 5.7612 9.21664 1.25
      vertex 11.1732 3.80468 1.25
      vertex 11.1732 3.80468 -1.25
    endloop
  endfacet
  facet normal 0.707107 0.707107 0
    outer loop
      vertex 5.7612 9.21664 -1.25
      vertex 5.7612 9.21664 1.25
      vertex 11.1732 3.80468 -1.25
    endloop
  endfacet
  facet normal 0.994522 -0.10453 0
    outer loop
      vertex 24.5328 26.3119 -1.25
      vertex 24.5328 26.3119 1.25
      vertex 24.5 26 1.25
    endloop
  endfacet
  facet normal 0.994522 -0.10453 0
    outer loop
      vertex 24.5 26 -1.25
      vertex 24.5328 26.3119 -1.25
      vertex 24.5 26 1.25
    endloop
  endfacet
  facet normal 0.994522 0.10453 0
    outer loop
      vertex 24.5 26 1.25
      vertex 24.5328 25.6881 1.25
      vertex 24.5328 25.6881 -1.25
    endloop
  endfacet
  facet normal 0.994522 0.10453 0
    outer loop
      vertex 24.5 26 -1.25
      vertex 24.5 26 1.25
      vertex 24.5328 25.6881 -1.25
    endloop
  endfacet
  facet normal 0.951057 -0.309017 0
    outer loop
      vertex 24.6297 26.6101 -1.25
      vertex 24.6297 26.6101 1.25
      vertex 24.5328 26.3119 1.25
    endloop
  endfacet
  facet normal 0.951057 -0.309017 0
    outer loop
      vertex 24.5328 26.3119 -1.25
      vertex 24.6297 26.6101 -1.25
      vertex 24.5328 26.3119 1.25
    endloop
  endfacet
  facet normal 0.866025 -0.500001 0
    outer loop
      vertex 24.7865 26.8817 -1.25
      vertex 24.7865 26.8817 1.25
      vertex 24.6297 26.6101 1.25
    endloop
  endfacet
  facet normal 0.866025 -0.500001 0
    outer loop
      vertex 24.6297 26.6101 -1.25
      vertex 24.7865 26.8817 -1.25
      vertex 24.6297 26.6101 1.25
    endloop
  endfacet
  facet normal 0.743145 -0.66913 0
    outer loop
      vertex 24.9963 27.1147 -1.25
      vertex 24.9963 27.1147 1.25
      vertex 24.7865 26.8817 1.25
    endloop
  endfacet
  facet normal 0.743145 -0.66913 0
    outer loop
      vertex 24.7865 26.8817 -1.25
      vertex 24.9963 27.1147 -1.25
      vertex 24.7865 26.8817 1.25
    endloop
  endfacet
  facet normal 0.587785 -0.809017 0
    outer loop
      vertex 25.25 27.299 -1.25
      vertex 25.25 27.299 1.25
      vertex 24.9963 27.1147 1.25
    endloop
  endfacet
  facet normal 0.587785 -0.809017 0
    outer loop
      vertex 24.9963 27.1147 -1.25
      vertex 25.25 27.299 -1.25
      vertex 24.9963 27.1147 1.25
    endloop
  endfacet
  facet normal 0.406737 -0.913545 0
    outer loop
      vertex 25.5365 27.4266 -1.25
      vertex 25.5365 27.4266 1.25
      vertex 25.25 27.299 1.25
    endloop
  endfacet
  facet normal 0.406737 -0.913545 0
    outer loop
      vertex 25.25 27.299 -1.25
      vertex 25.5365 27.4266 -1.25
      vertex 25.25 27.299 1.25
    endloop
  endfacet
  facet normal 0.207912 -0.978148 0
    outer loop
      vertex 25.8432 27.4918 -1.25
      vertex 25.8432 27.4918 1.25
      vertex 25.5365 27.4266 1.25
    endloop
  endfacet
  facet normal 0.207912 -0.978148 0
    outer loop
      vertex 25.5365 27.4266 -1.25
      vertex 25.8432 27.4918 -1.25
      vertex 25.5365 27.4266 1.25
    endloop
  endfacet
  facet normal 0 -1 0
    outer loop
      vertex 26.1568 27.4918 -1.25
      vertex 26.1568 27.4918 1.25
      vertex 25.8432 27.4918 1.25
    endloop
  endfacet
  facet normal 0 -1 0
    outer loop
      vertex 25.8432 27.4918 -1.25
      vertex 26.1568 27.4918 -1.25
      vertex 25.8432 27.4918 1.25
    endloop
  endfacet
  facet normal -0.207912 -0.978148 0
    outer loop
      vertex 26.4635 27.4266 -1.25
      vertex 26.4635 27.4266 1.25
      vertex 26.1568 27.4918 1.25
    endloop
  endfacet
  facet normal -0.207912 -0.978148 0
    outer loop
      vertex 26.1568 27.4918 -1.25
      vertex 26.4635 27.4266 -1.25
      vertex 26.1568 27.4918 1.25
    endloop
  endfacet
  facet normal -0.406737 -0.913545 0
    outer loop
      vertex 26.75 27.299 -1.25
      vertex 26.75 27.299 1.25
      vertex 26.4635 27.4266 1.25
    endloop
  endfacet
  facet normal -0.406737 -0.913545 0
    outer loop
      vertex 26.4635 27.4266 -1.25
      vertex 26.75 27.299 -1.25
      vertex 26.4635 27.4266 1.25
    endloop
  endfacet
  facet normal -0.587785 -0.809017 0
    outer loop
      vertex 27.0037 27.1147 -1.25
      vertex 27.0037 27.1147 1.25
      vertex 26.75 27.299 1.25
    endloop
  endfacet
  facet normal -0.587785 -0.809017 0
    outer loop
      vertex 26.75 27.299 -1.25
      vertex 27.0037 27.1147 -1.25
      vertex 26.75 27.299 1.25
    endloop
  endfacet
  facet normal -0.743145 -0.66913 0
    outer loop
      vertex 27.2135 26.8817 1.25
      vertex 27.0037 27.1147 1.25
      vertex 27.2135 26.8817 -1.25
    endloop
  endfacet
  facet normal -0.743145 -0.66913 0
    outer loop
      vertex 27.2135 26.8817 -1.25
      vertex 27.0037 27.1147 1.25
      vertex 27.0037 27.1147 -1.25
    endloop
  endfacet
  facet normal -0.866025 -0.500001 0
    outer loop
      vertex 27.3703 26.6101 1.25
      vertex 27.2135 26.8817 1.25
      vertex 27.3703 26.6101 -1.25
    endloop
  endfacet
  facet normal -0.866025 -0.500001 0
    outer loop
      vertex 27.3703 26.6101 -1.25
      vertex 27.2135 26.8817 1.25
      vertex 27.2135 26.8817 -1.25
    endloop
  endfacet
  facet normal -0.951057 -0.309017 0
    outer loop
      vertex 27.4672 26.3119 1.25
      vertex 27.3703 26.6101 1.25
      vertex 27.4672 26.3119 -1.25
    endloop
  endfacet
  facet normal -0.951057 -0.309017 0
    outer loop
      vertex 27.4672 26.3119 -1.25
      vertex 27.3703 26.6101 1.25
      vertex 27.3703 26.6101 -1.25
    endloop
  endfacet
  facet normal -0.994522 -0.10453 0
    outer loop
      vertex 27.5 26 1.25
      vertex 27.4672 26.3119 1.25
      vertex 27.5 26 -1.25
    endloop
  endfacet
  facet normal -0.994522 -0.10453 0
    outer loop
      vertex 27.5 26 -1.25
      vertex 27.4672 26.3119 1.25
      vertex 27.4672 26.3119 -1.25
    endloop
  endfacet
  facet normal -0.994522 0.10453 0
    outer loop
      vertex 27.5 26 1.25
      vertex 27.5 26 -1.25
      vertex 27.4672 25.6881 1.25
    endloop
  endfacet
  facet normal -0.994522 0.10453 0
    outer loop
      vertex 27.4672 25.6881 1.25
      vertex 27.5 26 -1.25
      vertex 27.4672 25.6881 -1.25
    endloop
  endfacet
  facet normal -0.951057 0.309017 0
    outer loop
      vertex 27.4672 25.6881 1.25
      vertex 27.4672 25.6881 -1.25
      vertex 27.3703 25.3899 1.25
    endloop
  endfacet
  facet normal -0.951057 0.309017 0
    outer loop
      vertex 27.3703 25.3899 1.25
      vertex 27.4672 25.6881 -1.25
      vertex 27.3703 25.3899 -1.25
    endloop
  endfacet
  facet normal -0.866025 0.500001 0
    outer loop
      vertex 27.3703 25.3899 1.25
      vertex 27.3703 25.3899 -1.25
      vertex 27.2135 25.1183 1.25
    endloop
  endfacet
  facet normal -0.866025 0.500001 0
    outer loop
      vertex 27.2135 25.1183 1.25
      vertex 27.3703 25.3899 -1.25
      vertex 27.2135 25.1183 -1.25
    endloop
  endfacet
  facet normal -0.743145 0.66913 0
    outer loop
      vertex 27.2135 25.1183 1.25
      vertex 27.2135 25.1183 -1.25
      vertex 27.0037 24.8853 1.25
    endloop
  endfacet
  facet normal -0.743145 0.66913 0
    outer loop
      vertex 27.0037 24.8853 1.25
      vertex 27.2135 25.1183 -1.25
      vertex 27.0037 24.8853 -1.25
    endloop
  endfacet
  facet normal -0.587785 0.809017 0
    outer loop
      vertex 27.0037 24.8853 1.25
      vertex 27.0037 24.8853 -1.25
      vertex 26.75 24.701 1.25
    endloop
  endfacet
  facet normal -0.587785 0.809017 0
    outer loop
      vertex 26.75 24.701 1.25
      vertex 27.0037 24.8853 -1.25
      vertex 26.75 24.701 -1.25
    endloop
  endfacet
  facet normal -0.406737 0.913545 0
    outer loop
      vertex 26.75 24.701 1.25
      vertex 26.75 24.701 -1.25
      vertex 26.4635 24.5734 1.25
    endloop
  endfacet
  facet normal -0.406737 0.913545 0
    outer loop
      vertex 26.4635 24.5734 1.25
      vertex 26.75 24.701 -1.25
      vertex 26.4635 24.5734 -1.25
    endloop
  endfacet
  facet normal -0.207912 0.978148 0
    outer loop
      vertex 26.4635 24.5734 1.25
      vertex 26.4635 24.5734 -1.25
      vertex 26.1568 24.5082 1.25
    endloop
  endfacet
  facet normal -0.207912 0.978148 0
    outer loop
      vertex 26.1568 24.5082 1.25
      vertex 26.4635 24.5734 -1.25
      vertex 26.1568 24.5082 -1.25
    endloop
  endfacet
  facet normal 0 1 0
    outer loop
      vertex 26.1568 24.5082 1.25
      vertex 26.1568 24.5082 -1.25
      vertex 25.8432 24.5082 1.25
    endloop
  endfacet
  facet normal 0 1 0
    outer loop
      vertex 25.8432 24.5082 1.25
      vertex 26.1568 24.5082 -1.25
      vertex 25.8432 24.5082 -1.25
    endloop
  endfacet
  facet normal 0.207912 0.978148 0
    outer loop
      vertex 25.8432 24.5082 1.25
      vertex 25.8432 24.5082 -1.25
      vertex 25.5365 24.5734 1.25
    endloop
  endfacet
  facet normal 0.207912 0.978148 0
    outer loop
      vertex 25.5365 24.5734 1.25
      vertex 25.8432 24.5082 -1.25
      vertex 25.5365 24.5734 -1.25
    endloop
  endfacet
  facet normal 0.406737 0.913545 0
    outer loop
      vertex 25.5365 24.5734 1.25
      vertex 25.5365 24.5734 -1.25
      vertex 25.25 24.701 1.25
    endloop
  endfacet
  facet normal 0.406737 0.913545 0
    outer loop
      vertex 25.25 24.701 1.25
      vertex 25.5365 24.5734 -1.25
      vertex 25.25 24.701 -1.25
    endloop
  endfacet
  facet normal 0.587785 0.809017 0
    outer loop
      vertex 25.25 24.701 1.25
      vertex 25.25 24.701 -1.25
      vertex 24.9963 24.8853 1.25
    endloop
  endfacet
  facet normal 0.587785 0.809017 0
    outer loop
      vertex 24.9963 24.8853 1.25
      vertex 25.25 24.701 -1.25
      vertex 24.9963 24.8853 -1.25
    endloop
  endfacet
  facet normal 0.743145 0.66913 0
    outer loop
      vertex 24.7865 25.1183 1.25
      vertex 24.9963 24.8853 1.25
      vertex 24.9963 24.8853 -1.25
    endloop
  endfacet
  facet normal 0.743145 0.66913 0
    outer loop
      vertex 24.7865 25.1183 -1.25
      vertex 24.7865 25.1183 1.25
      vertex 24.9963 24.8853 -1.25
    endloop
  endfacet
  facet normal 0.866025 0.500001 0
    outer loop
      vertex 24.6297 25.3899 1.25
      vertex 24.7865 25.1183 1.25
      vertex 24.7865 25.1183 -1.25
    endloop
  endfacet
  facet normal 0.866025 0.500001 0
    outer loop
      vertex 24.6297 25.3899 -1.25
      vertex 24.6297 25.3899 1.25
      vertex 24.7865 25.1183 -1.25
    endloop
  endfacet
  facet normal 0.951057 0.309017 0
    outer loop
      vertex 24.5328 25.6881 1.25
      vertex 24.6297 25.3899 1.25
      vertex 24.6297 25.3899 -1.25
    endloop
  endfacet
  facet normal 0.951057 0.309017 0
    outer loop
      vertex 24.5328 25.6881 -1.25
      vertex 24.5328 25.6881 1.25
      vertex 24.6297 25.3899 -1.25
    endloop
  endfacet
endsolid OpenSCAD_Model
