solid OpenSCAD_Model
  facet normal -0.994522 -0.104528 0
    outer loop
      vertex 0 6 -1.25
      vertex 0.131114 4.75253 -1.25
      vertex 0 6 1.25
    endloop
  endfacet
  facet normal -0.994522 -0.104528 0
    outer loop
      vertex 0 6 1.25
      vertex 0.131114 4.75253 -1.25
      vertex 0.131114 4.75253 1.25
    endloop
  endfacet
  facet normal 0 0 -1
    outer loop
      vertex 0 6 -1.25
      vertex 0 24 -1.25
      vertex 0.131114 4.75253 -1.25
    endloop
  endfacet
  facet normal 0 0 -1
    outer loop
      vertex 0.131114 4.75253 -1.25
      vertex 0 24 -1.25
      vertex 0.131114 25.2475 -1.25
    endloop
  endfacet
  facet normal 0 0 -1
    outer loop
      vertex 0.131114 4.75253 -1.25
      vertex 0.131114 25.2475 -1.25
      vertex 0.518727 26.4404 -1.25
    endloop
  endfacet
  facet normal 0 0 -1
    outer loop
      vertex 0.131114 4.75253 -1.25
      vertex 0.518727 26.4404 -1.25
      vertex 1.1459 27.5267 -1.25
    endloop
  endfacet
  facet normal 0 0 -1
    outer loop
      vertex 0.131114 4.75253 -1.25
      vertex 1.1459 27.5267 -1.25
      vertex 1.98522 28.4589 -1.25
    endloop
  endfacet
  facet normal 0 0 -1
    outer loop
      vertex 0.131114 4.75253 -1.25
      vertex 1.98522 28.4589 -1.25
      vertex 3 29.1962 -1.25
    endloop
  endfacet
  facet normal 0 0 -1
    outer loop
      vertex 0.131114 4.75253 -1.25
      vertex 3 29.1962 -1.25
      vertex 4.1459 29.7063 -1.25
    endloop
  endfacet
  facet normal 0 0 -1
    outer loop
      vertex 0.131114 4.75253 -1.25
      vertex 4.1459 29.7063 -1.25
      vertex 5.37283 29.9671 -1.25
    endloop
  endfacet
  facet normal 0 0 -1
    outer loop
      vertex 18.75 26.7935 -1.25
      vertex 5.37283 29.9671 -1.25
      vertex 24.6272 29.9671 -1.25
    endloop
  endfacet
  facet normal 0 0 -1
    outer loop
      vertex 24 26.7321 -1.25
      vertex 25.8541 29.7063 -1.25
      vertex 27 29.1962 -1.25
    endloop
  endfacet
  facet normal 0 0 -1
    outer loop
      vertex 25.618 26.9021 -1.25
      vertex 27 29.1962 -1.25
      vertex 28.0148 28.4589 -1.25
    endloop
  endfacet
  facet normal 0 0 -1
    outer loop
      vertex 26.3383 26.4863 -1.25
      vertex 28.0148 28.4589 -1.25
      vertex 28.8541 27.5267 -1.25
    endloop
  endfacet
  facet normal 0 0 -1
    outer loop
      vertex 26.9563 25.4158 -1.25
      vertex 28.8541 27.5267 -1.25
      vertex 29.4813 26.4404 -1.25
    endloop
  endfacet
  facet normal 0 0 -1
    outer loop
      vertex 26.618 23.8244 -1.25
      vertex 29.4813 26.4404 -1.25
      vertex 29.8689 25.2475 -1.25
    endloop
  endfacet
  facet normal 0 0 -1
    outer loop
      vertex 24.2388 16.8703 -1.25
      vertex 30 24 -1.25
      vertex 30 6 -1.25
    endloop
  endfacet
  facet normal 0 0 -1
    outer loop
      vertex 18.75 3.80468 -1.25
      vertex 29.4813 3.55958 -1.25
      vertex 28.8541 2.47329 -1.25
    endloop
  endfacet
  facet normal 0 0 -1
    outer loop
      vertex 11.1732 3.80468 -1.25
      vertex 28.8541 2.47329 -1.25
      vertex 28.0148 1.54113 -1.25
    endloop
  endfacet
  facet normal 0 0 -1
    outer loop
      vertex 0.131114 4.75253 -1.25
      vertex 28.0148 1.54113 -1.25
      vertex 27 0.803848 -1.25
    endloop
  endfacet
  facet normal 0 0 -1
    outer loop
      vertex 0.131114 4.75253 -1.25
      vertex 27 0.803848 -1.25
      vertex 25.8541 0.293661 -1.25
    endloop
  endfacet
  facet normal 0 0 -1
    outer loop
      vertex 0.131114 4.75253 -1.25
      vertex 25.8541 0.293661 -1.25
      vertex 24.6272 0.032869 -1.25
    endloop
  endfacet
  facet normal 0 0 -1
    outer loop
      vertex 0.131114 4.75253 -1.25
      vertex 24.6272 0.032869 -1.25
      vertex 5.37283 0.032869 -1.25
    endloop
  endfacet
  facet normal 0 0 -1
    outer loop
      vertex 0.131114 4.75253 -1.25
      vertex 5.37283 0.032869 -1.25
      vertex 4.1459 0.293661 -1.25
    endloop
  endfacet
  facet normal 0 0 -1
    outer loop
      vertex 0.131114 4.75253 -1.25
      vertex 4.1459 0.293661 -1.25
      vertex 3 0.803848 -1.25
    endloop
  endfacet
  facet normal 0 0 -1
    outer loop
      vertex 0.131114 4.75253 -1.25
      vertex 3 0.803848 -1.25
      vertex 1.98522 1.54113 -1.25
    endloop
  endfacet
  facet normal 0 0 -1
    outer loop
      vertex 0.131114 4.75253 -1.25
      vertex 1.98522 1.54113 -1.25
      vertex 1.1459 2.47329 -1.25
    endloop
  endfacet
  facet normal 0 0 -1
    outer loop
      vertex 0.131114 4.75253 -1.25
      vertex 1.1459 2.47329 -1.25
      vertex 0.518727 3.55958 -1.25
    endloop
  endfacet
  facet normal 0 0 -1
    outer loop
      vertex 0.131114 4.75253 -1.25
      vertex 5.37283 29.9671 -1.25
      vertex 5.7612 16.8703 -1.25
    endloop
  endfacet
  facet normal 0 0 -1
    outer loop
      vertex 18.8268 22.2823 -1.25
      vertex 25.2091 23.011 -1.25
      vertex 24.2388 16.8703 -1.25
    endloop
  endfacet
  facet normal 0 0 -1
    outer loop
      vertex 11.25 3.80468 -1.25
      vertex 28.8541 2.47329 -1.25
      vertex 11.1732 3.80468 -1.25
    endloop
  endfacet
  facet normal 0 0 -1
    outer loop
      vertex 0.131114 4.75253 -1.25
      vertex 11.1732 3.80468 -1.25
      vertex 28.0148 1.54113 -1.25
    endloop
  endfacet
  facet normal 0 0 -1
    outer loop
      vertex 24.2388 9.21664 -1.25
      vertex 29.4813 3.55958 -1.25
      vertex 18.8268 3.80468 -1.25
    endloop
  endfacet
  facet normal 0 0 -1
    outer loop
      vertex 18.8268 22.2823 -1.25
      vertex 23.0437 25.4158 -1.25
      vertex 23 25 -1.25
    endloop
  endfacet
  facet normal 0 0 -1
    outer loop
      vertex 18.75 14.5968 -1.25
      vertex 11.25 11.4902 -1.25
      vertex 16.5533 16.7935 -1.25
    endloop
  endfacet
  facet normal 0 0 -1
    outer loop
      vertex 11.25 14.5968 -1.25
      vertex 16.5533 16.7935 -1.25
      vertex 11.25 11.4902 -1.25
    endloop
  endfacet
  facet normal 0 0 -1
    outer loop
      vertex 18.8268 22.2823 -1.25
      vertex 23 25 -1.25
      vertex 23.0437 24.5842 -1.25
    endloop
  endfacet
  facet normal 0 0 -1
    outer loop
      vertex 18.75 3.80468 -1.25
      vertex 11.25 11.4902 -1.25
      vertex 18.75 11.4902 -1.25
    endloop
  endfacet
  facet normal 0 0 -1
    outer loop
      vertex 18.8268 22.2823 -1.25
      vertex 23.1729 25.8135 -1.25
      vertex 23.0437 25.4158 -1.25
    endloop
  endfacet
  facet normal 0 0 -1
    outer loop
      vertex 11.25 11.4902 -1.25
      vertex 18.75 14.5968 -1.25
      vertex 18.75 11.4902 -1.25
    endloop
  endfacet
  facet normal 0 0 -1
    outer loop
      vertex 18.8268 3.80468 -1.25
      vertex 29.4813 3.55958 -1.25
      vertex 18.75 3.80468 -1.25
    endloop
  endfacet
  facet normal 0 0 -1
    outer loop
      vertex 24.2388 9.21664 -1.25
      vertex 29.8689 4.75253 -1.25
      vertex 29.4813 3.55958 -1.25
    endloop
  endfacet
  facet normal 0 0 -1
    outer loop
      vertex 11.25 11.4902 -1.25
      vertex 18.75 3.80468 -1.25
      vertex 11.25 3.80468 -1.25
    endloop
  endfacet
  facet normal 0 0 -1
    outer loop
      vertex 24.2388 9.21664 -1.25
      vertex 30 6 -1.25
      vertex 29.8689 4.75253 -1.25
    endloop
  endfacet
  facet normal 0 0 -1
    outer loop
      vertex 24.2388 16.8703 -1.25
      vertex 30 6 -1.25
      vertex 24.2388 9.21664 -1.25
    endloop
  endfacet
  facet normal 0 0 -1
    outer loop
      vertex 18.75 22.2823 -1.25
      vertex 25.8541 29.7063 -1.25
      vertex 18.8268 22.2823 -1.25
    endloop
  endfacet
  facet normal 0 0 -1
    outer loop
      vertex 11.25 26.7935 -1.25
      vertex 5.37283 29.9671 -1.25
      vertex 18.75 26.7935 -1.25
    endloop
  endfacet
  facet normal 0 0 -1
    outer loop
      vertex 26.3383 23.5137 -1.25
      vertex 29.8689 25.2475 -1.25
      vertex 26 23.2679 -1.25
    endloop
  endfacet
  facet normal 0 0 -1
    outer loop
      vertex 5.7612 16.8703 -1.25
      vertex 5.37283 29.9671 -1.25
      vertex 11.25 26.7935 -1.25
    endloop
  endfacet
  facet normal 0 0 -1
    outer loop
      vertex 11.1732 22.2823 -1.25
      vertex 11.25 26.7935 -1.25
      vertex 11.25 22.2823 -1.25
    endloop
  endfacet
  facet normal 0 0 -1
    outer loop
      vertex 5.7612 16.8703 -1.25
      vertex 11.25 26.7935 -1.25
      vertex 11.1732 22.2823 -1.25
    endloop
  endfacet
  facet normal 0 0 -1
    outer loop
      vertex 24.382 26.9021 -1.25
      vertex 27 29.1962 -1.25
      vertex 24.7909 26.989 -1.25
    endloop
  endfacet
  facet normal 0 0 -1
    outer loop
      vertex 18.8268 22.2823 -1.25
      vertex 23.6617 23.5137 -1.25
      vertex 24 23.2679 -1.25
    endloop
  endfacet
  facet normal 0 0 -1
    outer loop
      vertex 18.8268 22.2823 -1.25
      vertex 23.382 23.8244 -1.25
      vertex 23.6617 23.5137 -1.25
    endloop
  endfacet
  facet normal 0 0 -1
    outer loop
      vertex 26.618 26.1756 -1.25
      vertex 28.8541 27.5267 -1.25
      vertex 26.8271 25.8135 -1.25
    endloop
  endfacet
  facet normal 0 0 -1
    outer loop
      vertex 25.618 23.0979 -1.25
      vertex 26 23.2679 -1.25
      vertex 30 24 -1.25
    endloop
  endfacet
  facet normal 0 0 -1
    outer loop
      vertex 26 23.2679 -1.25
      vertex 29.8689 25.2475 -1.25
      vertex 30 24 -1.25
    endloop
  endfacet
  facet normal 0 0 -1
    outer loop
      vertex 26.618 23.8244 -1.25
      vertex 29.8689 25.2475 -1.25
      vertex 26.3383 23.5137 -1.25
    endloop
  endfacet
  facet normal 0 0 -1
    outer loop
      vertex 26.8271 24.1865 -1.25
      vertex 29.4813 26.4404 -1.25
      vertex 26.618 23.8244 -1.25
    endloop
  endfacet
  facet normal 0 0 -1
    outer loop
      vertex 26.9563 24.5842 -1.25
      vertex 29.4813 26.4404 -1.25
      vertex 26.8271 24.1865 -1.25
    endloop
  endfacet
  facet normal 0 0 -1
    outer loop
      vertex 18.8268 22.2823 -1.25
      vertex 24.7909 23.011 -1.25
      vertex 25.2091 23.011 -1.25
    endloop
  endfacet
  facet normal 0 0 -1
    outer loop
      vertex 26.9563 25.4158 -1.25
      vertex 29.4813 26.4404 -1.25
      vertex 27 25 -1.25
    endloop
  endfacet
  facet normal 0 0 -1
    outer loop
      vertex 26.8271 25.8135 -1.25
      vertex 28.8541 27.5267 -1.25
      vertex 26.9563 25.4158 -1.25
    endloop
  endfacet
  facet normal 0 0 -1
    outer loop
      vertex 25.2091 23.011 -1.25
      vertex 30 24 -1.25
      vertex 24.2388 16.8703 -1.25
    endloop
  endfacet
  facet normal 0 0 -1
    outer loop
      vertex 25.2091 23.011 -1.25
      vertex 25.618 23.0979 -1.25
      vertex 30 24 -1.25
    endloop
  endfacet
  facet normal 0 0 -1
    outer loop
      vertex 26.3383 26.4863 -1.25
      vertex 28.8541 27.5267 -1.25
      vertex 26.618 26.1756 -1.25
    endloop
  endfacet
  facet normal 0 0 -1
    outer loop
      vertex 26 26.7321 -1.25
      vertex 28.0148 28.4589 -1.25
      vertex 26.3383 26.4863 -1.25
    endloop
  endfacet
  facet normal 0 0 -1
    outer loop
      vertex 11.1732 3.80468 -1.25
      vertex 0.131114 4.75253 -1.25
      vertex 5.7612 9.21664 -1.25
    endloop
  endfacet
  facet normal 0 0 -1
    outer loop
      vertex 25.2091 26.989 -1.25
      vertex 27 29.1962 -1.25
      vertex 25.618 26.9021 -1.25
    endloop
  endfacet
  facet normal 0 0 -1
    outer loop
      vertex 24.7909 26.989 -1.25
      vertex 27 29.1962 -1.25
      vertex 25.2091 26.989 -1.25
    endloop
  endfacet
  facet normal 0 0 -1
    outer loop
      vertex 18.8268 22.2823 -1.25
      vertex 24 23.2679 -1.25
      vertex 24.382 23.0979 -1.25
    endloop
  endfacet
  facet normal 0 0 -1
    outer loop
      vertex 23.6617 26.4863 -1.25
      vertex 25.8541 29.7063 -1.25
      vertex 24 26.7321 -1.25
    endloop
  endfacet
  facet normal 0 0 -1
    outer loop
      vertex 23.382 26.1756 -1.25
      vertex 18.8268 22.2823 -1.25
      vertex 23.6617 26.4863 -1.25
    endloop
  endfacet
  facet normal 0 0 -1
    outer loop
      vertex 18.8268 22.2823 -1.25
      vertex 25.8541 29.7063 -1.25
      vertex 23.6617 26.4863 -1.25
    endloop
  endfacet
  facet normal 0 0 -1
    outer loop
      vertex 23.1729 25.8135 -1.25
      vertex 18.8268 22.2823 -1.25
      vertex 23.382 26.1756 -1.25
    endloop
  endfacet
  facet normal 0 0 -1
    outer loop
      vertex 27 25 -1.25
      vertex 29.4813 26.4404 -1.25
      vertex 26.9563 24.5842 -1.25
    endloop
  endfacet
  facet normal 0 0 -1
    outer loop
      vertex 18.8268 22.2823 -1.25
      vertex 24.382 23.0979 -1.25
      vertex 24.7909 23.011 -1.25
    endloop
  endfacet
  facet normal 0 0 -1
    outer loop
      vertex 5.7612 9.21664 -1.25
      vertex 0.131114 4.75253 -1.25
      vertex 5.7612 16.8703 -1.25
    endloop
  endfacet
  facet normal 0 0 -1
    outer loop
      vertex 24 26.7321 -1.25
      vertex 27 29.1962 -1.25
      vertex 24.382 26.9021 -1.25
    endloop
  endfacet
  facet normal 0 0 -1
    outer loop
      vertex 18.75 26.7935 -1.25
      vertex 25.8541 29.7063 -1.25
      vertex 18.75 22.2823 -1.25
    endloop
  endfacet
  facet normal 0 0 -1
    outer loop
      vertex 18.75 26.7935 -1.25
      vertex 24.6272 29.9671 -1.25
      vertex 25.8541 29.7063 -1.25
    endloop
  endfacet
  facet normal 0 0 -1
    outer loop
      vertex 18.8268 22.2823 -1.25
      vertex 23.1729 24.1865 -1.25
      vertex 23.382 23.8244 -1.25
    endloop
  endfacet
  facet normal 0 0 -1
    outer loop
      vertex 16.5533 16.7935 -1.25
      vertex 11.25 14.5968 -1.25
      vertex 13.4467 16.7935 -1.25
    endloop
  endfacet
  facet normal 0 0 -1
    outer loop
      vertex 25.618 26.9021 -1.25
      vertex 28.0148 28.4589 -1.25
      vertex 26 26.7321 -1.25
    endloop
  endfacet
  facet normal 0 0 -1
    outer loop
      vertex 18.8268 22.2823 -1.25
      vertex 23.0437 24.5842 -1.25
      vertex 23.1729 24.1865 -1.25
    endloop
  endfacet
  facet normal 0 0 -1
    outer loop
      vertex 18.75 3.80468 -1.25
      vertex 28.8541 2.47329 -1.25
      vertex 11.25 3.80468 -1.25
    endloop
  endfacet
  facet normal -1 0 0
    outer loop
      vertex 0 6 -1.25
      vertex 0 6 1.25
      vertex 0 24 -1.25
    endloop
  endfacet
  facet normal -1 0 0
    outer loop
      vertex 0 24 -1.25
      vertex 0 6 1.25
      vertex 0 24 1.25
    endloop
  endfacet
  facet normal 0 0 1
    outer loop
      vertex 0 24 1.25
      vertex 0 6 1.25
      vertex 0.131114 4.75253 1.25
    endloop
  endfacet
  facet normal 0 0 1
    outer loop
      vertex 1.1459 2.47329 1.25
      vertex 0 24 1.25
      vertex 0.518727 3.55958 1.25
    endloop
  endfacet
  facet normal 0 0 1
    outer loop
      vertex 0.518727 3.55958 1.25
      vertex 0 24 1.25
      vertex 0.131114 4.75253 1.25
    endloop
  endfacet
  facet normal 0 0 1
    outer loop
      vertex 1.98522 1.54113 1.25
      vertex 0 24 1.25
      vertex 1.1459 2.47329 1.25
    endloop
  endfacet
  facet normal 0 0 1
    outer loop
      vertex 3 0.803848 1.25
      vertex 0 24 1.25
      vertex 1.98522 1.54113 1.25
    endloop
  endfacet
  facet normal 0 0 1
    outer loop
      vertex 4.1459 0.293661 1.25
      vertex 0 24 1.25
      vertex 3 0.803848 1.25
    endloop
  endfacet
  facet normal 0 0 1
    outer loop
      vertex 5.37283 0.032869 1.25
      vertex 0 24 1.25
      vertex 4.1459 0.293661 1.25
    endloop
  endfacet
  facet normal 0 0 1
    outer loop
      vertex 5.7612 9.21664 1.25
      vertex 0 24 1.25
      vertex 5.37283 0.032869 1.25
    endloop
  endfacet
  facet normal 0 0 1
    outer loop
      vertex 24.2388 9.21664 1.25
      vertex 28.8541 2.47329 1.25
      vertex 29.4813 3.55958 1.25
    endloop
  endfacet
  facet normal 0 0 1
    outer loop
      vertex 24.2388 9.21664 1.25
      vertex 28.0148 1.54113 1.25
      vertex 28.8541 2.47329 1.25
    endloop
  endfacet
  facet normal 0 0 1
    outer loop
      vertex 24.2388 9.21664 1.25
      vertex 27 0.803848 1.25
      vertex 28.0148 1.54113 1.25
    endloop
  endfacet
  facet normal 0 0 1
    outer loop
      vertex 24.2388 9.21664 1.25
      vertex 25.8541 0.293661 1.25
      vertex 27 0.803848 1.25
    endloop
  endfacet
  facet normal 0 0 1
    outer loop
      vertex 24.2388 9.21664 1.25
      vertex 24.6272 0.032869 1.25
      vertex 25.8541 0.293661 1.25
    endloop
  endfacet
  facet normal 0 0 1
    outer loop
      vertex 18.75 26.7935 1.25
      vertex 24.382 26.9021 1.25
      vertex 24.7909 26.989 1.25
    endloop
  endfacet
  facet normal 0 0 1
    outer loop
      vertex 11.25 26.7935 1.25
      vertex 18.75 26.7935 1.25
      vertex 28.0148 28.4589 1.25
    endloop
  endfacet
  facet normal 0 0 1
    outer loop
      vertex 24.382 23.0979 1.25
      vertex 18.75 22.2823 1.25
      vertex 18.8268 22.2823 1.25
    endloop
  endfacet
  facet normal 0 0 1
    outer loop
      vertex 18.75 26.7935 1.25
      vertex 23.0437 25.4158 1.25
      vertex 23.1729 25.8135 1.25
    endloop
  endfacet
  facet normal 0 0 1
    outer loop
      vertex 18.75 26.7935 1.25
      vertex 23.382 26.1756 1.25
      vertex 23.6617 26.4863 1.25
    endloop
  endfacet
  facet normal 0 0 1
    outer loop
      vertex 18.75 26.7935 1.25
      vertex 23.6617 26.4863 1.25
      vertex 24 26.7321 1.25
    endloop
  endfacet
  facet normal 0 0 1
    outer loop
      vertex 4.1459 29.7063 1.25
      vertex 0 24 1.25
      vertex 5.37283 29.9671 1.25
    endloop
  endfacet
  facet normal 0 0 1
    outer loop
      vertex 3 29.1962 1.25
      vertex 0 24 1.25
      vertex 4.1459 29.7063 1.25
    endloop
  endfacet
  facet normal 0 0 1
    outer loop
      vertex 1.98522 28.4589 1.25
      vertex 0 24 1.25
      vertex 3 29.1962 1.25
    endloop
  endfacet
  facet normal 0 0 1
    outer loop
      vertex 1.1459 27.5267 1.25
      vertex 0 24 1.25
      vertex 1.98522 28.4589 1.25
    endloop
  endfacet
  facet normal 0 0 1
    outer loop
      vertex 0.518727 26.4404 1.25
      vertex 0 24 1.25
      vertex 1.1459 27.5267 1.25
    endloop
  endfacet
  facet normal 0 0 1
    outer loop
      vertex 0.131114 25.2475 1.25
      vertex 0 24 1.25
      vertex 0.518727 26.4404 1.25
    endloop
  endfacet
  facet normal 0 0 1
    outer loop
      vertex 11.1732 3.80468 1.25
      vertex 5.7612 9.21664 1.25
      vertex 5.37283 0.032869 1.25
    endloop
  endfacet
  facet normal 0 0 1
    outer loop
      vertex 5.7612 16.8703 1.25
      vertex 0 24 1.25
      vertex 5.7612 9.21664 1.25
    endloop
  endfacet
  facet normal 0 0 1
    outer loop
      vertex 18.75 11.4902 1.25
      vertex 18.75 14.5968 1.25
      vertex 13.4467 16.7935 1.25
    endloop
  endfacet
  facet normal 0 0 1
    outer loop
      vertex 5.37283 29.9671 1.25
      vertex 11.25 26.7935 1.25
      vertex 24.6272 29.9671 1.25
    endloop
  endfacet
  facet normal 0 0 1
    outer loop
      vertex 5.37283 29.9671 1.25
      vertex 0 24 1.25
      vertex 11.25 26.7935 1.25
    endloop
  endfacet
  facet normal 0 0 1
    outer loop
      vertex 28.0148 28.4589 1.25
      vertex 18.75 26.7935 1.25
      vertex 28.8541 27.5267 1.25
    endloop
  endfacet
  facet normal 0 0 1
    outer loop
      vertex 18.75 26.7935 1.25
      vertex 23.1729 25.8135 1.25
      vertex 23.382 26.1756 1.25
    endloop
  endfacet
  facet normal 0 0 1
    outer loop
      vertex 30 24 1.25
      vertex 24.2388 16.8703 1.25
      vertex 30 6 1.25
    endloop
  endfacet
  facet normal 0 0 1
    outer loop
      vertex 25.2091 23.011 1.25
      vertex 18.8268 22.2823 1.25
      vertex 24.2388 16.8703 1.25
    endloop
  endfacet
  facet normal 0 0 1
    outer loop
      vertex 30 6 1.25
      vertex 24.2388 9.21664 1.25
      vertex 29.8689 4.75253 1.25
    endloop
  endfacet
  facet normal 0 0 1
    outer loop
      vertex 18.75 26.7935 1.25
      vertex 24.7909 26.989 1.25
      vertex 28.8541 27.5267 1.25
    endloop
  endfacet
  facet normal 0 0 1
    outer loop
      vertex 11.25 11.4902 1.25
      vertex 11.25 3.80468 1.25
      vertex 18.75 3.80468 1.25
    endloop
  endfacet
  facet normal 0 0 1
    outer loop
      vertex 24.7909 26.989 1.25
      vertex 25.2091 26.989 1.25
      vertex 28.8541 27.5267 1.25
    endloop
  endfacet
  facet normal 0 0 1
    outer loop
      vertex 24.6272 0.032869 1.25
      vertex 18.8268 3.80468 1.25
      vertex 18.75 3.80468 1.25
    endloop
  endfacet
  facet normal 0 0 1
    outer loop
      vertex 24.2388 9.21664 1.25
      vertex 18.8268 3.80468 1.25
      vertex 24.6272 0.032869 1.25
    endloop
  endfacet
  facet normal 0 0 1
    outer loop
      vertex 18.75 26.7935 1.25
      vertex 24 26.7321 1.25
      vertex 24.382 26.9021 1.25
    endloop
  endfacet
  facet normal 0 0 1
    outer loop
      vertex 11.25 26.7935 1.25
      vertex 27 29.1962 1.25
      vertex 25.8541 29.7063 1.25
    endloop
  endfacet
  facet normal 0 0 1
    outer loop
      vertex 11.25 26.7935 1.25
      vertex 25.8541 29.7063 1.25
      vertex 24.6272 29.9671 1.25
    endloop
  endfacet
  facet normal 0 0 1
    outer loop
      vertex 11.25 26.7935 1.25
      vertex 28.0148 28.4589 1.25
      vertex 27 29.1962 1.25
    endloop
  endfacet
  facet normal 0 0 1
    outer loop
      vertex 18.75 3.80468 1.25
      vertex 18.75 11.4902 1.25
      vertex 13.4467 16.7935 1.25
    endloop
  endfacet
  facet normal 0 0 1
    outer loop
      vertex 18.75 3.80468 1.25
      vertex 11.25 3.80468 1.25
      vertex 24.6272 0.032869 1.25
    endloop
  endfacet
  facet normal 0 0 1
    outer loop
      vertex 26.618 26.1756 1.25
      vertex 26.8271 25.8135 1.25
      vertex 29.4813 26.4404 1.25
    endloop
  endfacet
  facet normal 0 0 1
    outer loop
      vertex 25.618 26.9021 1.25
      vertex 26 26.7321 1.25
      vertex 28.8541 27.5267 1.25
    endloop
  endfacet
  facet normal 0 0 1
    outer loop
      vertex 24.6272 0.032869 1.25
      vertex 11.25 3.80468 1.25
      vertex 5.37283 0.032869 1.25
    endloop
  endfacet
  facet normal 0 0 1
    outer loop
      vertex 11.25 3.80468 1.25
      vertex 11.1732 3.80468 1.25
      vertex 5.37283 0.032869 1.25
    endloop
  endfacet
  facet normal 0 0 1
    outer loop
      vertex 26.8271 24.1865 1.25
      vertex 26.618 23.8244 1.25
      vertex 30 24 1.25
    endloop
  endfacet
  facet normal 0 0 1
    outer loop
      vertex 27 25 1.25
      vertex 26.9563 24.5842 1.25
      vertex 29.8689 25.2475 1.25
    endloop
  endfacet
  facet normal 0 0 1
    outer loop
      vertex 26.9563 25.4158 1.25
      vertex 27 25 1.25
      vertex 29.8689 25.2475 1.25
    endloop
  endfacet
  facet normal 0 0 1
    outer loop
      vertex 18.75 26.7935 1.25
      vertex 18.75 22.2823 1.25
      vertex 24 23.2679 1.25
    endloop
  endfacet
  facet normal 0 0 1
    outer loop
      vertex 18.75 26.7935 1.25
      vertex 24 23.2679 1.25
      vertex 23.6617 23.5137 1.25
    endloop
  endfacet
  facet normal 0 0 1
    outer loop
      vertex 18.75 26.7935 1.25
      vertex 23.6617 23.5137 1.25
      vertex 23.382 23.8244 1.25
    endloop
  endfacet
  facet normal 0 0 1
    outer loop
      vertex 26.3383 26.4863 1.25
      vertex 26.618 26.1756 1.25
      vertex 29.4813 26.4404 1.25
    endloop
  endfacet
  facet normal 0 0 1
    outer loop
      vertex 18.75 26.7935 1.25
      vertex 23.382 23.8244 1.25
      vertex 23.1729 24.1865 1.25
    endloop
  endfacet
  facet normal 0 0 1
    outer loop
      vertex 18.75 26.7935 1.25
      vertex 23.1729 24.1865 1.25
      vertex 23.0437 24.5842 1.25
    endloop
  endfacet
  facet normal 0 0 1
    outer loop
      vertex 18.75 26.7935 1.25
      vertex 23.0437 24.5842 1.25
      vertex 23 25 1.25
    endloop
  endfacet
  facet normal 0 0 1
    outer loop
      vertex 25.2091 26.989 1.25
      vertex 25.618 26.9021 1.25
      vertex 28.8541 27.5267 1.25
    endloop
  endfacet
  facet normal 0 0 1
    outer loop
      vertex 18.75 26.7935 1.25
      vertex 23 25 1.25
      vertex 23.0437 25.4158 1.25
    endloop
  endfacet
  facet normal 0 0 1
    outer loop
      vertex 28.8541 27.5267 1.25
      vertex 26 26.7321 1.25
      vertex 29.4813 26.4404 1.25
    endloop
  endfacet
  facet normal 0 0 1
    outer loop
      vertex 26 26.7321 1.25
      vertex 26.3383 26.4863 1.25
      vertex 29.4813 26.4404 1.25
    endloop
  endfacet
  facet normal 0 0 1
    outer loop
      vertex 26.3383 23.5137 1.25
      vertex 26 23.2679 1.25
      vertex 30 24 1.25
    endloop
  endfacet
  facet normal 0 0 1
    outer loop
      vertex 29.4813 26.4404 1.25
      vertex 26.8271 25.8135 1.25
      vertex 29.8689 25.2475 1.25
    endloop
  endfacet
  facet normal 0 0 1
    outer loop
      vertex 26.8271 25.8135 1.25
      vertex 26.9563 25.4158 1.25
      vertex 29.8689 25.2475 1.25
    endloop
  endfacet
  facet normal 0 0 1
    outer loop
      vertex 26.9563 24.5842 1.25
      vertex 26.8271 24.1865 1.25
      vertex 30 24 1.25
    endloop
  endfacet
  facet normal 0 0 1
    outer loop
      vertex 29.8689 25.2475 1.25
      vertex 26.9563 24.5842 1.25
      vertex 30 24 1.25
    endloop
  endfacet
  facet normal 0 0 1
    outer loop
      vertex 30 24 1.25
      vertex 26 23.2679 1.25
      vertex 24.2388 16.8703 1.25
    endloop
  endfacet
  facet normal 0 0 1
    outer loop
      vertex 26 23.2679 1.25
      vertex 25.618 23.0979 1.25
      vertex 24.2388 16.8703 1.25
    endloop
  endfacet
  facet normal 0 0 1
    outer loop
      vertex 25.618 23.0979 1.25
      vertex 25.2091 23.011 1.25
      vertex 24.2388 16.8703 1.25
    endloop
  endfacet
  facet normal 0 0 1
    outer loop
      vertex 24.7909 23.011 1.25
      vertex 24.382 23.0979 1.25
      vertex 18.8268 22.2823 1.25
    endloop
  endfacet
  facet normal 0 0 1
    outer loop
      vertex 24.382 23.0979 1.25
      vertex 24 23.2679 1.25
      vertex 18.75 22.2823 1.25
    endloop
  endfacet
  facet normal 0 0 1
    outer loop
      vertex 25.2091 23.011 1.25
      vertex 24.7909 23.011 1.25
      vertex 18.8268 22.2823 1.25
    endloop
  endfacet
  facet normal 0 0 1
    outer loop
      vertex 16.5533 16.7935 1.25
      vertex 13.4467 16.7935 1.25
      vertex 18.75 14.5968 1.25
    endloop
  endfacet
  facet normal 0 0 1
    outer loop
      vertex 18.75 3.80468 1.25
      vertex 13.4467 16.7935 1.25
      vertex 11.25 14.5968 1.25
    endloop
  endfacet
  facet normal 0 0 1
    outer loop
      vertex 18.75 3.80468 1.25
      vertex 11.25 14.5968 1.25
      vertex 11.25 11.4902 1.25
    endloop
  endfacet
  facet normal 0 0 1
    outer loop
      vertex 5.7612 16.8703 1.25
      vertex 11.1732 22.2823 1.25
      vertex 0 24 1.25
    endloop
  endfacet
  facet normal 0 0 1
    outer loop
      vertex 24.2388 9.21664 1.25
      vertex 29.4813 3.55958 1.25
      vertex 29.8689 4.75253 1.25
    endloop
  endfacet
  facet normal 0 0 1
    outer loop
      vertex 26.618 23.8244 1.25
      vertex 26.3383 23.5137 1.25
      vertex 30 24 1.25
    endloop
  endfacet
  facet normal 0 0 1
    outer loop
      vertex 24.2388 16.8703 1.25
      vertex 24.2388 9.21664 1.25
      vertex 30 6 1.25
    endloop
  endfacet
  facet normal 0 0 1
    outer loop
      vertex 11.25 22.2823 1.25
      vertex 0 24 1.25
      vertex 11.1732 22.2823 1.25
    endloop
  endfacet
  facet normal 0 0 1
    outer loop
      vertex 11.25 22.2823 1.25
      vertex 11.25 26.7935 1.25
      vertex 0 24 1.25
    endloop
  endfacet
  facet normal -0.951057 -0.309017 0
    outer loop
      vertex 0.131114 4.75253 -1.25
      vertex 0.518727 3.55958 -1.25
      vertex 0.131114 4.75253 1.25
    endloop
  endfacet
  facet normal -0.951057 -0.309017 0
    outer loop
      vertex 0.131114 4.75253 1.25
      vertex 0.518727 3.55958 -1.25
      vertex 0.518727 3.55958 1.25
    endloop
  endfacet
  facet normal -0.866025 -0.5 0
    outer loop
      vertex 0.518727 3.55958 -1.25
      vertex 1.1459 2.47329 -1.25
      vertex 0.518727 3.55958 1.25
    endloop
  endfacet
  facet normal -0.866025 -0.5 0
    outer loop
      vertex 0.518727 3.55958 1.25
      vertex 1.1459 2.47329 -1.25
      vertex 1.1459 2.47329 1.25
    endloop
  endfacet
  facet normal -0.743145 -0.669131 0
    outer loop
      vertex 1.1459 2.47329 -1.25
      vertex 1.98522 1.54113 -1.25
      vertex 1.1459 2.47329 1.25
    endloop
  endfacet
  facet normal -0.743145 -0.669131 0
    outer loop
      vertex 1.1459 2.47329 1.25
      vertex 1.98522 1.54113 -1.25
      vertex 1.98522 1.54113 1.25
    endloop
  endfacet
  facet normal -0.587785 -0.809017 0
    outer loop
      vertex 1.98522 1.54113 1.25
      vertex 1.98522 1.54113 -1.25
      vertex 3 0.803848 -1.25
    endloop
  endfacet
  facet normal -0.587785 -0.809017 0
    outer loop
      vertex 3 0.803848 1.25
      vertex 1.98522 1.54113 1.25
      vertex 3 0.803848 -1.25
    endloop
  endfacet
  facet normal -0.406737 -0.913545 0
    outer loop
      vertex 3 0.803848 1.25
      vertex 3 0.803848 -1.25
      vertex 4.1459 0.293661 -1.25
    endloop
  endfacet
  facet normal -0.406737 -0.913545 0
    outer loop
      vertex 4.1459 0.293661 1.25
      vertex 3 0.803848 1.25
      vertex 4.1459 0.293661 -1.25
    endloop
  endfacet
  facet normal -0.207912 -0.978148 0
    outer loop
      vertex 4.1459 0.293661 1.25
      vertex 4.1459 0.293661 -1.25
      vertex 5.37283 0.032869 -1.25
    endloop
  endfacet
  facet normal -0.207912 -0.978148 0
    outer loop
      vertex 5.37283 0.032869 1.25
      vertex 4.1459 0.293661 1.25
      vertex 5.37283 0.032869 -1.25
    endloop
  endfacet
  facet normal 0 -1 0
    outer loop
      vertex 5.37283 0.032869 1.25
      vertex 5.37283 0.032869 -1.25
      vertex 24.6272 0.032869 -1.25
    endloop
  endfacet
  facet normal 0 -1 0
    outer loop
      vertex 24.6272 0.032869 1.25
      vertex 5.37283 0.032869 1.25
      vertex 24.6272 0.032869 -1.25
    endloop
  endfacet
  facet normal 0.207912 -0.978148 0
    outer loop
      vertex 24.6272 0.032869 1.25
      vertex 24.6272 0.032869 -1.25
      vertex 25.8541 0.293661 -1.25
    endloop
  endfacet
  facet normal 0.207912 -0.978148 0
    outer loop
      vertex 25.8541 0.293661 1.25
      vertex 24.6272 0.032869 1.25
      vertex 25.8541 0.293661 -1.25
    endloop
  endfacet
  facet normal 0.406737 -0.913545 0
    outer loop
      vertex 25.8541 0.293661 1.25
      vertex 25.8541 0.293661 -1.25
      vertex 27 0.803848 -1.25
    endloop
  endfacet
  facet normal 0.406737 -0.913545 0
    outer loop
      vertex 27 0.803848 1.25
      vertex 25.8541 0.293661 1.25
      vertex 27 0.803848 -1.25
    endloop
  endfacet
  facet normal 0.587785 -0.809017 0
    outer loop
      vertex 27 0.803848 1.25
      vertex 27 0.803848 -1.25
      vertex 28.0148 1.54113 -1.25
    endloop
  endfacet
  facet normal 0.587785 -0.809017 0
    outer loop
      vertex 28.0148 1.54113 1.25
      vertex 27 0.803848 1.25
      vertex 28.0148 1.54113 -1.25
    endloop
  endfacet
  facet normal 0.743145 -0.669131 0
    outer loop
      vertex 28.0148 1.54113 1.25
      vertex 28.0148 1.54113 -1.25
      vertex 28.8541 2.47329 -1.25
    endloop
  endfacet
  facet normal 0.743145 -0.669131 0
    outer loop
      vertex 28.8541 2.47329 1.25
      vertex 28.0148 1.54113 1.25
      vertex 28.8541 2.47329 -1.25
    endloop
  endfacet
  facet normal 0.866025 -0.5 0
    outer loop
      vertex 28.8541 2.47329 1.25
      vertex 28.8541 2.47329 -1.25
      vertex 29.4813 3.55958 -1.25
    endloop
  endfacet
  facet normal 0.866025 -0.5 0
    outer loop
      vertex 29.4813 3.55958 1.25
      vertex 28.8541 2.47329 1.25
      vertex 29.4813 3.55958 -1.25
    endloop
  endfacet
  facet normal 0.951057 -0.309017 0
    outer loop
      vertex 29.4813 3.55958 1.25
      vertex 29.4813 3.55958 -1.25
      vertex 29.8689 4.75253 -1.25
    endloop
  endfacet
  facet normal 0.951057 -0.309017 0
    outer loop
      vertex 29.8689 4.75253 1.25
      vertex 29.4813 3.55958 1.25
      vertex 29.8689 4.75253 -1.25
    endloop
  endfacet
  facet normal 0.994522 -0.104528 0
    outer loop
      vertex 29.8689 4.75253 1.25
      vertex 29.8689 4.75253 -1.25
      vertex 30 6 -1.25
    endloop
  endfacet
  facet normal 0.994522 -0.104528 0
    outer loop
      vertex 30 6 1.25
      vertex 29.8689 4.75253 1.25
      vertex 30 6 -1.25
    endloop
  endfacet
  facet normal 1 0 0
    outer loop
      vertex 30 6 1.25
      vertex 30 6 -1.25
      vertex 30 24 -1.25
    endloop
  endfacet
  facet normal 1 0 0
    outer loop
      vertex 30 24 1.25
      vertex 30 6 1.25
      vertex 30 24 -1.25
    endloop
  endfacet
  facet normal 0.994522 0.104528 0
    outer loop
      vertex 30 24 -1.25
      vertex 29.8689 25.2475 -1.25
      vertex 29.8689 25.2475 1.25
    endloop
  endfacet
  facet normal 0.994522 0.104528 0
    outer loop
      vertex 30 24 1.25
      vertex 30 24 -1.25
      vertex 29.8689 25.2475 1.25
    endloop
  endfacet
  facet normal 0.951057 0.309017 0
    outer loop
      vertex 29.8689 25.2475 -1.25
      vertex 29.4813 26.4404 -1.25
      vertex 29.4813 26.4404 1.25
    endloop
  endfacet
  facet normal 0.951057 0.309017 0
    outer loop
      vertex 29.8689 25.2475 1.25
      vertex 29.8689 25.2475 -1.25
      vertex 29.4813 26.4404 1.25
    endloop
  endfacet
  facet normal 0.866025 0.5 0
    outer loop
      vertex 29.4813 26.4404 -1.25
      vertex 28.8541 27.5267 -1.25
      vertex 28.8541 27.5267 1.25
    endloop
  endfacet
  facet normal 0.866025 0.5 0
    outer loop
      vertex 29.4813 26.4404 1.25
      vertex 29.4813 26.4404 -1.25
      vertex 28.8541 27.5267 1.25
    endloop
  endfacet
  facet normal 0.743145 0.669131 0
    outer loop
      vertex 28.8541 27.5267 -1.25
      vertex 28.0148 28.4589 -1.25
      vertex 28.0148 28.4589 1.25
    endloop
  endfacet
  facet normal 0.743145 0.669131 0
    outer loop
      vertex 28.8541 27.5267 1.25
      vertex 28.8541 27.5267 -1.25
      vertex 28.0148 28.4589 1.25
    endloop
  endfacet
  facet normal 0.587785 0.809017 0
    outer loop
      vertex 27 29.1962 -1.25
      vertex 27 29.1962 1.25
      vertex 28.0148 28.4589 -1.25
    endloop
  endfacet
  facet normal 0.587785 0.809017 0
    outer loop
      vertex 28.0148 28.4589 -1.25
      vertex 27 29.1962 1.25
      vertex 28.0148 28.4589 1.25
    endloop
  endfacet
  facet normal 0.406737 0.913545 0
    outer loop
      vertex 25.8541 29.7063 -1.25
      vertex 25.8541 29.7063 1.25
      vertex 27 29.1962 -1.25
    endloop
  endfacet
  facet normal 0.406737 0.913545 0
    outer loop
      vertex 27 29.1962 -1.25
      vertex 25.8541 29.7063 1.25
      vertex 27 29.1962 1.25
    endloop
  endfacet
  facet normal 0.207912 0.978148 0
    outer loop
      vertex 24.6272 29.9671 -1.25
      vertex 24.6272 29.9671 1.25
      vertex 25.8541 29.7063 -1.25
    endloop
  endfacet
  facet normal 0.207912 0.978148 0
    outer loop
      vertex 25.8541 29.7063 -1.25
      vertex 24.6272 29.9671 1.25
      vertex 25.8541 29.7063 1.25
    endloop
  endfacet
  facet normal 0 1 0
    outer loop
      vertex 5.37283 29.9671 -1.25
      vertex 5.37283 29.9671 1.25
      vertex 24.6272 29.9671 -1.25
    endloop
  endfacet
  facet normal 0 1 0
    outer loop
      vertex 24.6272 29.9671 -1.25
      vertex 5.37283 29.9671 1.25
      vertex 24.6272 29.9671 1.25
    endloop
  endfacet
  facet normal -0.207912 0.978148 0
    outer loop
      vertex 4.1459 29.7063 -1.25
      vertex 4.1459 29.7063 1.25
      vertex 5.37283 29.9671 -1.25
    endloop
  endfacet
  facet normal -0.207912 0.978148 0
    outer loop
      vertex 5.37283 29.9671 -1.25
      vertex 4.1459 29.7063 1.25
      vertex 5.37283 29.9671 1.25
    endloop
  endfacet
  facet normal -0.406737 0.913545 0
    outer loop
      vertex 3 29.1962 -1.25
      vertex 3 29.1962 1.25
      vertex 4.1459 29.7063 -1.25
    endloop
  endfacet
  facet normal -0.406737 0.913545 0
    outer loop
      vertex 4.1459 29.7063 -1.25
      vertex 3 29.1962 1.25
      vertex 4.1459 29.7063 1.25
    endloop
  endfacet
  facet normal -0.587785 0.809017 0
    outer loop
      vertex 1.98522 28.4589 -1.25
      vertex 1.98522 28.4589 1.25
      vertex 3 29.1962 -1.25
    endloop
  endfacet
  facet normal -0.587785 0.809017 0
    outer loop
      vertex 3 29.1962 -1.25
      vertex 1.98522 28.4589 1.25
      vertex 3 29.1962 1.25
    endloop
  endfacet
  facet normal -0.743145 0.669131 0
    outer loop
      vertex 1.1459 27.5267 -1.25
      vertex 1.1459 27.5267 1.25
      vertex 1.98522 28.4589 -1.25
    endloop
  endfacet
  facet normal -0.743145 0.669131 0
    outer loop
      vertex 1.98522 28.4589 -1.25
      vertex 1.1459 27.5267 1.25
      vertex 1.98522 28.4589 1.25
    endloop
  endfacet
  facet normal -0.866025 0.5 0
    outer loop
      vertex 0.518727 26.4404 -1.25
      vertex 0.518727 26.4404 1.25
      vertex 1.1459 27.5267 -1.25
    endloop
  endfacet
  facet normal -0.866025 0.5 0
    outer loop
      vertex 1.1459 27.5267 -1.25
      vertex 0.518727 26.4404 1.25
      vertex 1.1459 27.5267 1.25
    endloop
  endfacet
  facet normal -0.951057 0.309017 0
    outer loop
      vertex 0.131114 25.2475 -1.25
      vertex 0.131114 25.2475 1.25
      vertex 0.518727 26.4404 -1.25
    endloop
  endfacet
  facet normal -0.951057 0.309017 0
    outer loop
      vertex 0.518727 26.4404 -1.25
      vertex 0.131114 25.2475 1.25
      vertex 0.518727 26.4404 1.25
    endloop
  endfacet
  facet normal -0.994522 0.104528 0
    outer loop
      vertex 0 24 -1.25
      vertex 0 24 1.25
      vertex 0.131114 25.2475 -1.25
    endloop
  endfacet
  facet normal -0.994522 0.104528 0
    outer loop
      vertex 0.131114 25.2475 -1.25
      vertex 0 24 1.25
      vertex 0.131114 25.2475 1.25
    endloop
  endfacet
  facet normal 0.707107 -0.707107 0
    outer loop
      vertex 11.1732 22.2823 -1.25
      vertex 11.1732 22.2823 1.25
      vertex 5.7612 16.8703 1.25
    endloop
  endfacet
  facet normal 0.707107 -0.707107 0
    outer loop
      vertex 5.7612 16.8703 -1.25
      vertex 11.1732 22.2823 -1.25
      vertex 5.7612 16.8703 1.25
    endloop
  endfacet
  facet normal 1 3.21166e-08 0
    outer loop
      vertex 5.7612 16.8703 1.25
      vertex 5.7612 9.21664 1.25
      vertex 5.7612 9.21664 -1.25
    endloop
  endfacet
  facet normal 1 3.21166e-08 0
    outer loop
      vertex 5.7612 16.8703 -1.25
      vertex 5.7612 16.8703 1.25
      vertex 5.7612 9.21664 -1.25
    endloop
  endfacet
  facet normal 3.21166e-08 -1 0
    outer loop
      vertex 11.25 22.2823 -1.25
      vertex 11.25 22.2823 1.25
      vertex 11.1732 22.2823 1.25
    endloop
  endfacet
  facet normal 3.21166e-08 -1 0
    outer loop
      vertex 11.1732 22.2823 -1.25
      vertex 11.25 22.2823 -1.25
      vertex 11.1732 22.2823 1.25
    endloop
  endfacet
  facet normal 1 0 0
    outer loop
      vertex 11.25 26.7935 -1.25
      vertex 11.25 26.7935 1.25
      vertex 11.25 22.2823 1.25
    endloop
  endfacet
  facet normal 1 0 0
    outer loop
      vertex 11.25 22.2823 -1.25
      vertex 11.25 26.7935 -1.25
      vertex 11.25 22.2823 1.25
    endloop
  endfacet
  facet normal 0 -1 0
    outer loop
      vertex 18.75 26.7935 -1.25
      vertex 18.75 26.7935 1.25
      vertex 11.25 26.7935 1.25
    endloop
  endfacet
  facet normal 0 -1 0
    outer loop
      vertex 11.25 26.7935 -1.25
      vertex 18.75 26.7935 -1.25
      vertex 11.25 26.7935 1.25
    endloop
  endfacet
  facet normal -1 0 0
    outer loop
      vertex 18.75 26.7935 1.25
      vertex 18.75 26.7935 -1.25
      vertex 18.75 22.2823 1.25
    endloop
  endfacet
  facet normal -1 0 0
    outer loop
      vertex 18.75 22.2823 1.25
      vertex 18.75 26.7935 -1.25
      vertex 18.75 22.2823 -1.25
    endloop
  endfacet
  facet normal 3.21166e-08 -1 0
    outer loop
      vertex 18.8268 22.2823 -1.25
      vertex 18.8268 22.2823 1.25
      vertex 18.75 22.2823 1.25
    endloop
  endfacet
  facet normal 3.21166e-08 -1 0
    outer loop
      vertex 18.75 22.2823 -1.25
      vertex 18.8268 22.2823 -1.25
      vertex 18.75 22.2823 1.25
    endloop
  endfacet
  facet normal -0.707107 -0.707107 0
    outer loop
      vertex 24.2388 16.8703 1.25
      vertex 18.8268 22.2823 1.25
      vertex 24.2388 16.8703 -1.25
    endloop
  endfacet
  facet normal -0.707107 -0.707107 0
    outer loop
      vertex 24.2388 16.8703 -1.25
      vertex 18.8268 22.2823 1.25
      vertex 18.8268 22.2823 -1.25
    endloop
  endfacet
  facet normal -1 -3.21166e-08 0
    outer loop
      vertex 24.2388 9.21664 1.25
      vertex 24.2388 16.8703 1.25
      vertex 24.2388 9.21664 -1.25
    endloop
  endfacet
  facet normal -1 -3.21166e-08 0
    outer loop
      vertex 24.2388 9.21664 -1.25
      vertex 24.2388 16.8703 1.25
      vertex 24.2388 16.8703 -1.25
    endloop
  endfacet
  facet normal -0.707107 0.707107 0
    outer loop
      vertex 24.2388 9.21664 1.25
      vertex 24.2388 9.21664 -1.25
      vertex 18.8268 3.80468 1.25
    endloop
  endfacet
  facet normal -0.707107 0.707107 0
    outer loop
      vertex 18.8268 3.80468 1.25
      vertex 24.2388 9.21664 -1.25
      vertex 18.8268 3.80468 -1.25
    endloop
  endfacet
  facet normal -3.21166e-08 1 0
    outer loop
      vertex 18.8268 3.80468 1.25
      vertex 18.8268 3.80468 -1.25
      vertex 18.75 3.80468 1.25
    endloop
  endfacet
  facet normal -3.21166e-08 1 0
    outer loop
      vertex 18.75 3.80468 1.25
      vertex 18.8268 3.80468 -1.25
      vertex 18.75 3.80468 -1.25
    endloop
  endfacet
  facet normal 1 0 0
    outer loop
      vertex 18.75 3.80468 1.25
      vertex 18.75 3.80468 -1.25
      vertex 18.75 11.4902 -1.25
    endloop
  endfacet
  facet normal 1 0 0
    outer loop
      vertex 18.75 11.4902 1.25
      vertex 18.75 3.80468 1.25
      vertex 18.75 11.4902 -1.25
    endloop
  endfacet
  facet normal 1 3.41762e-08 0
    outer loop
      vertex 18.75 11.4902 -1.25
      vertex 18.75 14.5968 -1.25
      vertex 18.75 14.5968 1.25
    endloop
  endfacet
  facet normal 1 3.41762e-08 0
    outer loop
      vertex 18.75 11.4902 1.25
      vertex 18.75 11.4902 -1.25
      vertex 18.75 14.5968 1.25
    endloop
  endfacet
  facet normal 0.707107 0.707107 0
    outer loop
      vertex 18.75 14.5968 -1.25
      vertex 16.5533 16.7935 -1.25
      vertex 16.5533 16.7935 1.25
    endloop
  endfacet
  facet normal 0.707107 0.707107 0
    outer loop
      vertex 18.75 14.5968 1.25
      vertex 18.75 14.5968 -1.25
      vertex 16.5533 16.7935 1.25
    endloop
  endfacet
  facet normal -3.41762e-08 1 0
    outer loop
      vertex 13.4467 16.7935 -1.25
      vertex 13.4467 16.7935 1.25
      vertex 16.5533 16.7935 -1.25
    endloop
  endfacet
  facet normal -3.41762e-08 1 0
    outer loop
      vertex 16.5533 16.7935 -1.25
      vertex 13.4467 16.7935 1.25
      vertex 16.5533 16.7935 1.25
    endloop
  endfacet
  facet normal -0.707107 0.707107 0
    outer loop
      vertex 11.25 14.5968 -1.25
      vertex 11.25 14.5968 1.25
      vertex 13.4467 16.7935 -1.25
    endloop
  endfacet
  facet normal -0.707107 0.707107 0
    outer loop
      vertex 13.4467 16.7935 -1.25
      vertex 11.25 14.5968 1.25
      vertex 13.4467 16.7935 1.25
    endloop
  endfacet
  facet normal -1 -3.41762e-08 0
    outer loop
      vertex 11.25 14.5968 -1.25
      vertex 11.25 11.4902 -1.25
      vertex 11.25 14.5968 1.25
    endloop
  endfacet
  facet normal -1 -3.41762e-08 0
    outer loop
      vertex 11.25 14.5968 1.25
      vertex 11.25 11.4902 -1.25
      vertex 11.25 11.4902 1.25
    endloop
  endfacet
  facet normal -1 0 0
    outer loop
      vertex 11.25 3.80468 -1.25
      vertex 11.25 3.80468 1.25
      vertex 11.25 11.4902 -1.25
    endloop
  endfacet
  facet normal -1 0 0
    outer loop
      vertex 11.25 11.4902 -1.25
      vertex 11.25 3.80468 1.25
      vertex 11.25 11.4902 1.25
    endloop
  endfacet
  facet normal -3.21166e-08 1 0
    outer loop
      vertex 11.25 3.80468 1.25
      vertex 11.25 3.80468 -1.25
      vertex 11.1732 3.80468 1.25
    endloop
  endfacet
  facet normal -3.21166e-08 1 0
    outer loop
      vertex 11.1732 3.80468 1.25
      vertex 11.25 3.80468 -1.25
      vertex 11.1732 3.80468 -1.25
    endloop
  endfacet
  facet normal 0.707107 0.707107 0
    outer loop
      vertex 5.7612 9.21664 1.25
      vertex 11.1732 3.80468 1.25
      vertex 11.1732 3.80468 -1.25
    endloop
  endfacet
  facet normal 0.707107 0.707107 0
    outer loop
      vertex 5.7612 9.21664 -1.25
      vertex 5.7612 9.21664 1.25
      vertex 11.1732 3.80468 -1.25
    endloop
  endfacet
  facet normal 0.994522 -0.104529 0
    outer loop
      vertex 23.0437 25.4158 -1.25
      vertex 23.0437 25.4158 1.25
      vertex 23 25 1.25
    endloop
  endfacet
  facet normal 0.994522 -0.104529 0
    outer loop
      vertex 23 25 -1.25
      vertex 23.0437 25.4158 -1.25
      vertex 23 25 1.25
    endloop
  endfacet
  facet normal 0.994522 0.104529 0
    outer loop
      vertex 23 25 1.25
      vertex 23.0437 24.5842 1.25
      vertex 23.0437 24.5842 -1.25
    endloop
  endfacet
  facet normal 0.994522 0.104529 0
    outer loop
      vertex 23 25 -1.25
      vertex 23 25 1.25
      vertex 23.0437 24.5842 -1.25
    endloop
  endfacet
  facet normal 0.951057 -0.309016 0
    outer loop
      vertex 23.1729 25.8135 -1.25
      vertex 23.1729 25.8135 1.25
      vertex 23.0437 25.4158 1.25
    endloop
  endfacet
  facet normal 0.951057 -0.309016 0
    outer loop
      vertex 23.0437 25.4158 -1.25
      vertex 23.1729 25.8135 -1.25
      vertex 23.0437 25.4158 1.25
    endloop
  endfacet
  facet normal 0.866026 -0.499999 0
    outer loop
      vertex 23.382 26.1756 -1.25
      vertex 23.382 26.1756 1.25
      vertex 23.1729 25.8135 1.25
    endloop
  endfacet
  facet normal 0.866026 -0.499999 0
    outer loop
      vertex 23.1729 25.8135 -1.25
      vertex 23.382 26.1756 -1.25
      vertex 23.1729 25.8135 1.25
    endloop
  endfacet
  facet normal 0.743144 -0.669131 0
    outer loop
      vertex 23.6617 26.4863 -1.25
      vertex 23.6617 26.4863 1.25
      vertex 23.382 26.1756 1.25
    endloop
  endfacet
  facet normal 0.743144 -0.669131 0
    outer loop
      vertex 23.382 26.1756 -1.25
      vertex 23.6617 26.4863 -1.25
      vertex 23.382 26.1756 1.25
    endloop
  endfacet
  facet normal 0.587785 -0.809017 0
    outer loop
      vertex 24 26.7321 -1.25
      vertex 24 26.7321 1.25
      vertex 23.6617 26.4863 1.25
    endloop
  endfacet
  facet normal 0.587785 -0.809017 0
    outer loop
      vertex 23.6617 26.4863 -1.25
      vertex 24 26.7321 -1.25
      vertex 23.6617 26.4863 1.25
    endloop
  endfacet
  facet normal 0.406736 -0.913546 0
    outer loop
      vertex 24.382 26.9021 -1.25
      vertex 24.382 26.9021 1.25
      vertex 24 26.7321 1.25
    endloop
  endfacet
  facet normal 0.406736 -0.913546 0
    outer loop
      vertex 24 26.7321 -1.25
      vertex 24.382 26.9021 -1.25
      vertex 24 26.7321 1.25
    endloop
  endfacet
  facet normal 0.207912 -0.978147 0
    outer loop
      vertex 24.7909 26.989 -1.25
      vertex 24.7909 26.989 1.25
      vertex 24.382 26.9021 1.25
    endloop
  endfacet
  facet normal 0.207912 -0.978147 0
    outer loop
      vertex 24.382 26.9021 -1.25
      vertex 24.7909 26.989 -1.25
      vertex 24.382 26.9021 1.25
    endloop
  endfacet
  facet normal 0 -1 0
    outer loop
      vertex 25.2091 26.989 -1.25
      vertex 25.2091 26.989 1.25
      vertex 24.7909 26.989 1.25
    endloop
  endfacet
  facet normal 0 -1 0
    outer loop
      vertex 24.7909 26.989 -1.25
      vertex 25.2091 26.989 -1.25
      vertex 24.7909 26.989 1.25
    endloop
  endfacet
  facet normal -0.207912 -0.978147 0
    outer loop
      vertex 25.618 26.9021 -1.25
      vertex 25.618 26.9021 1.25
      vertex 25.2091 26.989 1.25
    endloop
  endfacet
  facet normal -0.207912 -0.978147 0
    outer loop
      vertex 25.2091 26.989 -1.25
      vertex 25.618 26.9021 -1.25
      vertex 25.2091 26.989 1.25
    endloop
  endfacet
  facet normal -0.406736 -0.913546 0
    outer loop
      vertex 26 26.7321 -1.25
      vertex 26 26.7321 1.25
      vertex 25.618 26.9021 1.25
    endloop
  endfacet
  facet normal -0.406736 -0.913546 0
    outer loop
      vertex 25.618 26.9021 -1.25
      vertex 26 26.7321 -1.25
      vertex 25.618 26.9021 1.25
    endloop
  endfacet
  facet normal -0.587785 -0.809017 0
    outer loop
      vertex 26.3383 26.4863 -1.25
      vertex 26.3383 26.4863 1.25
      vertex 26 26.7321 1.25
    endloop
  endfacet
  facet normal -0.587785 -0.809017 0
    outer loop
      vertex 26 26.7321 -1.25
      vertex 26.3383 26.4863 -1.25
      vertex 26 26.7321 1.25
    endloop
  endfacet
  facet normal -0.743144 -0.669131 0
    outer loop
      vertex 26.618 26.1756 1.25
      vertex 26.3383 26.4863 1.25
      vertex 26.618 26.1756 -1.25
    endloop
  endfacet
  facet normal -0.743144 -0.669131 0
    outer loop
      vertex 26.618 26.1756 -1.25
      vertex 26.3383 26.4863 1.25
      vertex 26.3383 26.4863 -1.25
    endloop
  endfacet
  facet normal -0.866026 -0.499999 0
    outer loop
      vertex 26.8271 25.8135 1.25
      vertex 26.618 26.1756 1.25
      vertex 26.8271 25.8135 -1.25
    endloop
  endfacet
  facet normal -0.866026 -0.499999 0
    outer loop
      vertex 26.8271 25.8135 -1.25
      vertex 26.618 26.1756 1.25
      vertex 26.618 26.1756 -1.25
    endloop
  endfacet
  facet normal -0.951057 -0.309016 0
    outer loop
      vertex 26.9563 25.4158 1.25
      vertex 26.8271 25.8135 1.25
      vertex 26.9563 25.4158 -1.25
    endloop
  endfacet
  facet normal -0.951057 -0.309016 0
    outer loop
      vertex 26.9563 25.4158 -1.25
      vertex 26.8271 25.8135 1.25
      vertex 26.8271 25.8135 -1.25
    endloop
  endfacet
  facet normal -0.994522 -0.104529 0
    outer loop
      vertex 27 25 1.25
      vertex 26.9563 25.4158 1.25
      vertex 27 25 -1.25
    endloop
  endfacet
  facet normal -0.994522 -0.104529 0
    outer loop
      vertex 27 25 -1.25
      vertex 26.9563 25.4158 1.25
      vertex 26.9563 25.4158 -1.25
    endloop
  endfacet
  facet normal -0.994522 0.104529 0
    outer loop
      vertex 27 25 1.25
      vertex 27 25 -1.25
      vertex 26.9563 24.5842 1.25
    endloop
  endfacet
  facet normal -0.994522 0.104529 0
    outer loop
      vertex 26.9563 24.5842 1.25
      vertex 27 25 -1.25
      vertex 26.9563 24.5842 -1.25
    endloop
  endfacet
  facet normal -0.951057 0.309016 0
    outer loop
      vertex 26.9563 24.5842 1.25
      vertex 26.9563 24.5842 -1.25
      vertex 26.8271 24.1865 1.25
    endloop
  endfacet
  facet normal -0.951057 0.309016 0
    outer loop
      vertex 26.8271 24.1865 1.25
      vertex 26.9563 24.5842 -1.25
      vertex 26.8271 24.1865 -1.25
    endloop
  endfacet
  facet normal -0.866026 0.499999 0
    outer loop
      vertex 26.8271 24.1865 1.25
      vertex 26.8271 24.1865 -1.25
      vertex 26.618 23.8244 1.25
    endloop
  endfacet
  facet normal -0.866026 0.499999 0
    outer loop
      vertex 26.618 23.8244 1.25
      vertex 26.8271 24.1865 -1.25
      vertex 26.618 23.8244 -1.25
    endloop
  endfacet
  facet normal -0.743144 0.669131 0
    outer loop
      vertex 26.618 23.8244 1.25
      vertex 26.618 23.8244 -1.25
      vertex 26.3383 23.5137 1.25
    endloop
  endfacet
  facet normal -0.743144 0.669131 0
    outer loop
      vertex 26.3383 23.5137 1.25
      vertex 26.618 23.8244 -1.25
      vertex 26.3383 23.5137 -1.25
    endloop
  endfacet
  facet normal -0.587785 0.809017 0
    outer loop
      vertex 26.3383 23.5137 1.25
      vertex 26.3383 23.5137 -1.25
      vertex 26 23.2679 1.25
    endloop
  endfacet
  facet normal -0.587785 0.809017 0
    outer loop
      vertex 26 23.2679 1.25
      vertex 26.3383 23.5137 -1.25
      vertex 26 23.2679 -1.25
    endloop
  endfacet
  facet normal -0.406736 0.913546 0
    outer loop
      vertex 26 23.2679 1.25
      vertex 26 23.2679 -1.25
      vertex 25.618 23.0979 1.25
    endloop
  endfacet
  facet normal -0.406736 0.913546 0
    outer loop
      vertex 25.618 23.0979 1.25
      vertex 26 23.2679 -1.25
      vertex 25.618 23.0979 -1.25
    endloop
  endfacet
  facet normal -0.207912 0.978147 0
    outer loop
      vertex 25.618 23.0979 1.25
      vertex 25.618 23.0979 -1.25
      vertex 25.2091 23.011 1.25
    endloop
  endfacet
  facet normal -0.207912 0.978147 0
    outer loop
      vertex 25.2091 23.011 1.25
      vertex 25.618 23.0979 -1.25
      vertex 25.2091 23.011 -1.25
    endloop
  endfacet
  facet normal 0 1 0
    outer loop
      vertex 25.2091 23.011 1.25
      vertex 25.2091 23.011 -1.25
      vertex 24.7909 23.011 1.25
    endloop
  endfacet
  facet normal 0 1 0
    outer loop
      vertex 24.7909 23.011 1.25
      vertex 25.2091 23.011 -1.25
      vertex 24.7909 23.011 -1.25
    endloop
  endfacet
  facet normal 0.207912 0.978147 0
    outer loop
      vertex 24.7909 23.011 1.25
      vertex 24.7909 23.011 -1.25
      vertex 24.382 23.0979 1.25
    endloop
  endfacet
  facet normal 0.207912 0.978147 0
    outer loop
      vertex 24.382 23.0979 1.25
      vertex 24.7909 23.011 -1.25
      vertex 24.382 23.0979 -1.25
    endloop
  endfacet
  facet normal 0.406736 0.913546 0
    outer loop
      vertex 24.382 23.0979 1.25
      vertex 24.382 23.0979 -1.25
      vertex 24 23.2679 1.25
    endloop
  endfacet
  facet normal 0.406736 0.913546 0
    outer loop
      vertex 24 23.2679 1.25
      vertex 24.382 23.0979 -1.25
      vertex 24 23.2679 -1.25
    endloop
  endfacet
  facet normal 0.587785 0.809017 0
    outer loop
      vertex 24 23.2679 1.25
      vertex 24 23.2679 -1.25
      vertex 23.6617 23.5137 1.25
    endloop
  endfacet
  facet normal 0.587785 0.809017 0
    outer loop
      vertex 23.6617 23.5137 1.25
      vertex 24 23.2679 -1.25
      vertex 23.6617 23.5137 -1.25
    endloop
  endfacet
  facet normal 0.743144 0.669131 0
    outer loop
      vertex 23.382 23.8244 1.25
      vertex 23.6617 23.5137 1.25
      vertex 23.6617 23.5137 -1.25
    endloop
  endfacet
  facet normal 0.743144 0.669131 0
    outer loop
      vertex 23.382 23.8244 -1.25
      vertex 23.382 23.8244 1.25
      vertex 23.6617 23.5137 -1.25
    endloop
  endfacet
  facet normal 0.866026 0.499999 0
    outer loop
      vertex 23.1729 24.1865 1.25
      vertex 23.382 23.8244 1.25
      vertex 23.382 23.8244 -1.25
    endloop
  endfacet
  facet normal 0.866026 0.499999 0
    outer loop
      vertex 23.1729 24.1865 -1.25
      vertex 23.1729 24.1865 1.25
      vertex 23.382 23.8244 -1.25
    endloop
  endfacet
  facet normal 0.951057 0.309016 0
    outer loop
      vertex 23.0437 24.5842 1.25
      vertex 23.1729 24.1865 1.25
      vertex 23.1729 24.1865 -1.25
    endloop
  endfacet
  facet normal 0.951057 0.309016 0
    outer loop
      vertex 23.0437 24.5842 -1.25
      vertex 23.0437 24.5842 1.25
      vertex 23.1729 24.1865 -1.25
    endloop
  endfacet
endsolid OpenSCAD_Model
