  0
SECTION
  2
HEADER
  9
$ACADVER
  1
AC1014
  9
$HANDSEED
  5
FFFF
  9
$MEASUREMENT
 70
     1
  0
ENDSEC
  0
SECTION
  2
TABLES
  0
TABLE
  2
VPORT
  5
8
330
0
100
AcDbSymbolTable
 70
     4
  0
VPORT
  5
2E
330
8
100
AcDbSymbolTableRecord
100
AcDbViewportTableRecord
  2
*ACTIVE
 70
     0
 10
0.0
 20
0.0
 11
1.0
 21
1.0
 12
210.0
 22
148.5
 13
0.0
 23
0.0
 14
10.0
 24
10.0
 15
10.0
 25
10.0
 16
0.0
 26
0.0
 36
1.0
 17
0.0
 27
0.0
 37
0.0
 40
341.0
 41
1.24
 42
50.0
 43
0.0
 44
0.0
 50
0.0
 51
0.0
 71
     0
 72
   100
 73
     1
 74
     3
 75
     0
 76
     0
 77
     0
 78
     0
  0
ENDTAB
  0
TABLE
  2
LTYPE
  5
5
330
0
100
AcDbSymbolTable
 70
     1
  0
LTYPE
  5
14
330
5
100
AcDbSymbolTableRecord
100
AcDbLinetypeTableRecord
  2
BYBLOCK
 70
     0
  3

 72
    65
 73
     0
 40
0.0
  0
LTYPE
  5
15
330
5
100
AcDbSymbolTableRecord
100
AcDbLinetypeTableRecord
  2
BYLAYER
 70
     0
  3

 72
    65
 73
     0
 40
0.0
  0
LTYPE
  5
16
330
5
100
AcDbSymbolTableRecord
100
AcDbLinetypeTableRecord
  2
CONTINUOUS
 70
     0
  3
Solid line
 72
    65
 73
     0
 40
0.0
  0
ENDTAB
  0
TABLE
  2
LAYER
  5
2
100
AcDbSymbolTable
 70
2
  0
LAYER
  5
50
100
AcDbSymbolTableRecord
100
AcDbLayerTableRecord
  2
0
 70
0
  6
CONTINUOUS
  0
LAYER
  5
51
100
AcDbSymbolTableRecord
100
AcDbLayerTableRecord
  2
Layer_1
 70
0
  6
CONTINUOUS
  0
ENDTAB
  0
TABLE
  2
STYLE
  5
3
330
0
100
AcDbSymbolTable
 70
     1
  0
STYLE
  5
11
330
3
100
AcDbSymbolTableRecord
100
AcDbTextStyleTableRecord
  2
STANDARD
 70
     0
 40
0.0
 41
1.0
 50
0.0
 71
     0
 42
2.5
  3
txt
  4

  0
ENDTAB
  0
TABLE
  2
VIEW
  5
6
330
0
100
AcDbSymbolTable
 70
     0
  0
ENDTAB
  0
TABLE
  2
UCS
  5
7
330
0
100
AcDbSymbolTable
 70
     0
  0
ENDTAB
  0
TABLE
  2
APPID
  5
9
330
0
100
AcDbSymbolTable
 70
     2
  0
APPID
  5
12
330
9
100
AcDbSymbolTableRecord
100
AcDbRegAppTableRecord
  2
ACAD
 70
     0
  0
ENDTAB
  0
TABLE
  2
DIMSTYLE
  5
A
330
0
100
AcDbSymbolTable
 70
     1
  0
DIMSTYLE
105
27
330
A
100
AcDbSymbolTableRecord
100
AcDbDimStyleTableRecord
  2
ISO-25
 70
     0
  3

  4

  5

  6

  7

 40
1.0
 41
2.5
 42
0.625
 43
3.75
 44
1.25
 45
0.0
 46
0.0
 47
0.0
 48
0.0
140
2.5
141
2.5
142
0.0
143
0.03937007874016
144
1.0
145
0.0
146
1.0
147
0.625
 71
     0
 72
     0
 73
     0
 74
     0
 75
     0
 76
     0
 77
     1
 78
     8
170
     0
171
     3
172
     1
173
     0
174
     0
175
     0
176
     0
177
     0
178
     0
270
     2
271
     2
272
     2
273
     2
274
     3
340
11
275
     0
280
     0
281
     0
282
     0
283
     0
284
     8
285
     0
286
     0
287
     3
288
     0
  0
ENDTAB
  0
TABLE
  2
BLOCK_RECORD
  5
1
330
0
100
AcDbSymbolTable
 70
     1
  0
BLOCK_RECORD
  5
1F
330
1
100
AcDbSymbolTableRecord
100
AcDbBlockTableRecord
  2
*MODEL_SPACE
  0
BLOCK_RECORD
  5
1B
330
1
100
AcDbSymbolTableRecord
100
AcDbBlockTableRecord
  2
*PAPER_SPACE
  0
ENDTAB
  0
ENDSEC
  0
SECTION
  2
BLOCKS
  0
BLOCK
  5
20
330
1F
100
AcDbEntity
  8
0
100
AcDbBlockBegin
  2
*MODEL_SPACE
 70
     0
 10
0.0
 20
0.0
 30
0.0
  3
*MODEL_SPACE
  1

  0
ENDBLK
  5
21
330
1F
100
AcDbEntity
  8
0
100
AcDbBlockEnd
  0
BLOCK
  5
1C
330
1B
100
AcDbEntity
 67
     1
  8
0
100
AcDbBlockBegin
  2
*PAPER_SPACE
  1

  0
ENDBLK
  5
1D
330
1B
100
AcDbEntity
 67
     1
  8
0
100
AcDbBlockEnd
  0
ENDSEC
  0
SECTION
  2
ENTITIES
  0
LWPOLYLINE
  5
100
100
AcDbEntity
  8
Layer_1
 62
7
100
AcDbPolyline
 90
273
 70
0
 10
62.900515
 20
29.339563
 30
0.0
 10
62.384833
 20
29.373836
 30
0.0
 10
61.386712
 20
29.782660
 30
0.0
 10
60.152195
 20
30.447694
 30
0.0
 10
58.927325
 20
31.250596
 30
0.0
 10
57.559662
 20
32.205837
 30
0.0
 10
56.569585
 20
32.721443
 30
0.0
 10
55.653844
 20
32.909360
 30
0.0
 10
54.509190
 20
32.881533
 30
0.0
 10
53.227357
 20
32.710701
 30
0.0
 10
52.528301
 20
32.422993
 30
0.0
 10
52.406604
 20
32.013813
 30
0.0
 10
52.856855
 20
31.478559
 30
0.0
 10
53.234931
 20
31.202373
 30
0.0
 10
53.744772
 20
30.874741
 30
0.0
 10
54.319574
 20
30.536656
 30
0.0
 10
54.892547
 20
30.229119
 30
0.0
 10
56.370457
 20
29.369388
 30
0.0
 10
57.423468
 20
28.476809
 30
0.0
 10
58.120796
 20
27.476526
 30
0.0
 10
58.531670
 20
26.293676
 30
0.0
 10
58.694354
 20
25.396881
 30
0.0
 10
58.712473
 20
24.582538
 30
0.0
 10
58.568116
 20
23.594938
 30
0.0
 10
58.243368
 20
22.178368
 30
0.0
 10
57.864025
 20
20.477957
 30
0.0
 10
57.872012
 20
19.516429
 30
0.0
 10
58.381369
 20
18.958933
 30
0.0
 10
59.506138
 20
18.470623
 30
0.0
 10
60.956241
 20
17.817888
 30
0.0
 10
62.280797
 20
17.044805
 30
0.0
 10
63.360960
 20
16.229858
 30
0.0
 10
64.077881
 20
15.451531
 30
0.0
 10
64.706709
 20
13.773627
 30
0.0
 10
64.455664
 20
12.223908
 30
0.0
 10
63.456710
 20
11.086098
 30
0.0
 10
61.841812
 20
10.643924
 30
0.0
 10
61.245236
 20
10.690510
 30
0.0
 10
60.523611
 20
10.817248
 30
0.0
 10
59.767916
 20
11.004784
 30
0.0
 10
59.069128
 20
11.233765
 30
0.0
 10
58.220370
 20
11.519837
 30
0.0
 10
57.472715
 20
11.670832
 30
0.0
 10
56.690130
 20
11.703036
 30
0.0
 10
55.736583
 20
11.632734
 30
0.0
 10
53.993996
 20
11.544244
 30
0.0
 10
52.473056
 20
11.659495
 30
0.0
 10
51.267109
 20
11.964114
 30
0.0
 10
50.469501
 20
12.443728
 30
0.0
 10
50.160541
 20
12.877182
 30
0.0
 10
49.892320
 20
13.552751
 30
0.0
 10
49.641898
 20
14.544170
 30
0.0
 10
49.386332
 20
15.925171
 30
0.0
 10
49.176141
 20
17.096125
 30
0.0
 10
48.956914
 20
18.158409
 30
0.0
 10
48.754606
 20
18.995080
 30
0.0
 10
48.595178
 20
19.489194
 30
0.0
 10
47.700238
 20
20.453200
 30
0.0
 10
46.285252
 20
20.901694
 30
0.0
 10
44.597786
 20
20.806483
 30
0.0
 10
42.885416
 20
20.139378
 30
0.0
 10
41.829815
 20
19.406190
 30
0.0
 10
41.121166
 20
18.629006
 30
0.0
 10
40.729385
 20
17.762900
 30
0.0
 10
40.624390
 20
16.762942
 30
0.0
 10
40.697195
 20
16.108000
 30
0.0
 10
40.965501
 20
15.535845
 30
0.0
 10
41.564046
 20
14.851115
 30
0.0
 10
42.627567
 20
13.858446
 30
0.0
 10
43.995021
 20
12.500443
 30
0.0
 10
44.908549
 20
11.308949
 30
0.0
 10
45.366367
 20
10.286856
 30
0.0
 10
45.366649
 20
9.437043
 30
0.0
 10
44.941239
 20
8.677628
 30
0.0
 10
44.126116
 20
7.715930
 30
0.0
 10
43.065522
 20
6.703740
 30
0.0
 10
41.903695
 20
5.792848
 30
0.0
 10
41.289328
 20
5.299563
 30
0.0
 10
40.757218
 20
4.716453
 30
0.0
 10
40.269177
 20
3.994675
 30
0.0
 10
39.787028
 20
3.085392
 30
0.0
 10
39.379847
 20
2.320454
 30
0.0
 10
38.934647
 20
1.612448
 30
0.0
 10
38.505294
 20
1.040212
 30
0.0
 10
38.145641
 20
0.682580
 30
0.0
 10
37.272059
 20
0.263088
 30
0.0
 10
36.203416
 20
0.034186
 30
0.0
 10
35.192123
 20
0.024788
 30
0.0
 10
34.490609
 20
0.263838
 30
0.0
 10
33.750199
 20
1.251402
 30
0.0
 10
33.404629
 20
2.585943
 30
0.0
 10
33.472436
 20
4.078896
 30
0.0
 10
33.972139
 20
5.541696
 30
0.0
 10
34.334648
 20
6.398709
 30
0.0
 10
34.282504
 20
7.052031
 30
0.0
 10
33.716002
 20
7.713571
 30
0.0
 10
32.535441
 20
8.595241
 30
0.0
 10
31.211181
 20
9.699738
 30
0.0
 10
30.314829
 20
10.921921
 30
0.0
 10
29.772929
 20
12.399679
 30
0.0
 10
29.512023
 20
14.270917
 30
0.0
 10
29.454023
 20
15.545099
 30
0.0
 10
29.539379
 20
16.512379
 30
0.0
 10
29.838540
 20
17.537865
 30
0.0
 10
30.421955
 20
18.986669
 30
0.0
 10
31.762040
 20
22.226183
 30
0.0
 10
32.383462
 20
24.137993
 30
0.0
 10
32.462628
 20
25.562052
 30
0.0
 10
32.175938
 20
27.338302
 30
0.0
 10
31.967833
 20
28.734314
 30
0.0
 10
31.760041
 20
30.585472
 30
0.0
 10
31.576653
 20
32.650591
 30
0.0
 10
31.441763
 20
34.688498
 30
0.0
 10
31.179335
 20
38.108173
 30
0.0
 10
30.693806
 20
40.365147
 30
0.0
 10
29.772703
 20
42.055672
 30
0.0
 10
28.203562
 20
43.776000
 30
0.0
 10
26.244612
 20
45.425984
 30
0.0
 10
23.560241
 20
47.345343
 30
0.0
 10
20.696699
 20
49.165849
 30
0.0
 10
18.200241
 20
50.519271
 30
0.0
 10
15.720949
 20
51.354363
 30
0.0
 10
13.365268
 20
51.465531
 30
0.0
 10
11.091984
 20
50.848271
 30
0.0
 10
8.859885
 20
49.498072
 30
0.0
 10
7.507333
 20
48.367132
 30
0.0
 10
6.695097
 20
47.390200
 30
0.0
 10
6.271186
 20
46.314941
 30
0.0
 10
6.083606
 20
44.889028
 30
0.0
 10
6.037177
 20
43.759267
 30
0.0
 10
6.144739
 20
42.850003
 30
0.0
 10
6.486713
 20
41.813079
 30
0.0
 10
7.143517
 20
40.300331
 30
0.0
 10
7.694896
 20
38.995192
 30
0.0
 10
8.089953
 20
37.863724
 30
0.0
 10
8.343544
 20
36.856947
 30
0.0
 10
8.470528
 20
35.925887
 30
0.0
 10
8.383281
 20
34.043346
 30
0.0
 10
7.876991
 20
32.597259
 30
0.0
 10
7.047947
 20
31.752788
 30
0.0
 10
5.992437
 20
31.675101
 30
0.0
 10
4.429136
 20
33.067808
 30
0.0
 10
2.522765
 20
35.812357
 30
0.0
 10
0.874109
 20
38.892895
 30
0.0
 10
0.083956
 20
41.293573
 30
0.0
 10
0.020565
 20
42.225169
 30
0.0
 10
0.000214
 20
43.085893
 30
0.0
 10
0.008209
 20
43.918271
 30
0.0
 10
0.029858
 20
44.764822
 30
0.0
 10
0.114520
 20
45.885913
 30
0.0
 10
0.290372
 20
46.839827
 30
0.0
 10
0.597297
 20
47.783304
 30
0.0
 10
1.075176
 20
48.873080
 30
0.0
 10
2.083880
 20
50.704155
 30
0.0
 10
3.252699
 20
52.215339
 30
0.0
 10
4.681351
 20
53.514526
 30
0.0
 10
6.469554
 20
54.709608
 30
0.0
 10
9.717036
 20
56.333751
 30
0.0
 10
13.041202
 20
57.406007
 30
0.0
 10
16.522620
 20
57.945460
 30
0.0
 10
20.241857
 20
57.971199
 30
0.0
 10
24.215424
 20
57.544538
 30
0.0
 10
27.472300
 20
56.717859
 30
0.0
 10
30.268597
 20
55.400442
 30
0.0
 10
32.860421
 20
53.501578
 30
0.0
 10
34.547794
 20
52.057190
 30
0.0
 10
35.480381
 20
51.310893
 30
0.0
 10
35.933113
 20
51.065969
 30
0.0
 10
36.180932
 20
51.125696
 30
0.0
 10
36.272429
 20
51.276278
 30
0.0
 10
36.280754
 20
51.555588
 30
0.0
 10
36.206979
 20
51.952398
 30
0.0
 10
36.052197
 20
52.455476
 30
0.0
 10
35.740372
 20
53.636644
 30
0.0
 10
35.656036
 20
54.707051
 30
0.0
 10
35.796749
 20
55.582532
 30
0.0
 10
36.160076
 20
56.178930
 30
0.0
 10
36.380988
 20
56.360658
 30
0.0
 10
36.600955
 20
56.510182
 30
0.0
 10
36.794512
 20
56.612028
 30
0.0
 10
36.936187
 20
56.650709
 30
0.0
 10
37.202309
 20
56.751855
 30
0.0
 10
37.734693
 20
57.023835
 30
0.0
 10
38.456126
 20
57.425167
 30
0.0
 10
39.289396
 20
57.914373
 30
0.0
 10
40.943573
 20
58.819423
 30
0.0
 10
42.545616
 20
59.468921
 30
0.0
 10
44.342266
 20
59.944553
 30
0.0
 10
46.580265
 20
60.328000
 30
0.0
 10
48.589338
 20
60.513098
 30
0.0
 10
50.325148
 20
60.460596
 30
0.0
 10
51.740078
 20
60.175597
 30
0.0
 10
52.786518
 20
59.663197
 30
0.0
 10
53.889849
 20
58.670190
 30
0.0
 10
55.070215
 20
57.323476
 30
0.0
 10
56.148598
 20
55.846839
 30
0.0
 10
56.945966
 20
54.464046
 30
0.0
 10
57.285744
 20
53.781506
 30
0.0
 10
57.668282
 20
53.069086
 30
0.0
 10
58.046717
 20
52.411178
 30
0.0
 10
58.374188
 20
51.892172
 30
0.0
 10
58.849625
 20
51.084302
 30
0.0
 10
59.029500
 20
50.401434
 30
0.0
 10
58.921671
 20
49.691663
 30
0.0
 10
58.533996
 20
48.803094
 30
0.0
 10
58.016533
 20
47.943327
 30
0.0
 10
57.386565
 20
47.230431
 30
0.0
 10
56.557842
 20
46.584035
 30
0.0
 10
55.444115
 20
45.923764
 30
0.0
 10
54.933682
 20
45.621033
 30
0.0
 10
54.515682
 20
45.321612
 30
0.0
 10
54.233251
 20
45.060049
 30
0.0
 10
54.129521
 20
44.870889
 30
0.0
 10
55.336052
 20
43.878731
 30
0.0
 10
58.052153
 20
41.958029
 30
0.0
 10
60.922581
 20
40.040018
 30
0.0
 10
62.592095
 20
39.055937
 30
0.0
 10
64.778544
 20
38.517367
 30
0.0
 10
66.867101
 20
38.157215
 30
0.0
 10
68.887144
 20
37.939116
 30
0.0
 10
70.868036
 20
37.826710
 30
0.0
 10
71.622825
 20
37.926566
 30
0.0
 10
72.870555
 20
38.221581
 30
0.0
 10
74.337250
 20
38.659432
 30
0.0
 10
75.748937
 20
39.187789
 30
0.0
 10
77.814693
 20
40.628570
 30
0.0
 10
79.758380
 20
42.834154
 30
0.0
 10
81.124313
 20
45.178131
 30
0.0
 10
81.456805
 20
47.034097
 30
0.0
 10
81.049976
 20
48.252750
 30
0.0
 10
80.409004
 20
49.277532
 30
0.0
 10
79.426126
 20
50.240348
 30
0.0
 10
77.993571
 20
51.273100
 30
0.0
 10
76.208516
 20
52.601464
 30
0.0
 10
74.456904
 20
54.168003
 30
0.0
 10
72.989814
 20
55.728777
 30
0.0
 10
72.058317
 20
57.039835
 30
0.0
 10
71.847364
 20
57.480742
 30
0.0
 10
71.792300
 20
57.770025
 30
0.0
 10
71.902093
 20
57.991434
 30
0.0
 10
72.185720
 20
58.228718
 30
0.0
 10
72.484752
 20
58.389297
 30
0.0
 10
72.845612
 20
58.481135
 30
0.0
 10
73.262663
 20
58.503402
 30
0.0
 10
73.730258
 20
58.455272
 30
0.0
 10
75.211269
 20
58.128089
 30
0.0
 10
76.935839
 20
57.640793
 30
0.0
 10
78.560782
 20
57.098839
 30
0.0
 10
79.742912
 20
56.607682
 30
0.0
 10
81.269220
 20
55.563544
 30
0.0
 10
82.968489
 20
54.010868
 30
0.0
 10
84.499056
 20
52.295369
 30
0.0
 10
85.519258
 20
50.762772
 30
0.0
 10
85.943579
 20
49.815293
 30
0.0
 10
86.173492
 20
48.953533
 30
0.0
 10
86.260986
 20
47.856645
 30
0.0
 10
86.258051
 20
46.203783
 30
0.0
 10
86.038725
 20
43.245261
 30
0.0
 10
85.487108
 20
40.433665
 30
0.0
 10
84.626581
 20
37.858178
 30
0.0
 10
83.480522
 20
35.607981
 30
0.0
 10
81.178700
 20
32.435800
 30
0.0
 10
78.748098
 20
30.279117
 30
0.0
 10
75.916588
 20
28.958083
 30
0.0
 10
72.412040
 20
28.292846
 30
0.0
 10
71.973227
 20
28.248506
 30
0.0
 10
71.534413
 20
28.204166
 30
0.0
 10
71.095597
 20
28.159826
 30
0.0
 10
70.656784
 20
28.115486
 30
0.0
 10
68.717709
 20
28.172153
 30
0.0
 10
66.778633
 20
28.372390
 30
0.0
 10
64.839558
 20
28.750195
 30
0.0
 10
62.900515
 20
29.339563
 30
0.0
  0
ENDSEC
  0
SECTION
  2
OBJECTS
  0
DICTIONARY
  5
C
330
0
100
AcDbDictionary
  3
ACAD_GROUP
350
D
  3
ACAD_MLINESTYLE
350
17
  0
DICTIONARY
  5
D
330
C
100
AcDbDictionary
  0
DICTIONARY
  5
1A
330
C
100
AcDbDictionary
  0
DICTIONARY
  5
17
330
C
100
AcDbDictionary
  3
STANDARD
350
18
  0
DICTIONARY
  5
19
330
C
100
AcDbDictionary
  0
ENDSEC
  0
EOF
