<?xml version="1.0" encoding="UTF-8" standalone="no"?>
<!-- Created with Inkscape (http://www.inkscape.org/) -->

<svg
   xmlns:dc="http://purl.org/dc/elements/1.1/"
   xmlns:cc="http://creativecommons.org/ns#"
   xmlns:rdf="http://www.w3.org/1999/02/22-rdf-syntax-ns#"
   xmlns:svg="http://www.w3.org/2000/svg"
   xmlns="http://www.w3.org/2000/svg"
   xmlns:sodipodi="http://sodipodi.sourceforge.net/DTD/sodipodi-0.dtd"
   xmlns:inkscape="http://www.inkscape.org/namespaces/inkscape"
   width="1052.3622"
   height="744.09448"
   id="svg2"
   version="1.1"
   inkscape:version="0.48.2 r9819"
   sodipodi:docname="New document 1">
  <defs
     id="defs4" />
  <sodipodi:namedview
     id="base"
     pagecolor="#ffffff"
     bordercolor="#666666"
     borderopacity="1.0"
     inkscape:pageopacity="0.0"
     inkscape:pageshadow="2"
     inkscape:zoom="0.7"
     inkscape:cx="417.42598"
     inkscape:cy="450.52538"
     inkscape:document-units="px"
     inkscape:current-layer="layer1"
     showgrid="false"
     inkscape:window-width="1366"
     inkscape:window-height="716"
     inkscape:window-x="-8"
     inkscape:window-y="-8"
     inkscape:window-maximized="1" />
  <metadata
     id="metadata7">
    <rdf:RDF>
      <cc:Work
         rdf:about="">
        <dc:format>image/svg+xml</dc:format>
        <dc:type
           rdf:resource="http://purl.org/dc/dcmitype/StillImage" />
        <dc:title></dc:title>
      </cc:Work>
    </rdf:RDF>
  </metadata>
  <g
     inkscape:label="Layer 1"
     inkscape:groupmode="layer"
     id="layer1"
     transform="translate(0,-308.2677)">
    <path
       id="path2998-4"
       style="fill:#da3826"
       d="m 253.51971,459.90014 c -0.90922,0.90921 -8.70169,-2.83883 -14.07823,-6.77138 -7.83089,-5.72774 -9.22871,-6.24373 -15.65481,-5.77891 -7.44107,0.53824 -9.32443,2.13737 -5.85473,4.97117 1.36975,1.11871 4.61564,3.11093 7.21308,4.42715 8.09498,4.10204 11.52104,7.80706 12.89453,13.94448 1.08187,4.83429 0.96704,6.47334 -1.02153,14.5818 -2.52754,10.30614 -2.47281,10.46682 4.47437,13.13768 6.96029,2.6759 13.85728,7.23054 16.19909,10.69757 5.25711,7.78308 0.95354,17.03586 -7.92308,17.03483 -2.3798,-2.8e-4 -6.80082,-0.94078 -9.82447,-2.08999 -4.46293,-1.69625 -6.68521,-1.9623 -11.80823,-1.41367 -8.60926,0.92198 -16.00626,-0.21697 -18.66289,-2.8736 -1.59201,-1.59201 -2.58233,-4.77502 -3.838,-12.33582 -0.9308,-5.6046 -2.19228,-11.28739 -2.8033,-12.62843 -2.60972,-5.72771 -12.47255,-6.85081 -20.23144,-2.3038 -5.85405,3.4307 -8.14553,6.85261 -8.01151,11.96375 0.0943,3.59742 0.76281,4.56668 7.09787,10.29152 7.52986,6.80455 10.78756,12.06304 9.70554,15.66639 -0.86208,2.87093 -6.76939,9.08739 -12.27031,12.9125 -3.15695,2.1952 -5.17592,4.77768 -7.5,9.59335 -1.7491,3.6242 -4.36627,7.4554 -5.81594,8.5139 -3.26886,2.3865 -10.76592,3.2455 -12.9509,1.4837 -4.40157,-3.549 -5.24732,-12.1584 -1.8371,-18.70107 2.53513,-4.86375 2.09435,-5.80057 -5.09066,-10.81965 -7.38284,-5.15726 -10.02836,-10.12354 -10.7129,-20.11066 -0.5017,-7.31971 -0.31454,-8.28967 3.22417,-16.70936 8.30653,-19.76384 8.15576,-19.04596 6.2149,-29.5924 -0.94599,-5.14039 -2.11662,-16.86019 -2.60141,-26.044 -1.04737,-19.84147 -2.19528,-23.06289 -11.47394,-32.19981 -6.68106,-6.57899 -25.3779,-19.18259 -35.444837,-23.89348 -12.07009,-5.64828 -22.58278,-4.49891 -33.09575,3.61842 -7.90571,6.10419 -9.26991,8.36897 -9.83721,16.33126 -0.45646,6.40661 -0.21776,7.44004 3.75559,16.25916 2.99761,6.65339 4.37776,11.20302 4.70201,15.5 0.7293,9.66478 -3.41065,16.76621 -8.78064,15.06184 -5.62915,-1.78663 -20.17663,-25.94515 -20.93556,-34.0812 -0.4243,-4.63561 -0.30307,-8.1998 -0.19168,-12.2997 0.24737,-5.93824 0.97955,-8.81584 3.70388,-14.55682 4.54435,-9.57629 9.65937,-15.11057 19.11394,-20.68061 15.28817,-9.00682 30.53965,-12.6187 48.799497,-11.55679 20.86904,1.21366 32.5463,5.34986 44.71145,15.83724 10.18777,8.78272 10.64587,9.1105 11.76559,8.41848 0.63046,-0.38965 0.4647,-2.10173 -0.45619,-4.71182 -2.01441,-5.70943 -1.85627,-11.16751 0.38225,-13.19334 1.00581,-0.91025 2.24331,-1.66249 2.75,-1.67166 0.50669,-0.009 4.25886,-2.02407 8.33814,-4.47755 8.32674,-5.00813 13.82944,-6.82978 25.83379,-8.55222 10.06221,-1.44377 17.99228,-0.59431 21.99066,2.3556 4.74867,3.50346 11.91684,12.4634 14.7382,18.42219 1.43043,3.02113 3.70772,7.12195 5.06063,9.11294 2.95671,4.35119 3.04646,6.08601 0.56625,10.94555 -2.31478,4.53541 -4.87763,6.92362 -10.9484,10.20235 -2.5619,1.38365 -4.65801,3.06244 -4.65801,3.73066 0,1.02743 27.06907,19.62761 29.9855,20.60416 10.60716,3.02314 20.01187,4.01688 29.3242,4.35553 1.97004,0.0716 11.18655,-2.19514 17.29453,-4.82272 9.33022,-4.01375 21.81271,-21.17279 20.22473,-27.80188 -1.53864,-6.42311 -4.2714,-9.768 -12.2713,-15.02009 -8.11695,-5.32893 -18.29024,-15.21338 -21.03043,-20.43331 -1.35072,-2.57307 -1.31331,-2.92218 0.45143,-4.21258 1.2578,-0.91974 3.15314,-1.19774 5.47277,-0.80275 5.88111,1.00146 17.30628,4.51223 21.30468,6.54658 6.26428,3.18723 17.39116,14.44618 20.46737,20.71031 2.54578,5.18403 2.76334,6.52651 2.61779,16.1539 -0.21444,14.1839 -3.78951,27.82216 -9.84164,37.54418 -10.9991,17.66871 -20.64372,24.04282 -39.21903,25.91977 l -6.21941,0.62844 c -9.16099,0.0179 -18.32197,-0.99959 -27.48296,-4.33728 z"
       inkscape:connector-curvature="0"
       sodipodi:nodetypes="csssssssssssssssssssscssssssssssssssccssssssscsssssssscsssssssssssscc" />
  </g>
</svg>
