  0
SECTION
  2
HEADER
  9
$ACADVER
  1
AC1014
  9
$HANDSEED
  5
FFFF
  9
$MEASUREMENT
 70
     1
  0
ENDSEC
  0
SECTION
  2
TABLES
  0
TABLE
  2
VPORT
  5
8
330
0
100
AcDbSymbolTable
 70
     4
  0
VPORT
  5
2E
330
8
100
AcDbSymbolTableRecord
100
AcDbViewportTableRecord
  2
*ACTIVE
 70
     0
 10
0.0
 20
0.0
 11
1.0
 21
1.0
 12
210.0
 22
148.5
 13
0.0
 23
0.0
 14
10.0
 24
10.0
 15
10.0
 25
10.0
 16
0.0
 26
0.0
 36
1.0
 17
0.0
 27
0.0
 37
0.0
 40
341.0
 41
1.24
 42
50.0
 43
0.0
 44
0.0
 50
0.0
 51
0.0
 71
     0
 72
   100
 73
     1
 74
     3
 75
     0
 76
     0
 77
     0
 78
     0
  0
ENDTAB
  0
TABLE
  2
LTYPE
  5
5
330
0
100
AcDbSymbolTable
 70
     1
  0
LTYPE
  5
14
330
5
100
AcDbSymbolTableRecord
100
AcDbLinetypeTableRecord
  2
BYBLOCK
 70
     0
  3

 72
    65
 73
     0
 40
0.0
  0
LTYPE
  5
15
330
5
100
AcDbSymbolTableRecord
100
AcDbLinetypeTableRecord
  2
BYLAYER
 70
     0
  3

 72
    65
 73
     0
 40
0.0
  0
LTYPE
  5
16
330
5
100
AcDbSymbolTableRecord
100
AcDbLinetypeTableRecord
  2
CONTINUOUS
 70
     0
  3
Solid line
 72
    65
 73
     0
 40
0.0
  0
ENDTAB
  0
TABLE
  2
LAYER
  5
2
100
AcDbSymbolTable
 70
2
  0
LAYER
  5
50
100
AcDbSymbolTableRecord
100
AcDbLayerTableRecord
  2
0
 70
0
  6
CONTINUOUS
  0
LAYER
  5
51
100
AcDbSymbolTableRecord
100
AcDbLayerTableRecord
  2
Layer_1
 70
0
  6
CONTINUOUS
  0
ENDTAB
  0
TABLE
  2
STYLE
  5
3
330
0
100
AcDbSymbolTable
 70
     1
  0
STYLE
  5
11
330
3
100
AcDbSymbolTableRecord
100
AcDbTextStyleTableRecord
  2
STANDARD
 70
     0
 40
0.0
 41
1.0
 50
0.0
 71
     0
 42
2.5
  3
txt
  4

  0
ENDTAB
  0
TABLE
  2
VIEW
  5
6
330
0
100
AcDbSymbolTable
 70
     0
  0
ENDTAB
  0
TABLE
  2
UCS
  5
7
330
0
100
AcDbSymbolTable
 70
     0
  0
ENDTAB
  0
TABLE
  2
APPID
  5
9
330
0
100
AcDbSymbolTable
 70
     2
  0
APPID
  5
12
330
9
100
AcDbSymbolTableRecord
100
AcDbRegAppTableRecord
  2
ACAD
 70
     0
  0
ENDTAB
  0
TABLE
  2
DIMSTYLE
  5
A
330
0
100
AcDbSymbolTable
 70
     1
  0
DIMSTYLE
105
27
330
A
100
AcDbSymbolTableRecord
100
AcDbDimStyleTableRecord
  2
ISO-25
 70
     0
  3

  4

  5

  6

  7

 40
1.0
 41
2.5
 42
0.625
 43
3.75
 44
1.25
 45
0.0
 46
0.0
 47
0.0
 48
0.0
140
2.5
141
2.5
142
0.0
143
0.03937007874016
144
1.0
145
0.0
146
1.0
147
0.625
 71
     0
 72
     0
 73
     0
 74
     0
 75
     0
 76
     0
 77
     1
 78
     8
170
     0
171
     3
172
     1
173
     0
174
     0
175
     0
176
     0
177
     0
178
     0
270
     2
271
     2
272
     2
273
     2
274
     3
340
11
275
     0
280
     0
281
     0
282
     0
283
     0
284
     8
285
     0
286
     0
287
     3
288
     0
  0
ENDTAB
  0
TABLE
  2
BLOCK_RECORD
  5
1
330
0
100
AcDbSymbolTable
 70
     1
  0
BLOCK_RECORD
  5
1F
330
1
100
AcDbSymbolTableRecord
100
AcDbBlockTableRecord
  2
*MODEL_SPACE
  0
BLOCK_RECORD
  5
1B
330
1
100
AcDbSymbolTableRecord
100
AcDbBlockTableRecord
  2
*PAPER_SPACE
  0
ENDTAB
  0
ENDSEC
  0
SECTION
  2
BLOCKS
  0
BLOCK
  5
20
330
1F
100
AcDbEntity
  8
0
100
AcDbBlockBegin
  2
*MODEL_SPACE
 70
     0
 10
0.0
 20
0.0
 30
0.0
  3
*MODEL_SPACE
  1

  0
ENDBLK
  5
21
330
1F
100
AcDbEntity
  8
0
100
AcDbBlockEnd
  0
BLOCK
  5
1C
330
1B
100
AcDbEntity
 67
     1
  8
0
100
AcDbBlockBegin
  2
*PAPER_SPACE
  1

  0
ENDBLK
  5
1D
330
1B
100
AcDbEntity
 67
     1
  8
0
100
AcDbBlockEnd
  0
ENDSEC
  0
SECTION
  2
ENTITIES
  0
LWPOLYLINE
  5
100
100
AcDbEntity
  8
Layer_1
 62
7
100
AcDbPolyline
 90
89
 70
0
 10
11.100000
 20
76.589744
 30
0.0
 10
11.100000
 20
67.802248
 30
0.0
 10
11.100000
 20
59.014744
 30
0.0
 10
11.100000
 20
50.227248
 30
0.0
 10
11.100000
 20
41.439744
 30
0.0
 10
11.100000
 20
32.652224
 30
0.0
 10
11.100000
 20
23.864784
 30
0.0
 10
11.100000
 20
15.077264
 30
0.0
 10
11.100000
 20
6.289744
 30
0.0
 10
13.234375
 20
6.289744
 30
0.0
 10
15.368750
 20
6.289744
 30
0.0
 10
17.503125
 20
6.289744
 30
0.0
 10
19.637500
 20
6.289744
 30
0.0
 10
21.771875
 20
6.289744
 30
0.0
 10
23.906250
 20
6.289744
 30
0.0
 10
26.040625
 20
6.289744
 30
0.0
 10
28.175000
 20
6.289744
 30
0.0
 10
28.175000
 20
9.874144
 30
0.0
 10
28.175000
 20
13.458464
 30
0.0
 10
28.175000
 20
17.042864
 30
0.0
 10
28.175000
 20
20.627264
 30
0.0
 10
28.175000
 20
24.211584
 30
0.0
 10
28.175000
 20
27.795984
 30
0.0
 10
28.175000
 20
31.380384
 30
0.0
 10
28.175000
 20
34.964784
 30
0.0
 10
30.179682
 20
35.095664
 30
0.0
 10
32.169573
 20
34.999184
 30
0.0
 10
34.107010
 20
34.662224
 30
0.0
 10
35.954328
 20
34.071504
 30
0.0
 10
37.673866
 20
33.213824
 30
0.0
 10
39.227959
 20
32.075984
 30
0.0
 10
40.578945
 20
30.644624
 30
0.0
 10
41.689158
 20
28.906704
 30
0.0
 10
43.655626
 20
26.114864
 30
0.0
 10
45.594898
 20
23.303584
 30
0.0
 10
47.513501
 20
20.477584
 30
0.0
 10
49.417965
 20
17.641424
 30
0.0
 10
51.314818
 20
14.799904
 30
0.0
 10
53.210589
 20
11.957664
 30
0.0
 10
55.111806
 20
9.119344
 30
0.0
 10
57.025000
 20
6.289744
 30
0.0
 10
59.568750
 20
6.289744
 30
0.0
 10
62.112500
 20
6.289744
 30
0.0
 10
64.656250
 20
6.289744
 30
0.0
 10
67.200000
 20
6.289744
 30
0.0
 10
69.743750
 20
6.289744
 30
0.0
 10
72.287500
 20
6.289744
 30
0.0
 10
74.831250
 20
6.289744
 30
0.0
 10
77.375000
 20
6.289744
 30
0.0
 10
74.710983
 20
10.243264
 30
0.0
 10
72.198450
 20
14.339824
 30
0.0
 10
69.745384
 20
18.495664
 30
0.0
 10
67.259767
 20
22.627104
 30
0.0
 10
64.649584
 20
26.650384
 30
0.0
 10
61.822816
 20
30.481584
 30
0.0
 10
58.687446
 20
34.037104
 30
0.0
 10
55.151457
 20
37.233104
 30
0.0
 10
56.083342
 20
37.664464
 30
0.0
 10
57.174982
 20
38.122784
 30
0.0
 10
58.374954
 20
38.621024
 30
0.0
 10
59.631835
 20
39.172224
 30
0.0
 10
60.894203
 20
39.789264
 30
0.0
 10
62.110635
 20
40.485024
 30
0.0
 10
63.229708
 20
41.272544
 30
0.0
 10
64.200000
 20
42.164744
 30
0.0
 10
67.667629
 20
46.314608
 30
0.0
 10
69.756548
 20
51.250320
 30
0.0
 10
70.516986
 20
56.606648
 30
0.0
 10
69.999174
 20
62.018384
 30
0.0
 10
68.253339
 20
67.120280
 30
0.0
 10
65.329713
 20
71.547128
 30
0.0
 10
61.278523
 20
74.933688
 30
0.0
 10
56.150000
 20
76.914744
 30
0.0
 10
50.788034
 20
77.701784
 30
0.0
 10
45.385703
 20
78.140048
 30
0.0
 10
39.953292
 20
78.314264
 30
0.0
 10
34.501085
 20
78.309464
 30
0.0
 10
29.039367
 20
78.209736
 30
0.0
 10
23.578424
 20
78.100112
 30
0.0
 10
18.128540
 20
78.065312
 30
0.0
 10
12.700000
 20
78.190056
 30
0.0
 10
12.150090
 20
78.250856
 30
0.0
 10
11.725607
 20
78.262616
 30
0.0
 10
11.413824
 20
78.212616
 30
0.0
 10
11.202015
 20
78.088056
 30
0.0
 10
11.077454
 20
77.876240
 30
0.0
 10
11.027414
 20
77.564456
 30
0.0
 10
11.039174
 20
77.139976
 30
0.0
 10
11.100000
 20
76.589744
 30
0.0
  0
LWPOLYLINE
  5
101
100
AcDbEntity
  8
Layer_1
 62
7
100
AcDbPolyline
 90
41
 70
0
 10
37.400000
 20
63.364744
 30
0.0
 10
39.435523
 20
63.334264
 30
0.0
 10
41.682904
 20
63.393144
 30
0.0
 10
44.019979
 20
63.413224
 30
0.0
 10
46.324583
 20
63.266088
 30
0.0
 10
48.474552
 20
62.823488
 30
0.0
 10
50.347721
 20
61.957104
 30
0.0
 10
51.821925
 20
60.538632
 30
0.0
 10
52.775000
 20
58.439784
 30
0.0
 10
53.089971
 20
56.793488
 30
0.0
 10
53.002145
 20
55.155344
 30
0.0
 10
52.550066
 20
53.596184
 30
0.0
 10
51.772280
 20
52.186864
 30
0.0
 10
50.707335
 20
50.998216
 30
0.0
 10
49.393776
 20
50.101088
 30
0.0
 10
47.870149
 20
49.566336
 30
0.0
 10
46.175000
 20
49.464784
 30
0.0
 10
43.929515
 20
49.303040
 30
0.0
 10
41.681562
 20
49.202120
 30
0.0
 10
39.431730
 20
49.148920
 30
0.0
 10
37.180608
 20
49.130280
 30
0.0
 10
34.928785
 20
49.133480
 30
0.0
 10
32.676850
 20
49.144760
 30
0.0
 10
30.425392
 20
49.151160
 30
0.0
 10
28.175000
 20
49.139880
 30
0.0
 10
28.287441
 20
50.905560
 30
0.0
 10
28.263897
 20
52.807232
 30
0.0
 10
28.170586
 20
54.778664
 30
0.0
 10
28.073721
 20
56.753656
 30
0.0
 10
28.039513
 20
58.665984
 30
0.0
 10
28.134181
 20
60.449448
 30
0.0
 10
28.423938
 20
62.037816
 30
0.0
 10
28.974996
 20
63.364880
 30
0.0
 10
30.028121
 20
63.364880
 30
0.0
 10
31.081246
 20
63.364880
 30
0.0
 10
32.134371
 20
63.364880
 30
0.0
 10
33.187496
 20
63.364880
 30
0.0
 10
34.240621
 20
63.364880
 30
0.0
 10
35.293746
 20
63.364880
 30
0.0
 10
36.346871
 20
63.364880
 30
0.0
 10
37.400000
 20
63.364744
 30
0.0
  0
ENDSEC
  0
SECTION
  2
OBJECTS
  0
DICTIONARY
  5
C
330
0
100
AcDbDictionary
  3
ACAD_GROUP
350
D
  3
ACAD_MLINESTYLE
350
17
  0
DICTIONARY
  5
D
330
C
100
AcDbDictionary
  0
DICTIONARY
  5
1A
330
C
100
AcDbDictionary
  0
DICTIONARY
  5
17
330
C
100
AcDbDictionary
  3
STANDARD
350
18
  0
DICTIONARY
  5
19
330
C
100
AcDbDictionary
  0
ENDSEC
  0
EOF
