  0
SECTION
  2
HEADER
  9
$ACADVER
  1
AC1014
  9
$HANDSEED
  5
FFFF
  9
$MEASUREMENT
 70
     1
  0
ENDSEC
  0
SECTION
  2
TABLES
  0
TABLE
  2
VPORT
  5
8
330
0
100
AcDbSymbolTable
 70
     4
  0
VPORT
  5
2E
330
8
100
AcDbSymbolTableRecord
100
AcDbViewportTableRecord
  2
*ACTIVE
 70
     0
 10
0.0
 20
0.0
 11
1.0
 21
1.0
 12
210.0
 22
148.5
 13
0.0
 23
0.0
 14
10.0
 24
10.0
 15
10.0
 25
10.0
 16
0.0
 26
0.0
 36
1.0
 17
0.0
 27
0.0
 37
0.0
 40
341.0
 41
1.24
 42
50.0
 43
0.0
 44
0.0
 50
0.0
 51
0.0
 71
     0
 72
   100
 73
     1
 74
     3
 75
     0
 76
     0
 77
     0
 78
     0
  0
ENDTAB
  0
TABLE
  2
LTYPE
  5
5
330
0
100
AcDbSymbolTable
 70
     1
  0
LTYPE
  5
14
330
5
100
AcDbSymbolTableRecord
100
AcDbLinetypeTableRecord
  2
BYBLOCK
 70
     0
  3

 72
    65
 73
     0
 40
0.0
  0
LTYPE
  5
15
330
5
100
AcDbSymbolTableRecord
100
AcDbLinetypeTableRecord
  2
BYLAYER
 70
     0
  3

 72
    65
 73
     0
 40
0.0
  0
LTYPE
  5
16
330
5
100
AcDbSymbolTableRecord
100
AcDbLinetypeTableRecord
  2
CONTINUOUS
 70
     0
  3
Solid line
 72
    65
 73
     0
 40
0.0
  0
ENDTAB
  0
TABLE
  2
LAYER
  5
2
100
AcDbSymbolTable
 70
2
  0
LAYER
  5
50
100
AcDbSymbolTableRecord
100
AcDbLayerTableRecord
  2
0
 70
0
  6
CONTINUOUS
  0
LAYER
  5
51
100
AcDbSymbolTableRecord
100
AcDbLayerTableRecord
  2
Layer_1
 70
0
  6
CONTINUOUS
  0
ENDTAB
  0
TABLE
  2
STYLE
  5
3
330
0
100
AcDbSymbolTable
 70
     1
  0
STYLE
  5
11
330
3
100
AcDbSymbolTableRecord
100
AcDbTextStyleTableRecord
  2
STANDARD
 70
     0
 40
0.0
 41
1.0
 50
0.0
 71
     0
 42
2.5
  3
txt
  4

  0
ENDTAB
  0
TABLE
  2
VIEW
  5
6
330
0
100
AcDbSymbolTable
 70
     0
  0
ENDTAB
  0
TABLE
  2
UCS
  5
7
330
0
100
AcDbSymbolTable
 70
     0
  0
ENDTAB
  0
TABLE
  2
APPID
  5
9
330
0
100
AcDbSymbolTable
 70
     2
  0
APPID
  5
12
330
9
100
AcDbSymbolTableRecord
100
AcDbRegAppTableRecord
  2
ACAD
 70
     0
  0
ENDTAB
  0
TABLE
  2
DIMSTYLE
  5
A
330
0
100
AcDbSymbolTable
 70
     1
  0
DIMSTYLE
105
27
330
A
100
AcDbSymbolTableRecord
100
AcDbDimStyleTableRecord
  2
ISO-25
 70
     0
  3

  4

  5

  6

  7

 40
1.0
 41
2.5
 42
0.625
 43
3.75
 44
1.25
 45
0.0
 46
0.0
 47
0.0
 48
0.0
140
2.5
141
2.5
142
0.0
143
0.03937007874016
144
1.0
145
0.0
146
1.0
147
0.625
 71
     0
 72
     0
 73
     0
 74
     0
 75
     0
 76
     0
 77
     1
 78
     8
170
     0
171
     3
172
     1
173
     0
174
     0
175
     0
176
     0
177
     0
178
     0
270
     2
271
     2
272
     2
273
     2
274
     3
340
11
275
     0
280
     0
281
     0
282
     0
283
     0
284
     8
285
     0
286
     0
287
     3
288
     0
  0
ENDTAB
  0
TABLE
  2
BLOCK_RECORD
  5
1
330
0
100
AcDbSymbolTable
 70
     1
  0
BLOCK_RECORD
  5
1F
330
1
100
AcDbSymbolTableRecord
100
AcDbBlockTableRecord
  2
*MODEL_SPACE
  0
BLOCK_RECORD
  5
1B
330
1
100
AcDbSymbolTableRecord
100
AcDbBlockTableRecord
  2
*PAPER_SPACE
  0
ENDTAB
  0
ENDSEC
  0
SECTION
  2
BLOCKS
  0
BLOCK
  5
20
330
1F
100
AcDbEntity
  8
0
100
AcDbBlockBegin
  2
*MODEL_SPACE
 70
     0
 10
0.0
 20
0.0
 30
0.0
  3
*MODEL_SPACE
  1

  0
ENDBLK
  5
21
330
1F
100
AcDbEntity
  8
0
100
AcDbBlockEnd
  0
BLOCK
  5
1C
330
1B
100
AcDbEntity
 67
     1
  8
0
100
AcDbBlockBegin
  2
*PAPER_SPACE
  1

  0
ENDBLK
  5
1D
330
1B
100
AcDbEntity
 67
     1
  8
0
100
AcDbBlockEnd
  0
ENDSEC
  0
SECTION
  2
ENTITIES
  0
LWPOLYLINE
  5
100
100
AcDbEntity
  8
Layer_1
 62
7
100
AcDbPolyline
 90
73
 70
0
 10
14.000000
 20
77.439368
 30
0.0
 10
14.000000
 20
68.648743
 30
0.0
 10
14.000000
 20
59.858118
 30
0.0
 10
14.000000
 20
51.067493
 30
0.0
 10
14.000000
 20
42.276868
 30
0.0
 10
14.000000
 20
33.486243
 30
0.0
 10
14.000000
 20
24.695618
 30
0.0
 10
14.000000
 20
15.904993
 30
0.0
 10
14.000000
 20
7.114368
 30
0.0
 10
19.591133
 20
7.198057
 30
0.0
 10
25.195060
 20
7.177217
 30
0.0
 10
30.805759
 20
7.109121
 30
0.0
 10
36.417206
 20
7.051041
 30
0.0
 10
42.023377
 20
7.060249
 30
0.0
 10
47.618249
 20
7.194025
 30
0.0
 10
53.195798
 20
7.509640
 30
0.0
 10
58.750000
 20
8.064368
 30
0.0
 10
63.916722
 20
9.803856
 30
0.0
 10
68.217251
 20
12.979492
 30
0.0
 10
71.530064
 20
17.234080
 30
0.0
 10
73.733635
 20
22.210422
 30
0.0
 10
74.706439
 20
27.551319
 30
0.0
 10
74.326951
 20
32.899574
 30
0.0
 10
72.473646
 20
37.897990
 30
0.0
 10
69.025000
 20
42.189368
 30
0.0
 10
68.505318
 20
42.740195
 30
0.0
 10
67.855098
 20
43.248797
 30
0.0
 10
67.127689
 20
43.721435
 30
0.0
 10
66.376440
 20
44.164373
 30
0.0
 10
65.654698
 20
44.583872
 30
0.0
 10
65.015812
 20
44.986196
 30
0.0
 10
64.513130
 20
45.377607
 30
0.0
 10
64.200000
 20
45.764368
 30
0.0
 10
67.234697
 20
48.528159
 30
0.0
 10
69.434902
 20
51.902633
 30
0.0
 10
70.796832
 20
55.691638
 30
0.0
 10
71.316706
 20
59.699026
 30
0.0
 10
70.990742
 20
63.728642
 30
0.0
 10
69.815158
 20
67.584339
 30
0.0
 10
67.786171
 20
71.069964
 30
0.0
 10
64.900000
 20
73.989368
 30
0.0
 10
61.387874
 20
76.301524
 30
0.0
 10
57.594561
 20
77.793584
 30
0.0
 10
53.586941
 20
78.635468
 30
0.0
 10
49.431891
 20
78.997093
 30
0.0
 10
45.196294
 20
79.048377
 30
0.0
 10
40.947026
 20
78.959239
 30
0.0
 10
36.750969
 20
78.899597
 30
0.0
 10
32.675000
 20
79.039368
 30
0.0
 10
30.340625
 20
79.039368
 30
0.0
 10
28.006250
 20
79.039368
 30
0.0
 10
25.671875
 20
79.039368
 30
0.0
 10
23.337500
 20
79.039368
 30
0.0
 10
21.003125
 20
79.039368
 30
0.0
 10
18.668750
 20
79.039368
 30
0.0
 10
16.334375
 20
79.039368
 30
0.0
 10
14.000000
 20
79.039368
 30
0.0
 10
14.000000
 20
78.939368
 30
0.0
 10
14.000000
 20
78.839368
 30
0.0
 10
14.000000
 20
78.739368
 30
0.0
 10
14.000000
 20
78.639368
 30
0.0
 10
14.000000
 20
78.539368
 30
0.0
 10
14.000000
 20
78.439368
 30
0.0
 10
14.000000
 20
78.339368
 30
0.0
 10
14.000000
 20
78.239368
 30
0.0
 10
14.000000
 20
78.139368
 30
0.0
 10
14.000000
 20
78.039368
 30
0.0
 10
14.000000
 20
77.939368
 30
0.0
 10
14.000000
 20
77.839368
 30
0.0
 10
14.000000
 20
77.739368
 30
0.0
 10
14.000000
 20
77.639368
 30
0.0
 10
14.000000
 20
77.539368
 30
0.0
 10
14.000000
 20
77.439368
 30
0.0
  0
LWPOLYLINE
  5
101
100
AcDbEntity
  8
Layer_1
 62
7
100
AcDbPolyline
 90
41
 70
0
 10
37.450000
 20
64.389368
 30
0.0
 10
39.450134
 20
64.231018
 30
0.0
 10
41.557886
 20
64.267370
 30
0.0
 10
43.720767
 20
64.380841
 30
0.0
 10
45.886289
 20
64.453841
 30
0.0
 10
48.001961
 20
64.368780
 30
0.0
 10
50.015296
 20
64.008073
 30
0.0
 10
51.873806
 20
63.254130
 30
0.0
 10
53.525000
 20
61.989366
 30
0.0
 10
54.397073
 20
60.417592
 30
0.0
 10
54.743652
 20
58.732858
 30
0.0
 10
54.612722
 20
57.036718
 30
0.0
 10
54.052273
 20
55.430729
 30
0.0
 10
53.110289
 20
54.016444
 30
0.0
 10
51.834758
 20
52.895418
 30
0.0
 10
50.273666
 20
52.169207
 30
0.0
 10
48.475000
 20
51.939366
 30
0.0
 10
46.303310
 20
51.813413
 30
0.0
 10
44.129718
 20
51.739885
 30
0.0
 10
41.954701
 20
51.706541
 30
0.0
 10
39.778738
 20
51.701181
 30
0.0
 10
37.602309
 20
51.711501
 30
0.0
 10
35.425890
 20
51.725301
 30
0.0
 10
33.249961
 20
51.730341
 30
0.0
 10
31.075000
 20
51.714389
 30
0.0
 10
31.311242
 20
53.362522
 30
0.0
 10
31.242674
 20
55.315464
 30
0.0
 10
31.030811
 20
57.411701
 30
0.0
 10
30.837166
 20
59.489721
 30
0.0
 10
30.823246
 20
61.388012
 30
0.0
 10
31.150571
 20
62.945062
 30
0.0
 10
31.980650
 20
63.999358
 30
0.0
 10
33.474994
 20
64.389389
 30
0.0
 10
33.971870
 20
64.389389
 30
0.0
 10
34.468744
 20
64.389389
 30
0.0
 10
34.965619
 20
64.389389
 30
0.0
 10
35.462494
 20
64.389389
 30
0.0
 10
35.959370
 20
64.389389
 30
0.0
 10
36.456244
 20
64.389389
 30
0.0
 10
36.953119
 20
64.389389
 30
0.0
 10
37.450000
 20
64.389368
 30
0.0
  0
LWPOLYLINE
  5
102
100
AcDbEntity
  8
Layer_1
 62
7
100
AcDbPolyline
 90
41
 70
0
 10
40.675000
 20
37.064368
 30
0.0
 10
42.806483
 20
36.992528
 30
0.0
 10
45.125721
 20
36.993728
 30
0.0
 10
47.523177
 20
36.949272
 30
0.0
 10
49.889317
 20
36.740523
 30
0.0
 10
52.114605
 20
36.248820
 30
0.0
 10
54.089505
 20
35.355502
 30
0.0
 10
55.704482
 20
33.941912
 30
0.0
 10
56.850000
 20
31.889388
 30
0.0
 10
57.268192
 20
30.177664
 30
0.0
 10
57.262752
 20
28.448901
 30
0.0
 10
56.869203
 20
26.782042
 30
0.0
 10
56.123135
 20
25.256034
 30
0.0
 10
55.060115
 20
23.949819
 30
0.0
 10
53.715711
 20
22.942344
 30
0.0
 10
52.125491
 20
22.312552
 30
0.0
 10
50.325022
 20
22.139388
 30
0.0
 10
47.922655
 20
21.993628
 30
0.0
 10
45.518062
 20
21.910254
 30
0.0
 10
43.111801
 20
21.874430
 30
0.0
 10
40.704430
 20
21.871310
 30
0.0
 10
38.296509
 20
21.886086
 30
0.0
 10
35.888594
 20
21.903910
 30
0.0
 10
33.481246
 20
21.909910
 30
0.0
 10
31.075022
 20
21.889334
 30
0.0
 10
31.075022
 20
23.786209
 30
0.0
 10
31.075022
 20
25.683084
 30
0.0
 10
31.075022
 20
27.579958
 30
0.0
 10
31.075022
 20
29.476834
 30
0.0
 10
31.075022
 20
31.373709
 30
0.0
 10
31.075022
 20
33.270583
 30
0.0
 10
31.075022
 20
35.167458
 30
0.0
 10
31.075022
 20
37.064334
 30
0.0
 10
32.275022
 20
37.064334
 30
0.0
 10
33.475022
 20
37.064334
 30
0.0
 10
34.675022
 20
37.064334
 30
0.0
 10
35.875022
 20
37.064334
 30
0.0
 10
37.075022
 20
37.064334
 30
0.0
 10
38.275022
 20
37.064334
 30
0.0
 10
39.475022
 20
37.064334
 30
0.0
 10
40.675000
 20
37.064368
 30
0.0
  0
ENDSEC
  0
SECTION
  2
OBJECTS
  0
DICTIONARY
  5
C
330
0
100
AcDbDictionary
  3
ACAD_GROUP
350
D
  3
ACAD_MLINESTYLE
350
17
  0
DICTIONARY
  5
D
330
C
100
AcDbDictionary
  0
DICTIONARY
  5
1A
330
C
100
AcDbDictionary
  0
DICTIONARY
  5
17
330
C
100
AcDbDictionary
  3
STANDARD
350
18
  0
DICTIONARY
  5
19
330
C
100
AcDbDictionary
  0
ENDSEC
  0
EOF
