  0
SECTION
  2
HEADER
  9
$ACADVER
  1
AC1014
  9
$HANDSEED
  5
FFFF
  9
$MEASUREMENT
 70
     1
  0
ENDSEC
  0
SECTION
  2
TABLES
  0
TABLE
  2
VPORT
  5
8
330
0
100
AcDbSymbolTable
 70
     4
  0
VPORT
  5
2E
330
8
100
AcDbSymbolTableRecord
100
AcDbViewportTableRecord
  2
*ACTIVE
 70
     0
 10
0.0
 20
0.0
 11
1.0
 21
1.0
 12
210.0
 22
148.5
 13
0.0
 23
0.0
 14
10.0
 24
10.0
 15
10.0
 25
10.0
 16
0.0
 26
0.0
 36
1.0
 17
0.0
 27
0.0
 37
0.0
 40
341.0
 41
1.24
 42
50.0
 43
0.0
 44
0.0
 50
0.0
 51
0.0
 71
     0
 72
   100
 73
     1
 74
     3
 75
     0
 76
     0
 77
     0
 78
     0
  0
ENDTAB
  0
TABLE
  2
LTYPE
  5
5
330
0
100
AcDbSymbolTable
 70
     1
  0
LTYPE
  5
14
330
5
100
AcDbSymbolTableRecord
100
AcDbLinetypeTableRecord
  2
BYBLOCK
 70
     0
  3

 72
    65
 73
     0
 40
0.0
  0
LTYPE
  5
15
330
5
100
AcDbSymbolTableRecord
100
AcDbLinetypeTableRecord
  2
BYLAYER
 70
     0
  3

 72
    65
 73
     0
 40
0.0
  0
LTYPE
  5
16
330
5
100
AcDbSymbolTableRecord
100
AcDbLinetypeTableRecord
  2
CONTINUOUS
 70
     0
  3
Solid line
 72
    65
 73
     0
 40
0.0
  0
ENDTAB
  0
TABLE
  2
LAYER
  5
2
100
AcDbSymbolTable
 70
2
  0
LAYER
  5
50
100
AcDbSymbolTableRecord
100
AcDbLayerTableRecord
  2
0
 70
0
  6
CONTINUOUS
  0
LAYER
  5
51
100
AcDbSymbolTableRecord
100
AcDbLayerTableRecord
  2
Layer_1
 70
0
  6
CONTINUOUS
  0
ENDTAB
  0
TABLE
  2
STYLE
  5
3
330
0
100
AcDbSymbolTable
 70
     1
  0
STYLE
  5
11
330
3
100
AcDbSymbolTableRecord
100
AcDbTextStyleTableRecord
  2
STANDARD
 70
     0
 40
0.0
 41
1.0
 50
0.0
 71
     0
 42
2.5
  3
txt
  4

  0
ENDTAB
  0
TABLE
  2
VIEW
  5
6
330
0
100
AcDbSymbolTable
 70
     0
  0
ENDTAB
  0
TABLE
  2
UCS
  5
7
330
0
100
AcDbSymbolTable
 70
     0
  0
ENDTAB
  0
TABLE
  2
APPID
  5
9
330
0
100
AcDbSymbolTable
 70
     2
  0
APPID
  5
12
330
9
100
AcDbSymbolTableRecord
100
AcDbRegAppTableRecord
  2
ACAD
 70
     0
  0
ENDTAB
  0
TABLE
  2
DIMSTYLE
  5
A
330
0
100
AcDbSymbolTable
 70
     1
  0
DIMSTYLE
105
27
330
A
100
AcDbSymbolTableRecord
100
AcDbDimStyleTableRecord
  2
ISO-25
 70
     0
  3

  4

  5

  6

  7

 40
1.0
 41
2.5
 42
0.625
 43
3.75
 44
1.25
 45
0.0
 46
0.0
 47
0.0
 48
0.0
140
2.5
141
2.5
142
0.0
143
0.03937007874016
144
1.0
145
0.0
146
1.0
147
0.625
 71
     0
 72
     0
 73
     0
 74
     0
 75
     0
 76
     0
 77
     1
 78
     8
170
     0
171
     3
172
     1
173
     0
174
     0
175
     0
176
     0
177
     0
178
     0
270
     2
271
     2
272
     2
273
     2
274
     3
340
11
275
     0
280
     0
281
     0
282
     0
283
     0
284
     8
285
     0
286
     0
287
     3
288
     0
  0
ENDTAB
  0
TABLE
  2
BLOCK_RECORD
  5
1
330
0
100
AcDbSymbolTable
 70
     1
  0
BLOCK_RECORD
  5
1F
330
1
100
AcDbSymbolTableRecord
100
AcDbBlockTableRecord
  2
*MODEL_SPACE
  0
BLOCK_RECORD
  5
1B
330
1
100
AcDbSymbolTableRecord
100
AcDbBlockTableRecord
  2
*PAPER_SPACE
  0
ENDTAB
  0
ENDSEC
  0
SECTION
  2
BLOCKS
  0
BLOCK
  5
20
330
1F
100
AcDbEntity
  8
0
100
AcDbBlockBegin
  2
*MODEL_SPACE
 70
     0
 10
0.0
 20
0.0
 30
0.0
  3
*MODEL_SPACE
  1

  0
ENDBLK
  5
21
330
1F
100
AcDbEntity
  8
0
100
AcDbBlockEnd
  0
BLOCK
  5
1C
330
1B
100
AcDbEntity
 67
     1
  8
0
100
AcDbBlockBegin
  2
*PAPER_SPACE
  1

  0
ENDBLK
  5
1D
330
1B
100
AcDbEntity
 67
     1
  8
0
100
AcDbBlockEnd
  0
ENDSEC
  0
SECTION
  2
ENTITIES
  0
LWPOLYLINE
  5
100
100
AcDbEntity
  8
Layer_1
 62
7
100
AcDbPolyline
 90
137
 70
0
 10
42.000000
 20
79.189368
 30
0.0
 10
38.021532
 20
79.035717
 30
0.0
 10
34.032315
 20
78.367303
 30
0.0
 10
30.159201
 20
77.179081
 30
0.0
 10
26.529042
 20
75.466010
 30
0.0
 10
23.268690
 20
73.223046
 30
0.0
 10
20.504998
 20
70.445146
 30
0.0
 10
18.364817
 20
67.127268
 30
0.0
 10
16.975000
 20
63.264368
 30
0.0
 10
16.307996
 20
59.395375
 30
0.0
 10
16.496346
 20
55.567398
 30
0.0
 10
17.455873
 20
51.878710
 30
0.0
 10
19.102402
 20
48.427594
 30
0.0
 10
21.351754
 20
45.312323
 30
0.0
 10
24.119756
 20
42.631177
 30
0.0
 10
27.322230
 20
40.482433
 30
0.0
 10
30.875000
 20
38.964368
 30
0.0
 10
33.816539
 20
37.816169
 30
0.0
 10
36.866902
 20
36.922183
 30
0.0
 10
39.977797
 20
36.174244
 30
0.0
 10
43.100930
 20
35.464184
 30
0.0
 10
46.188009
 20
34.683834
 30
0.0
 10
49.190742
 20
33.725026
 30
0.0
 10
52.060837
 20
32.479594
 30
0.0
 10
54.750000
 20
30.839368
 30
0.0
 10
55.706149
 20
28.922350
 30
0.0
 10
55.842631
 20
26.993758
 30
0.0
 10
55.292956
 20
25.139488
 30
0.0
 10
54.190630
 20
23.445437
 30
0.0
 10
52.669164
 20
21.997502
 30
0.0
 10
50.862065
 20
20.881581
 30
0.0
 10
48.902841
 20
20.183570
 30
0.0
 10
46.925000
 20
19.989368
 30
0.0
 10
44.348642
 20
19.662955
 30
0.0
 10
41.757870
 20
19.802167
 30
0.0
 10
39.244461
 20
20.389126
 30
0.0
 10
36.900190
 20
21.405952
 30
0.0
 10
34.816833
 20
22.834767
 30
0.0
 10
33.086165
 20
24.657694
 30
0.0
 10
31.799962
 20
26.856854
 30
0.0
 10
31.050000
 20
29.414368
 30
0.0
 10
30.906376
 20
31.161698
 30
0.0
 10
30.276111
 20
32.250054
 30
0.0
 10
29.255354
 20
32.810586
 30
0.0
 10
27.940254
 20
32.974442
 30
0.0
 10
26.426963
 20
32.872771
 30
0.0
 10
24.811629
 20
32.636722
 30
0.0
 10
23.190401
 20
32.397442
 30
0.0
 10
21.659430
 20
32.286081
 30
0.0
 10
20.392398
 20
32.067605
 30
0.0
 10
18.923622
 20
32.001333
 30
0.0
 10
17.399541
 20
31.973245
 30
0.0
 10
15.966596
 20
31.869301
 30
0.0
 10
14.771229
 20
31.575472
 30
0.0
 10
13.959879
 20
30.977727
 30
0.0
 10
13.678990
 20
29.962035
 30
0.0
 10
14.075000
 20
28.414366
 30
0.0
 10
14.810326
 20
24.343788
 30
0.0
 10
16.170737
 20
20.457701
 30
0.0
 10
18.105162
 20
16.840906
 30
0.0
 10
20.562530
 20
13.578204
 30
0.0
 10
23.491770
 20
10.754398
 30
0.0
 10
26.841809
 20
8.454289
 30
0.0
 10
30.561576
 20
6.762678
 30
0.0
 10
34.600000
 20
5.764366
 30
0.0
 10
39.166296
 20
5.159350
 30
0.0
 10
43.905746
 20
4.888254
 30
0.0
 10
48.693730
 20
5.038854
 30
0.0
 10
53.405630
 20
5.698928
 30
0.0
 10
57.916826
 20
6.956240
 30
0.0
 10
62.102699
 20
8.898568
 30
0.0
 10
65.838630
 20
11.613688
 30
0.0
 10
69.000000
 20
15.189368
 30
0.0
 10
71.309269
 20
19.308120
 30
0.0
 10
72.621817
 20
23.828347
 30
0.0
 10
72.964592
 20
28.535919
 30
0.0
 10
72.364540
 20
33.216704
 30
0.0
 10
70.848608
 20
37.656573
 30
0.0
 10
68.443743
 20
41.641393
 30
0.0
 10
65.176891
 20
44.957035
 30
0.0
 10
61.075000
 20
47.389368
 30
0.0
 10
57.771629
 20
48.900698
 30
0.0
 10
54.332388
 20
50.066230
 30
0.0
 10
50.810515
 20
51.012158
 30
0.0
 10
47.259250
 20
51.864669
 30
0.0
 10
43.731827
 20
52.749955
 30
0.0
 10
40.281486
 20
53.794206
 30
0.0
 10
36.961465
 20
55.123614
 30
0.0
 10
33.825000
 20
56.864368
 30
0.0
 10
33.051814
 20
58.012235
 30
0.0
 10
32.802694
 20
59.193393
 30
0.0
 10
32.998829
 20
60.353553
 30
0.0
 10
33.561410
 20
61.438429
 30
0.0
 10
34.411627
 20
62.393735
 30
0.0
 10
35.470672
 20
63.165185
 30
0.0
 10
36.659732
 20
63.698491
 30
0.0
 10
37.900000
 20
63.939368
 30
0.0
 10
40.174497
 20
64.392927
 30
0.0
 10
42.597562
 20
64.589738
 30
0.0
 10
45.049893
 20
64.479987
 30
0.0
 10
47.412190
 20
64.013863
 30
0.0
 10
49.565150
 20
63.141552
 30
0.0
 10
51.389473
 20
61.813241
 30
0.0
 10
52.765856
 20
59.979118
 30
0.0
 10
53.575000
 20
57.589368
 30
0.0
 10
53.802846
 20
55.947214
 30
0.0
 10
54.559326
 20
54.983165
 30
0.0
 10
55.726014
 20
54.545362
 30
0.0
 10
57.184478
 20
54.481946
 30
0.0
 10
58.816291
 20
54.641062
 30
0.0
 10
60.503023
 20
54.870846
 30
0.0
 10
62.126246
 20
55.019442
 30
0.0
 10
63.567530
 20
54.934989
 30
0.0
 10
64.893877
 20
55.019460
 30
0.0
 10
66.339725
 20
55.004636
 30
0.0
 10
67.785890
 20
54.995140
 30
0.0
 10
69.113187
 20
55.095597
 30
0.0
 10
70.202432
 20
55.410626
 30
0.0
 10
70.934438
 20
56.044848
 30
0.0
 10
71.190023
 20
57.102886
 30
0.0
 10
70.850000
 20
58.689368
 30
0.0
 10
70.219221
 20
62.636983
 30
0.0
 10
68.825906
 20
66.292622
 30
0.0
 10
66.768666
 20
69.596812
 30
0.0
 10
64.146113
 20
72.490075
 30
0.0
 10
61.056858
 20
74.912938
 30
0.0
 10
57.599514
 20
76.805924
 30
0.0
 10
53.872690
 20
78.109559
 30
0.0
 10
49.975000
 20
78.764368
 30
0.0
 10
49.000690
 20
78.881211
 30
0.0
 10
48.014542
 20
78.982450
 30
0.0
 10
47.019254
 20
79.066785
 30
0.0
 10
46.017518
 20
79.132914
 30
0.0
 10
45.012030
 20
79.179538
 30
0.0
 10
44.005485
 20
79.205356
 30
0.0
 10
43.000577
 20
79.209068
 30
0.0
 10
42.000000
 20
79.189368
 30
0.0
  0
ENDSEC
  0
SECTION
  2
OBJECTS
  0
DICTIONARY
  5
C
330
0
100
AcDbDictionary
  3
ACAD_GROUP
350
D
  3
ACAD_MLINESTYLE
350
17
  0
DICTIONARY
  5
D
330
C
100
AcDbDictionary
  0
DICTIONARY
  5
1A
330
C
100
AcDbDictionary
  0
DICTIONARY
  5
17
330
C
100
AcDbDictionary
  3
STANDARD
350
18
  0
DICTIONARY
  5
19
330
C
100
AcDbDictionary
  0
ENDSEC
  0
EOF
