<?xml version="1.0" encoding="UTF-8" standalone="no"?>
<!-- Created with Inkscape (http://www.inkscape.org/) -->

<svg
   xmlns:dc="http://purl.org/dc/elements/1.1/"
   xmlns:cc="http://creativecommons.org/ns#"
   xmlns:rdf="http://www.w3.org/1999/02/22-rdf-syntax-ns#"
   xmlns:svg="http://www.w3.org/2000/svg"
   xmlns="http://www.w3.org/2000/svg"
   xmlns:sodipodi="http://sodipodi.sourceforge.net/DTD/sodipodi-0.dtd"
   xmlns:inkscape="http://www.inkscape.org/namespaces/inkscape"
   width="106.29921"
   height="106.29921"
   id="svg2"
   version="1.1"
   inkscape:version="0.48.3.1 r9886"
   sodipodi:docname="skull-and-x-bones.svg">
  <defs
     id="defs4" />
  <sodipodi:namedview
     id="base"
     pagecolor="#ffffff"
     bordercolor="#666666"
     borderopacity="1.0"
     inkscape:pageopacity="0.0"
     inkscape:pageshadow="2"
     inkscape:zoom="3.959798"
     inkscape:cx="58.530523"
     inkscape:cy="39.194999"
     inkscape:document-units="px"
     inkscape:current-layer="layer1"
     showgrid="false"
     units="mm"
     inkscape:object-paths="false"
     inkscape:window-width="1342"
     inkscape:window-height="805"
     inkscape:window-x="0"
     inkscape:window-y="0"
     inkscape:window-maximized="0" />
  <metadata
     id="metadata7">
    <rdf:RDF>
      <cc:Work
         rdf:about="">
        <dc:format>image/svg+xml</dc:format>
        <dc:type
           rdf:resource="http://purl.org/dc/dcmitype/StillImage" />
        <dc:title />
      </cc:Work>
    </rdf:RDF>
  </metadata>
  <g
     inkscape:label="Layer 1"
     inkscape:groupmode="layer"
     id="layer1"
     transform="translate(0,-946.06298)">
    <path
       style="fill:#000000;stroke:#000000;stroke-width:0.50000000000000000;stroke-linecap:butt;stroke-linejoin:miter;stroke-miterlimit:4;stroke-opacity:1;stroke-dasharray:none;fill-opacity:1"
       d="M 55 3.46875 C 51.156671 3.4593896 47.293502 3.885878 43.5625 4.6875 C 37.818711 5.9215781 31.760081 7.58552 27.21875 11.3125 C 22.89884 14.857764 19.691202 19.976296 18.03125 25.3125 C 16.855192 29.093143 16.860777 33.336642 17.78125 37.1875 C 18.4406 39.945931 21.049871 41.947286 21.78125 44.6875 C 22.295701 46.614962 22.224829 48.709068 21.96875 50.6875 C 21.61819 53.395876 19.922689 55.813309 19.65625 58.53125 C 19.434639 60.791893 19.362817 63.234978 20.28125 65.3125 C 20.851932 66.603399 22.024083 67.554278 23.125 68.4375 C 25.080126 70.006021 28.578876 69.924308 29.65625 72.1875 C 31.742508 76.570008 26.468657 81.78267 27.3125 86.5625 C 27.715559 88.845568 29.105674 90.959815 30.71875 92.625 C 34.415701 96.441377 39.262074 99.39801 44.375 100.84375 C 50.246277 102.50392 56.64816 101.89984 62.6875 101.03125 C 65.520449 100.62381 68.468987 100.0317 70.90625 98.53125 C 74.831984 96.114451 78.574092 92.747885 80.4375 88.53125 C 80.956047 87.357849 80.70652 85.970314 80.71875 84.6875 C 80.763632 79.979309 77.731684 74.719743 80 70.59375 C 81.252018 68.316371 86.424107 67.017857 86.78125 66.75 C 87.138392 66.482143 88.078549 63.47768 88.21875 61.75 C 88.405371 59.450292 87.727895 57.159738 87.40625 54.875 C 87.0236 52.156922 85.368291 49.405643 86.0625 46.75 C 86.158894 46.381253 86.577648 46.16595 86.78125 45.84375 C 88.672657 42.850608 90.908879 39.813482 91.4375 36.3125 C 92.255723 30.89353 89.651785 20.508929 88.9375 20.0625 C 88.223214 19.616072 81.320948 11.932226 76.59375 9.15625 C 72.105188 6.5204092 67.022202 4.7440924 61.875 3.96875 C 59.610855 3.6276934 57.305997 3.4743663 55 3.46875 z M 67.1875 35 C 67.637703 34.982204 68.077927 34.987232 68.53125 35 C 72.157836 35.102142 75.816992 36.17036 78.59375 38 C 79.978343 38.91232 80.60123 40.90453 80.625 42.5625 C 80.686973 46.88441 79.123592 51.90907 75.6875 54.53125 C 73.496215 56.20345 70.061581 56.5806 67.5 55.5625 C 62.471936 53.56422 58.235561 48.35791 57.125 43.0625 C 56.747636 41.26314 57.181504 38.84783 58.65625 37.75 C 60.990235 36.012539 64.036076 35.124569 67.1875 35 z M 39.59375 35.375 C 43.220336 35.272858 46.83259 36.13933 49.5 38.125 C 50.974746 39.22283 51.377364 41.60689 51 43.40625 C 49.889439 48.70167 45.684314 53.90797 40.65625 55.90625 C 38.094669 56.92435 34.628785 56.57845 32.4375 54.90625 C 29.001408 52.28407 27.469277 47.22815 27.53125 42.90625 C 27.55502 41.24828 28.177907 39.28733 29.5625 38.375 C 32.339258 36.54536 35.967164 35.477142 39.59375 35.375 z M 56.5 55.125 C 56.5 55.125 58.053564 56.0079 58.28125 56.125 C 62.533284 58.3113 65.421028 64.32215 64.59375 69.03125 C 64.310475 70.64375 62.697578 72.3545 61.0625 72.4375 C 59.565649 72.5133 56.858023 71.27615 56.75 69.78125 C 56.318268 64.32895 56.367737 62.1834 56.5 55.125 z M 52.78125 55.15625 C 52.913513 62.21455 52.962982 64.3602 52.53125 69.8125 C 52.423227 71.3074 49.746851 72.54455 48.25 72.46875 C 46.614922 72.38575 44.970775 70.675 44.6875 69.0625 C 43.860222 64.3534 46.747966 58.34255 51 56.15625 C 51.227686 56.03915 52.78125 55.15625 52.78125 55.15625 z M 35.6875 76.09375 C 35.6875 76.09375 45.161808 79.3008 50 79.8125 C 52.959489 80.1255 56.287301 79.87855 59.25 79.59375 C 63.90878 79.14645 72.625 76.46875 72.625 76.46875 C 72.625 76.46875 71.781797 86.9661 68.4375 90.1875 C 65.380142 93.1325 60.047022 93.712 55.40625 93.875 C 50.180597 94.0585 43.07161 92.0499 39.875 88.75 C 37.22369 86.0131 35.6875 76.09375 35.6875 76.09375 z "
       transform="translate(0,946.06298)"
       id="path3907" />
    <path
       style="fill:#000000;stroke:#000000;stroke-width:0.50000000000000000;stroke-linecap:butt;stroke-linejoin:miter;stroke-miterlimit:4;stroke-opacity:1;stroke-dasharray:none;fill-opacity:1"
       d="m 84.064562,1021.9556 c 2.99317,-1.1498 6.789921,-2.5613 9.596449,-5.5558 1.859966,-1.9846 1.848698,-7.6761 4.545687,-7.3236 2.774672,0.3626 1.466958,4.6439 2.272852,7.3236 0.59631,1.9828 2.89286,5.0202 1.51523,6.566 -1.31113,1.4711 -4.095099,0.1156 -6.060926,0.2525 -4.658206,0.3244 -6.913094,5.1868 -11.780006,5.0967 -0.405434,-1.3344 -0.06085,-3.9053 -0.08929,-6.3594 z"
       id="path3834"
       inkscape:connector-curvature="0"
       sodipodi:nodetypes="cssssscc" />
    <path
       style="fill:#000000;stroke:#000000;stroke-width:0.50000000000000000;stroke-linecap:butt;stroke-linejoin:miter;stroke-miterlimit:4;stroke-opacity:1;stroke-dasharray:none;fill-opacity:1"
       d="m 81.90126,1037.8196 c 2.99317,1.1498 8.218492,2.1149 11.02502,5.1094 1.859966,1.9846 1.848698,7.6761 4.545687,7.3236 2.774673,-0.3626 1.466958,-4.6439 2.272849,-7.3236 0.596314,-1.9828 2.892864,-5.0202 1.515234,-6.566 -1.311134,-1.4711 -4.0951,-0.1156 -6.060927,-0.2525 -4.658206,-0.3244 -6.913094,-5.1868 -11.780006,-5.0967 0.487423,2.4951 -0.417993,4.441 -1.517857,6.8058 z"
       id="path3834-8"
       inkscape:connector-curvature="0"
       sodipodi:nodetypes="cssssscc" />
    <path
       style="fill:#000000;stroke:#000000;stroke-width:0.50000000000000000;stroke-linecap:butt;stroke-linejoin:miter;stroke-miterlimit:4;stroke-opacity:1;stroke-dasharray:none;fill-opacity:1"
       d="m 23.324543,1022.5744 c -2.99317,-1.1498 -6.789921,-2.5613 -9.596449,-5.5558 -1.859966,-1.9846 -1.848698,-7.6761 -4.5456879,-7.3236 -2.774673,0.3626 -1.466958,4.6439 -2.272853,7.3236 -0.59631,1.9828 -2.89286,5.0202 -1.51523,6.566 1.31113,1.4711 4.0951005,0.1156 6.0609279,0.2525 4.658206,0.3244 6.913094,5.1868 11.780006,5.0967 0.405432,-1.3344 0.06085,-3.9053 0.08929,-6.3594 z"
       id="path3834-9"
       inkscape:connector-curvature="0"
       sodipodi:nodetypes="cssssscc" />
    <path
       style="fill:#000000;stroke:#000000;stroke-width:0.50000000000000000;stroke-linecap:butt;stroke-linejoin:miter;stroke-miterlimit:4;stroke-opacity:1;stroke-dasharray:none;fill-opacity:1"
       d="m 25.487849,1038.4384 c -2.993174,1.1498 -8.218496,2.1149 -11.025024,5.1094 -1.859966,1.9846 -1.848698,7.6761 -4.5456874,7.3236 -2.7746695,-0.3626 -1.4669585,-4.6439 -2.2728495,-7.3236 -0.596315,-1.9828 -2.892865,-5.0202 -1.515235,-6.566 1.311135,-1.4711 4.0951019,-0.1156 6.0609289,-0.2525 4.658206,-0.3244 6.913094,-5.1868 11.780007,-5.0967 -0.48742,2.4951 0.41799,4.441 1.51786,6.8058 z"
       id="path3834-8-2"
       inkscape:connector-curvature="0"
       sodipodi:nodetypes="cssssscc" />
  </g>
</svg>
